<?xml version="1.0" encoding="UTF-8"?>
<svg width="454px" height="310px" viewBox="0 0 454 310" version="1.1" xmlns="http://www.w3.org/2000/svg" xmlns:xlink="http://www.w3.org/1999/xlink">
    <!-- Generator: Sketch 50.2 (55047) - http://www.bohemiancoding.com/sketch -->
    <title>Group 14</title>
    <desc>Created with Sketch.</desc>
    <defs></defs>
    <g id="Page-1" stroke="none" stroke-width="1" fill="none" fill-rule="evenodd">
        <g id="首页KF-Copy" transform="translate(-116.000000, -1258.000000)">
            <g id="Group-14" transform="translate(117.000000, 1259.000000)">
                <polygon id="Fill-594" fill="#FFFFFF" points="76 53 76 116.752988 20 149 20 85.4651394"></polygon>
                <polygon id="Stroke-595" stroke="#285164" points="76 53 76 116.752988 20 149 20 85.4651394"></polygon>
                <polygon id="Fill-596" fill="#DDE7F1" points="294.86672 12 160 89.4515005 160 178 295 100.968408"></polygon>
                <polygon id="Stroke-597" stroke="#285164" points="294.86672 12 160 89.4515005 160 178 295 100.968408"></polygon>
                <polygon id="Fill-598" fill="#FFFFFF" points="274.575628 0 295 12.0218538 160.572514 89 142 77.5892579"></polygon>
                <polygon id="Stroke-599" stroke="#285164" points="274.575628 0 295 12.0218538 160.572514 89 142 77.5892579"></polygon>
                <polygon id="Fill-600" fill="#FFFFFF" points="142 162.758945 161 177 161 88.4685931 142 77"></polygon>
                <polygon id="Stroke-601" stroke="#285164" points="142 162.758945 161 177 161 88.4685931 142 77"></polygon>
                <path d="M180,98 L180,101" id="Stroke-602" stroke="#285164" stroke-width="3" stroke-linecap="round" stroke-linejoin="round"></path>
                <path d="M180,107 L180,136" id="Stroke-603" stroke="#285164" stroke-width="3" stroke-linecap="round" stroke-linejoin="round" stroke-dasharray="5.355,5.355"></path>
                <path d="M180,139 L180,142" id="Stroke-604" stroke="#285164" stroke-width="3" stroke-linecap="round" stroke-linejoin="round"></path>
                <polyline id="Stroke-605" stroke="#285164" stroke-width="3" stroke-linecap="round" stroke-linejoin="round" points="210 86 209.962113 83 207 84.5305102"></polyline>
                <path d="M201,87 L194,91" id="Stroke-606" stroke="#285164" stroke-width="3" stroke-linecap="round" stroke-linejoin="round" stroke-dasharray="5.7,5.7"></path>
                <polyline id="Stroke-607" stroke="#285164" stroke-width="3" stroke-linecap="round" stroke-linejoin="round" points="192 93 189 94.6887417 189 98"></polyline>
                <path d="M189,102 L189,130" id="Stroke-608" stroke="#285164" stroke-width="3" stroke-linecap="round" stroke-linejoin="round" stroke-dasharray="5.071,5.071"></path>
                <polyline id="Stroke-609" stroke="#285164" stroke-width="3" stroke-linecap="round" stroke-linejoin="round" points="189 133 189 136 192 134.621"></polyline>
                <path d="M197,132 L205,128" id="Stroke-610" stroke="#285164" stroke-width="3" stroke-linecap="round" stroke-linejoin="round" stroke-dasharray="5.632,5.632"></path>
                <polyline id="Stroke-611" stroke="#285164" stroke-width="3" stroke-linecap="round" stroke-linejoin="round" points="207 126 210 124.740064 209.961726 122"></polyline>
                <path d="M209.316,117 L209,88" id="Stroke-612" stroke="#285164" stroke-width="3" stroke-linecap="round" stroke-linejoin="round" stroke-dasharray="5.252,5.252"></path>
                <path d="M236,67.9383306 L256,57 L256,100.615192 L236,111" id="Stroke-613" stroke="#285164" stroke-width="3" stroke-linecap="round" stroke-linejoin="round" stroke-dasharray="6"></path>
                <path d="M255,79 L237,90" id="Stroke-614" stroke="#285164" stroke-width="3" stroke-linecap="round" stroke-linejoin="round" stroke-dasharray="6"></path>
                <path d="M265,54.743915 L284,44 L284,65.3496348 L265,76.3719575 L265,98 L284,86.5580483" id="Stroke-615" stroke="#285164" stroke-width="3" stroke-linecap="round" stroke-linejoin="round" stroke-dasharray="6"></path>
                <path d="M146.565039,139.624356 C146.297186,139.624356 146.044786,139.676974 145.814021,139.788167 C144.452094,140.4444 144.302714,142.927367 145.488477,145.211776 C146.67321,147.495192 148.824272,148.870205 150.1862,148.212978 C151.547097,147.556745 151.696476,145.072785 150.511744,142.789369 C149.52687,140.893141 147.876486,139.624356 146.565039,139.624356 M149.442394,150 C147.470586,150.000992 145.285527,148.451248 143.981291,145.937505 C142.332968,142.761571 142.806861,139.421827 145.059913,138.335716 C147.313996,137.247618 150.369576,138.886714 152.0179,142.06364 C153.667253,145.239574 153.19336,148.579318 150.940308,149.665429 C150.469505,149.892778 149.963676,150 149.442394,150" id="Fill-616" fill="#285164"></path>
                <path d="M156.924379,147 L156.16463,145.505779 C157.536745,144.830673 157.686203,142.276301 156.492609,139.926196 C155.299015,137.578135 153.130825,136.163578 151.758711,136.838684 L151,135.344463 C153.270943,134.227117 156.350416,135.912328 158.011069,139.179596 C159.671721,142.446864 159.195322,145.882654 156.924379,147" id="Fill-618" fill="#285164"></path>
                <polygon id="Fill-620" fill="#285164" points="145.786142 140 145 138.655949 151.213858 136 152 137.344051"></polygon>
                <polygon id="Fill-622" fill="#285164" points="150.786022 150 150 148.655949 156.212903 146 157 147.344051"></polygon>
                <polygon id="Fill-624" fill="#FFFFFF" points="110.25157 217 114 219.402348 112.534952 220 109 217.643444"></polygon>
                <path d="M192,265 L273,219" id="Stroke-626" stroke="#285164"></path>
                <path d="M107,216 L192,265" id="Stroke-628" stroke="#285164" stroke-linecap="round" stroke-linejoin="round"></path>
                <g id="Group-633" transform="translate(97.000000, 144.000000)">
                    <path d="M50.2991,0.9029 L0.9701,28.7929" id="Fill-630" fill="#FFFFFF"></path>
                    <path d="M50.2991,0.9029 L0.9701,28.7929" id="Stroke-632" stroke="#285164" stroke-linecap="round" stroke-linejoin="round"></path>
                </g>
                <polygon id="Fill-634" fill="#FFFFFF" points="65.2108872 149 134 188.19993 65.2108872 229 0 188.999497"></polygon>
                <polygon id="Stroke-636" stroke="#285164" points="65.2108872 149 134 188.19993 65.2108872 229 0 188.999497"></polygon>
                <path d="M63.9319273,114.028921 C63.4396794,112.645443 63.006098,109.002717 61.1150228,110.259538 C59.2230309,111.51636 58.7106165,112.632453 59.1441979,113.144491 C59.5777794,113.655447 60.7602743,114.912269 61.4303547,114.912269 C62.0995185,114.912269 64.4250918,115.411317 63.9319273,114.028921" id="Fill-638" fill="#FFF0F0"></path>
                <path d="M59.4255825,113.09539 C59.4255825,113.09539 56.8665635,110.401396 56.0880065,111.122723 C55.308396,111.846002 59.9418111,114.682504 60.7930615,114.951903 C61.6443119,115.223255 64,114.257907 64,114.257907" id="Fill-640" fill="#FFF0F0"></path>
                <polygon id="Fill-642" fill="#95E8DE" points="94 128.860906 64.3847691 112 59 115.758345 92.6827903 135"></polygon>
                <path d="M79.115,128.328595 C79.115,128.328595 79.717,127.589256 79.888,128.328595 C80.061,129.066904 79.115,130.248609 79,129.953698" id="Stroke-644" stroke="#FFDEDE"></path>
                <path d="M74.7817781,173 C74.7817781,173 71.6523273,175.150892 73.6882154,174.991566 C75.725396,174.834337 74.7817781,173 74.7817781,173" id="Fill-646" fill="#FFF0F0"></path>
                <path d="M329,184 C329,184 326.674243,208.742385 326.162787,209.804531 C325.651331,210.866676 322.403689,212.554888 319.870614,211.82054 C317.336485,211.087177 321.140835,209.315294 321.140835,209.315294 L321.140835,193.557343 L329,184 Z" id="Fill-648" fill="#285164"></path>
                <path d="M335,196.510196 C335,196.510196 334.336615,214.152588 333.852792,215.672934 C333.367972,217.194277 330.214646,218.532301 327.81349,217.788069 C325.412334,217.045829 329.09138,215.177776 329.09138,215.177776 L327.663854,185 L335,196.510196 Z" id="Fill-650" fill="#285164"></path>
                <polygon id="Fill-652" fill="#DDE7F1" points="134 188 133.975005 198.077614 65.2108872 241 0 200.584664 0 188.80274 65.2108872 228.910494"></polygon>
                <polygon id="Stroke-654" stroke="#285164" points="134 188 133.975005 198.077614 65.2108872 241 0 200.584664 0 188.80274 65.2108872 228.910494"></polygon>
                <g id="Group-659" transform="translate(65.000000, 228.000000)">
                    <path d="M0.3748,0.2564 L0.3748,12.2434" id="Fill-656" fill="#DDE7F1"></path>
                    <path d="M0.3748,0.2564 L0.3748,12.2434" id="Stroke-658" stroke="#285164"></path>
                </g>
                <path d="M108.440099,213.215989 C108.2662,213.215989 108.106055,213.235334 107.979315,213.257734 C107.208066,213.394167 106.393587,213.835031 105.687182,214.499891 C104.979795,215.16475 104.476763,215.960953 104.26946,216.743919 C104.165316,217.139984 104.053313,217.878151 104.479711,218.366869 C104.907091,218.854568 105.627251,218.810787 106.018279,218.74257 C106.789528,218.606137 107.604006,218.164255 108.311394,217.500413 C109.677045,216.216511 110.2292,214.445928 109.517883,213.632417 C109.229033,213.302533 108.805583,213.215989 108.440099,213.215989 M105.553565,220 C104.755788,220 104.080823,219.720006 103.611196,219.181398 C103.016794,218.502284 102.848789,217.521795 103.138622,216.42218 C103.403892,215.420309 104.028751,214.41742 104.899231,213.599836 C105.769711,212.781234 106.793458,212.235499 107.782818,212.059358 C108.866497,211.869979 109.791995,212.136738 110.386397,212.81687 C111.564394,214.163898 110.998484,216.615631 109.098362,218.39945 C108.227883,219.218052 107.204136,219.764805 106.215758,219.939928 C105.986839,219.980655 105.765781,220 105.553565,220" id="Fill-660" fill="#285164"></path>
                <path d="M99.2580526,216 C99.0345979,215.872122 98.8334887,215.71121 98.6621734,215.521525 C98.017347,214.809672 97.8364551,213.783454 98.1503557,212.632556 C98.4376546,211.582894 99.1144031,210.534297 100.057169,209.677517 C102.11508,207.809438 104.725244,207.450315 106,208.8591 L105.059362,209.713749 C104.288975,208.862297 102.388546,209.276834 100.909489,210.619549 C100.144423,211.315416 99.598555,212.149818 99.3751003,212.968235 C99.2612448,213.383837 99.1410049,214.156431 99.6028113,214.666876 C99.6847447,214.757456 99.781575,214.835248 99.8901102,214.898121 L99.2580526,216 Z" id="Fill-662" fill="#285164"></path>
                <polygon id="Fill-664" fill="#285164" points="104.277122 219 99 215.938283 99.7228784 215 105 218.062663"></polygon>
                <polygon id="Fill-666" fill="#285164" points="110.286676 213 105 209.902311 105.714387 209 111 212.097689"></polygon>
                <path d="M429.285959,213 L442.290419,205.770736 L441.285928,206.264004 C447.828098,203.341344 451.968876,195.988265 451.99983,185.175323 C452.056744,165.053207 437.856082,140.453741 420.345393,130.342757 C410.908573,124.894848 402.406348,124.748066 396.562129,128.920869 L399.00446,127.501976 L386,134.732238" id="Stroke-668" stroke="#285164" stroke-width="2" stroke-linecap="round" stroke-linejoin="round"></path>
                <path d="M429.285959,213 L442.290419,205.770736 L441.285928,206.264004 C447.828098,203.341344 451.968876,195.988265 451.99983,185.175323 C452.056744,165.053207 437.856082,140.453741 420.345393,130.342757 C410.908573,124.894848 402.406348,124.748066 396.562129,128.920869 L399.00446,127.501976 L386,134.732238" id="Fill-670" fill="#DDE7F1"></path>
                <path d="M408.106138,137.360466 C425.750184,147.510579 440.057173,172.208685 439.999828,192.409664 C439.942484,212.611647 425.540926,220.78988 407.897886,210.639768 C390.25384,200.488653 375.942827,175.793554 376.000172,155.591572 C376.058522,135.38959 390.463098,127.209351 408.106138,137.360466" id="Fill-672" fill="#FFFFFF"></path>
                <path d="M408.106138,137.360466 C425.750184,147.510579 440.057173,172.208685 439.999828,192.409664 C439.942484,212.611647 425.540926,220.78988 407.897886,210.639768 C390.25384,200.488653 375.942827,175.793554 376.000172,155.591572 C376.058522,135.38959 390.463098,127.209351 408.106138,137.360466 Z" id="Stroke-674" stroke="#285164"></path>
                <path d="M408,163 L408.391,178" id="Stroke-676" stroke="#285164" stroke-linecap="round" stroke-linejoin="round"></path>
                <path d="M396,185 L409,178" id="Stroke-678" stroke="#285164" stroke-linecap="round" stroke-linejoin="round"></path>
                <polygon id="Fill-680" fill="#DDE7F1" points="250 158 250 220.076786 301 252 301 187.205053"></polygon>
                <polygon id="Stroke-682" stroke="#285164" points="250 158 250 220.076786 301 252 301 187.205053"></polygon>
                <polygon id="Fill-684" fill="#FFFFFF" points="258.598239 156 250 158.496447 301.319613 189 308 185.406159"></polygon>
                <polygon id="Stroke-686" stroke="#285164" points="258.598239 156 250 158.496447 301.319613 189 308 185.406159"></polygon>
                <polygon id="Fill-688" fill="#FFFFFF" points="301 188.607539 301 253 326.619923 236.970293 328 205.483297 307.622979 185"></polygon>
                <polygon id="Stroke-690" stroke="#285164" points="301 188.607539 301 253 326.619923 236.970293 328 205.483297 307.622979 185"></polygon>
                <polyline id="Stroke-692" stroke="#285164" stroke-linecap="round" stroke-linejoin="round" points="39 102.506714 48.1672385 115 62 84"></polyline>
                <path d="M302.760272,169 C302.760272,169 301.49914,170.148915 300.118361,170.733183 C298.765564,171.30437 297.93285,172.044515 298.004253,172.308308 C298.075656,172.5721 298.136445,172.864234 298.725038,172.930728 C299.31363,172.997221 301.120898,173.051723 302.244047,172.916557 C303.367197,172.782481 304.938063,171.468968 304.998852,171.218256 C305.058676,170.969724 302.760272,169 302.760272,169" id="Fill-694" fill="#FFF0F0"></path>
                <path d="M326.809343,142 C326.809343,142 323.198503,142.645807 320.791948,142.844748 C318.385394,143.043688 304.846762,165.408012 304.044913,167.7943 C303.242056,170.178588 302.266726,170.161593 302.088201,170.359534 C301.701902,170.786406 302.662103,171.120307 303.463951,171.617158 C304.266809,172.11401 306.1509,173.359638 306.852896,172.265965 C307.554892,171.173291 317.482684,157.735303 317.482684,157.735303 L318.586109,194.233407 C318.586109,194.233407 336.537429,200.395567 339.143689,198.707071 C341.750958,197.016576 340.849256,169.482795 340.849256,169.482795 L340.147261,156.900552 L335.233291,145.428976 L326.809343,142 Z" id="Fill-696" fill="#A4C3F7"></path>
                <polygon id="Fill-698" fill="#FFFFFF" points="334.769644 160 337 171.430623 329.22938 173 327 161.569377"></polygon>
                <path d="M331.04148,142 C331.04148,142 339.465876,147.402993 341.092088,151.004653 C342.71731,154.606313 348.333244,163.012199 346.708022,166.313972 C345.081809,169.614739 336.509756,172.016852 332.81535,171.866909 C329.119952,171.716965 326.606805,172.617632 327.050768,171.117192 C327.49374,169.614739 338.431283,164.512639 338.431283,164.512639 L330.449859,155.957816" id="Fill-700" fill="#A4C3F7"></path>
                <path d="M335,138.500513 C335,142.08969 332.761861,145 330.000508,145 C327.238139,145 325,142.08969 325,138.500513 C325,134.91031 327.238139,132 330.000508,132 C332.761861,132 335,134.91031 335,138.500513" id="Fill-702" fill="#FFF0F0"></path>
                <path d="M325.096826,136.357701 C325.096826,136.357701 327.755919,136.995826 329.072342,137.279648 C329.728534,137.420607 329.399428,138.638758 330.578555,139.410222 C331.763739,140.187401 334.006907,141.531273 333.857497,141.975103 C333.728277,142.35893 337.638173,138.227311 335.195119,134.935731 C333.46681,132.607052 329.728534,130.726965 326.427382,133.088979 C325.62279,133.664243 324.695035,134.935731 325.096826,136.357701" id="Fill-704" fill="#285164"></path>
                <path d="M325,141.519233 C325,141.519233 319.418996,142.573777 317.925889,144.471957 C316.432781,146.371082 317.19405,142.536892 317.19405,142.536892 L321.002357,141 L325,141.519233 Z" id="Fill-706" fill="#FFFFFF"></path>
                <path d="M86.999072,197.412119 C86.9108427,197.506347 83.6245495,200.123555 83.5055886,199.995447 C83.4401601,199.926629 81.5734663,198.722841 79.8911617,197.642925 C78.6906485,196.87322 78.70651,195.009836 79.9179279,194.262365 C80.4710958,193.922509 81.1481813,193.911921 81.7092799,194.235896 C83.4441255,195.236406 87.0664832,197.341184 86.999072,197.412119" id="Fill-708" fill="#285164"></path>
                <path d="M96.9974307,191.941489 C96.8802156,192.000715 93.888035,193.211986 93.6461457,192.96744 C93.405322,192.721937 91.9912823,191.36069 90.5410124,189.985114 C89.5073887,189.005971 90.0273973,187.390624 91.4851263,187.055327 C92.1500554,186.903441 92.8533457,187.068701 93.3467145,187.496658 C94.8715758,188.816829 97.0858748,191.896592 96.9974307,191.941489" id="Fill-710" fill="#285164"></path>
                <path d="M86.6626953,196.407277 C86.4401484,199.943348 83.0978982,198.835651 83.0978982,198.835651 L79,165.081249 L88,162 C88,162 86.8852422,192.872201 86.6626953,196.407277" id="Fill-712" fill="#285164"></path>
                <path d="M97,192.691702 C97,194.830309 93.8202486,193.703192 93.8202486,193.703192 L87,157 L97,158.674085 L97,192.691702 Z" id="Fill-714" fill="#285164"></path>
                <path d="M79.9954325,170.577291 L96.9340676,160.876745 L97,136.461083 C97,132.502849 92.6994088,126.420857 89.2889052,128.378303 L78.072404,133.558176 C76.4730436,134.476422 72.063564,147.205869 72.063564,149.061512 L72.0006286,165.85906 C71.9846449,170.008805 72.2124114,174.298656 79.9954325,170.577291" id="Fill-716" fill="#95E8DE"></path>
                <path d="M78.8693667,133 C78.8693667,133 72.2565094,136.398991 72.0018554,150.915677 C71.7461827,165.432364 98,160.007583 98,160.007583 L97.4234632,135.189431 L78.8693667,133 Z" id="Fill-718" fill="#95E8DE"></path>
                <path d="M89,127.5 C89,131.090212 86.0894142,134 82.5005139,134 C78.9105858,134 76,131.090212 76,127.5 C76,123.909788 78.9105858,121 82.5005139,121 C86.0894142,121 89,123.909788 89,127.5" id="Fill-720" fill="#FFF0F0"></path>
                <path d="M77.1119366,123.03518 C77.3256115,123.254959 76.6116977,126.441752 77.32661,126.962443 C78.0425207,127.482107 78.7144984,127.748101 78.7144984,127.748101 C78.7144984,127.748101 79.7878653,128.345817 78.5287809,129.758974 C77.2696966,131.171104 79.9665933,134.099092 81.390427,133.997419 C82.8132623,133.895746 85.8965711,133.540402 87.1057315,130.854787 C88.3148918,128.169172 88.1920786,126.262026 87.366335,124.63936 C86.5405913,123.017721 84.8841116,121.215329 81.9635551,121.013009 C79.043997,120.810689 77.1119366,123.03518 77.1119366,123.03518" id="Fill-722" fill="#285164"></path>
                <path d="M73.8038076,172.754393 C73.8038076,172.754393 71.9952404,175.149238 73.8038076,175.77681 C75.6123749,176.404381 76.8973569,175.576365 76.9922817,174.920458 C77.0872065,174.264552 76.2788469,172.412272 76.0879981,172.070151 C75.8981485,171.726981 73.8038076,172.754393 73.8038076,172.754393" id="Fill-724" fill="#FFF0F0"></path>
                <path d="M75.9722343,135 C75.9722343,135 77.5994387,136.43932 76.7589211,143.924382 C75.9193478,151.409444 77.3652271,171.3573 76.7589211,171.952192 C76.1535595,172.548083 72.3598973,174.029324 72.2503467,171.853376 C72.1398517,169.677428 70.7430814,142.892304 75.9722343,135" id="Fill-726" fill="#95E8DE"></path>
                <g id="Group-731" transform="translate(194.000000, 206.000000)">
                    <polyline id="Fill-728" fill="#FFFFFF" points="0.2064 62.3843 0.2064 0.0133 51.3694 30.4503 51.3694 91.3123 51.3694 94.4573"></polyline>
                    <polyline id="Stroke-730" stroke="#285164" points="0.2064 62.3843 0.2064 0.0133 51.3694 30.4503 51.3694 91.3123 51.3694 94.4573"></polyline>
                </g>
                <g id="Group-739" transform="translate(230.000000, 300.000000)">
                    <path d="M15.3694,0.4576 C15.3694,4.5626 12.0414,7.8916 7.9364,7.8916 C3.8304,7.8916 0.5024,4.5626 0.5024,0.4576" id="Fill-736" fill="#FFFFFF"></path>
                    <path d="M15.3694,0.4576 C15.3694,4.5626 12.0414,7.8916 7.9364,7.8916 C3.8304,7.8916 0.5024,4.5626 0.5024,0.4576" id="Stroke-738" stroke="#285164"></path>
                </g>
                <g id="Group-743" transform="translate(178.000000, 270.000000)">
                    <path d="M4.0716,8.1343 C2.9206,7.5203 1.9176,6.5953 1.1986,5.3953 C0.4086,4.0733 0.1696,2.0973 0.2486,0.6673" id="Fill-740" fill="#FFFFFF"></path>
                    <path d="M4.0716,8.1343 C2.9206,7.5203 1.9176,6.5953 1.1986,5.3953 C0.4086,4.0733 0.1696,2.0973 0.2486,0.6673" id="Stroke-742" stroke="#285164"></path>
                </g>
                <g id="Group-747" transform="translate(182.000000, 278.000000)">
                    <path d="M0.0506,0.1646 L52.6256,29.1076" id="Fill-744" fill="#FFFFFF"></path>
                    <path d="M0.0506,0.1646 L52.6256,29.1076" id="Stroke-746" stroke="#285164"></path>
                </g>
                <g id="Group-735" transform="translate(178.000000, 234.000000)">
                    <polyline id="Fill-732" fill="#FFFFFF" points="0.241 37.0445 0.961 0.2495 52.514 29.8905 52.538 67.1695"></polyline>
                    <polyline id="Stroke-734" stroke="#285164" points="0.241 37.0445 0.961 0.2495 52.514 29.8905 52.538 67.1695"></polyline>
                </g>
                <path d="M179.180156,269.731444 C178.519568,273.324968 179.675638,275.997246 182.648366,277.748278 C185.621095,279.499311 194.645303,284.502812 209.720993,292.758783 L229.963343,303.878046 L232,305 C231.091189,303.889397 230.636784,302.755149 230.636784,301.597258 C230.636784,300.439367 229.07372,295.788619 225.94759,287.645015 L205.430208,280.846721 L188.80069,268 L179.180156,269.731444 Z" id="Path-2" fill="#FFFFFF"></path>
                <path d="" id="Path-4" stroke="#979797"></path>
                <polygon id="Path-5" fill="#FFFFFF" points="231 289 231 299.973842 235.074372 302.199134 239.893163 303 241.446819 300.796404 242 297.217009 241.446819 294.319529 239.335956 291.384642 236.5 289.599995"></polygon>
            </g>
        </g>
    </g>
</svg>