<?xml version="1.0" encoding="utf-8"?>
<!-- Generator: Adobe Illustrator 21.0.0, SVG Export Plug-In . SVG Version: 6.00 Build 0)  -->
<svg version="1.1" id="图层_1" xmlns="http://www.w3.org/2000/svg" xmlns:xlink="http://www.w3.org/1999/xlink" x="0px" y="0px"
	 viewBox="0 0 451 316" width="451" height="316" style="enable-background:new 0 0 451 316;" xml:space="preserve">
<style type="text/css">
	.st0{fill:#FFF0F0;}
	.st1{fill:#DDE7F1;}
	.st2{fill:none;stroke:#285164;}
	.st3{fill:#FFFFFF;}
	.st4{fill:#285164;}
	.st5{fill:#95E8DE;}
	.st6{filter:url(#Adobe_OpacityMaskFilter);}
	.st7{mask:url(#mask-2);fill:#285164;}
	.st8{fill:#A4C3F7;}
	.st9{fill:none;stroke:#000000;stroke-width:0.1;}
	.st10{fill:#FFEEA6;}
	.st11{fill:none;stroke:#285164;stroke-width:0.5;}
</style>
<title>Group 4</title>
<desc>Created with Sketch.</desc>
<path id="Fill-1" class="st0" d="M102.9,7.6c-0.6-1.4-1.3-4.6-3.5-3.2c-2.2,1.3-2.7,2.5-2.2,3c0.5,0.5,2,1.7,2.7,1.7
	C100.7,9,103.5,8.9,102.9,7.6"/>
<path id="Fill-3" class="st0" d="M97.9,7.6c0,0-3-3.4-3.8-2.4c-0.8,1,4.4,4.5,5.4,4.8s3.5-1,3.5-1"/>
<path id="Fill-5" class="st0" d="M102.9,6c0,0,1.2,1,1.1,1.9c-0.1,0.9-1.4,2-2,2.1c-0.5,0.1-2-0.5-2.6-0.7C98.9,9.1,99,7.5,99,7.5
	l0.9-1.1L102.9,6z"/>
<path id="Fill-7" class="st1" d="M90.8,117.1c-0.3,4.7,2,12-1.4,13.4c-3.4,1.5-19.6-5-30.6,0c-11,5-30.7,9.5-38.3,4.6
	c-2.3-1.5-4.6-10.8-2.8-13.1c4.2-5.2,18.8-3.9,20.5-4.6c2.5-1.1,8.2-5.9,7.1-8.8c-1.1-2.9-12.9-8.5-13.5-14.2
	c-0.2-1.7-1.7-8.7-1.4-10.1c1.8-7.6,33.2-1.8,35.5-4.1c2.5-2.5,12.8-18.4,21.7-14.9c8.9,3.5,18.5,6,25.6,3.9
	c7.1-2.1,31.3,0,36.6,5.7c5.3,5.7,20.3,16.6,27.4,17.3c7.1,0.7,34.5,7.1,44.8,13.8c10.3,6.7,25.2,22.3,27.7,20.5
	c2.5-1.8,7.9-1,8.2,2.9c0.4,3.9,0,3.8,3.2,7.7c2.3,2.8,9.6-1.8,14.8,5c2.1,2.7,4.9,6.2,5.2,14.5c0.2,5.5-29.5-0.4-34.5-3.9
	c-5-3.5-14.9-12.7-23.1-12.4c-8.2,0.4-2.8,10.3-11.4,13.1c-8.5,2.8-18.5,5-26,0.7c-7.5-4.2-21.8-4.6-27.6-3.5
	c-5.8,1.1-12.2,7.4-16.5,3.5c-4.3-3.9-1.8-15.2-10.7-16.3c-8.9-1.1-15.8,2.1-16,0c-0.4-3.6-3.5-10.7,1.4-16.1
	c4.4-4.9-10.3,5.5-14.2,3.4c-3.9-2.1-7.5-14.1-12.4-11C90.1,114.3,91,113.9,90.8,117.1z"/>
<path id="Stroke-9" class="st2" d="M90.1,114.3c0,0,0.9-0.4,0.7,2.8c-0.3,4.7,2,12-1.4,13.4c-3.4,1.5-19.6-5-30.6,0
	c-11,5-30.7,9.5-38.3,4.6c-2.3-1.5-4.6-10.8-2.8-13.1c4.2-5.2,18.8-3.9,20.5-4.6c2.5-1.1,8.2-5.9,7.1-8.8
	c-1.1-2.9-12.9-8.5-13.5-14.2c-0.2-1.7-1.7-8.7-1.4-10.1c1.8-7.6,33.2-1.8,35.5-4.1c2.5-2.5,12.8-18.4,21.7-14.9
	c8.9,3.5,18.5,6,25.6,3.9c7.1-2.1,31.3,0,36.6,5.7c5.3,5.7,20.3,16.6,27.4,17.3c7.1,0.7,34.5,7.1,44.8,13.8
	c10.3,6.7,25.2,22.3,27.7,20.5c2.5-1.8,6.3-1.4,10.7,2.9c4.4,4.2-9.3,6.1-6.1,10c3.2,3.9,25.8-11.6,26.7,17.2
	c0.2,5.5-29.5-0.4-34.5-3.9c-5-3.5-14.9-12.7-23.1-12.4c-8.2,0.4-2.8,10.3-11.4,13.1c-8.5,2.8-18.5,5-26,0.7
	c-7.5-4.2-21.8-4.6-27.6-3.5c-5.8,1.1-12.2,7.4-16.5,3.5c-4.3-3.9-1.8-15.2-10.7-16.3c-8.9-1.1-15.8,2.1-16,0
	c-0.4-3.6-3.5-10.7,1.4-16.1c4.4-4.9-10.3,5.5-14.2,3.4C98.6,123.2,95,111.1,90.1,114.3z"/>
<path id="Fill-11" class="st1" d="M311.8,169.1c0,0-28.4-22.8-33.2-14.2c-6.7,12.1,0.4,19,8.5,21.3c8.1,2.4,11.4,7.1,11.2,10.7
	c-0.2,2.4-16.8,10.1-16,20.9c0.6,7.7,1.8,15.3,7.4,17.4c17.6,6.4,37.7,6.2,43.4,5c5.7-1.2,17.3-5.9,19.7-3.1
	c2.4,2.9,2.1,10.2,6.2,9.8c4-0.3,6.2-12.5,7.1-16.3c0.9-3.8,8.5-5.7,12.1-6.4c3.6-0.7,5.7-13.6,14-10.7c8.3,2.9,1.2,2.8,1.8,7.4
	c0.5,3.9,1.6,13.8,8.4,14.8c6.9,1,43.4,9,47,3.8c0.9-1.3,1-4.9-1.4-10.1c-6.4-14.3-43.8-25.2-53.7-30.3
	c-13.1-6.7-34.4-9.7-53.4-12.4C322,174.1,318.5,172.4,311.8,169.1"/>
<path id="Stroke-13" class="st2" d="M311.8,169.1c0,0-28.4-22.8-33.2-14.2c-6.7,12.1,0.4,19,8.5,21.3c8.1,2.4,11.4,7.1,11.2,10.7
	c-0.2,2.4-16.8,10.1-16,20.9c0.6,7.7,1.8,15.3,7.4,17.4c17.6,6.4,37.7,6.2,43.4,5c5.7-1.2,17.3-5.9,19.7-3.1
	c2.4,2.9,2.1,10.2,6.2,9.8c4-0.3,6.2-12.5,7.1-16.3c0.9-3.8,8.5-5.7,12.1-6.4c3.6-0.7,5.7-13.6,14-10.7c8.3,2.9,1.2,2.8,1.8,7.4
	c0.5,3.9,1.6,13.8,8.4,14.8c6.9,1,43.4,9,47,3.8c0.9-1.3,1-4.9-1.4-10.1c-6.4-14.3-43.8-25.2-53.7-30.3
	c-13.1-6.7-34.4-9.7-53.4-12.4C322,174.1,318.5,172.4,311.8,169.1z"/>
<path id="Fill-15" class="st3" d="M88,104.7c0,0-3.2,4.6,0,7.6c3.2,3,2.7,7.3-0.7,8.7c-3.4,1.5-19.5-5-30.5,0
	c-11,5-30.7,9.6-38.2,4.6c-7.6-5,15.2-16.7,17.6-17.8c2.5-1.1,8.2-6,7.1-8.9s-14.2-8.6-13.5-14.3C30.5,79,61.4,73,63.8,70.5
	c2.5-2.5,12.8-18.5,21.6-15c8.9,3.6,18.4,6.1,25.5,3.9c7.1-2.1,31.2,0,36.5,5.7c5.3,5.7,20.2,16.7,27.3,17.5
	c7.1,0.7,34.4,7.1,44.7,13.9c10.3,6.8,25.6,19.4,27.7,20.7c2.1,1.3,8.2,6.8,11.4,10.7c3.2,3.9,23.8,15.7,19.9,19.6
	c-3.9,3.9-29.4-0.4-34.4-3.9c-5-3.6-14.9-12.8-23.1-12.5c-8.2,0.4-2.8,10.3-11.4,13.2c-8.5,2.9-18.5,5-25.9,0.7
	c-7.5-4.3-21.8-4.6-27.6-3.6c-5.8,1.1-12.2,7.5-16.4,3.6c-4.3-3.9-1.8-15.3-10.6-16.4c-8.9-1.1-15.6,2.1-16,0
	c-0.4-2.1,6.7-12.2,1.4-16.2c-5.2-4-10.3,5.5-14.2,3.4C96.5,113.6,92.9,101.5,88,104.7"/>
<path id="Stroke-17" class="st2" d="M88,104.7c0,0-3.2,4.6,0,7.6c3.2,3,2.7,7.3-0.7,8.7c-3.4,1.5-19.5-5-30.5,0
	c-11,5-30.7,9.6-38.2,4.6c-7.6-5,15.2-16.7,17.6-17.8c2.5-1.1,8.2-6,7.1-8.9s-14.2-8.6-13.5-14.3C30.5,79,61.4,73,63.8,70.5
	c2.5-2.5,12.8-18.5,21.6-15c8.9,3.6,18.4,6.1,25.5,3.9c7.1-2.1,31.2,0,36.5,5.7c5.3,5.7,20.2,16.7,27.3,17.5
	c7.1,0.7,34.4,7.1,44.7,13.9c10.3,6.8,25.6,19.4,27.7,20.7c2.1,1.3,8.2,6.8,11.4,10.7c3.2,3.9,23.8,15.7,19.9,19.6
	c-3.9,3.9-29.4-0.4-34.4-3.9c-5-3.6-14.9-12.8-23.1-12.5c-8.2,0.4-2.8,10.3-11.4,13.2c-8.5,2.9-18.5,5-25.9,0.7
	c-7.5-4.3-21.8-4.6-27.6-3.6c-5.8,1.1-12.2,7.5-16.4,3.6c-4.3-3.9-1.8-15.3-10.6-16.4c-8.9-1.1-15.6,2.1-16,0
	c-0.4-2.1,6.7-12.2,1.4-16.2c-5.2-4-10.3,5.5-14.2,3.4C96.5,113.6,92.9,101.5,88,104.7z"/>
<path id="Fill-19" class="st3" d="M311.2,158.7c0,0-19.9-11.3-28.5-6.6c-8.5,4.7-4.3,11.3,3.8,13.7c8.1,2.4,11.4,7.1,11.2,10.6
	c-0.2,3.5-26.1,31.6-8.5,37.9c17.6,6.4,37.7,6.1,43.4,4.9c5.7-1.2,17.3-5.9,19.7-3.1c2.4,2.8,2.1,10.1,6.2,9.8
	c4-0.3,6.2-12.3,7.1-16.1c0.9-3.8,8.5-5.7,12.1-6.4c3.6-0.7,5.7-13.4,14-10.6c8.3,2.8,5.9,9.9,3.8,13.2c-2.1,3.3-0.5,7.8,6.4,8.7
	c6.9,0.9,43.4,9,47,3.8c3.6-5.2-42-33.5-55.1-40.1c-13.1-6.6-34.4-9.7-53.4-12.3C321.4,163.7,317.8,162,311.2,158.7"/>
<path id="Stroke-21" class="st2" d="M311.2,158.7c0,0-19.9-11.3-28.5-6.6c-8.5,4.7-4.3,11.3,3.8,13.7c8.1,2.4,11.4,7.1,11.2,10.6
	c-0.2,3.5-26.1,31.6-8.5,37.9c17.6,6.4,37.7,6.1,43.4,4.9c5.7-1.2,17.3-5.9,19.7-3.1c2.4,2.8,2.1,10.1,6.2,9.8
	c4-0.3,6.2-12.3,7.1-16.1c0.9-3.8,8.5-5.7,12.1-6.4c3.6-0.7,5.7-13.4,14-10.6c8.3,2.8,5.9,9.9,3.8,13.2c-2.1,3.3-0.5,7.8,6.4,8.7
	c6.9,0.9,43.4,9,47,3.8c3.6-5.2-42-33.5-55.1-40.1c-13.1-6.6-34.4-9.7-53.4-12.3C321.4,163.7,317.8,162,311.2,158.7z"/>
<path id="Fill-23" class="st1" d="M159.3,161.1c0,3.6,2.5,0.6,3.6,9.3c0.3,2.8,0,3.8,0,5.4c0,4.5-5.9,7.4-8.7,9.7
	c-3.6,2.8-0.2,5.2-3.6,8.7c-3.3,3.5-13.3,7.1-22.2,7.8c-8.8,0.7-0.7-12.9-8.6-14.8c-7.9-1.9-14.8,0.7-15.5-1.9
	c-0.3-1.2-0.6-7.1,0-10.9c0.5-3.3,5.5-1.4,10.3-0.9c8.8,0.9,18.5,2.2,17.9-1.7c-0.5-3.9,5.6-5.4,6.1-9.9c0.5-4.5-16.2-8.4-13.3-10.3
	c2.9-1.9,5,1.6,9.5,3.3c4.5,1.6,25.9-5.5,25.9-1.3C160.7,157.8,159.3,159.1,159.3,161.1"/>
<path id="Stroke-25" class="st2" d="M159.3,161.1c0,3.6,2.5,0.6,3.6,9.3c0.3,2.8,0,3.8,0,5.4c0,4.5-5.9,7.4-8.7,9.7
	c-3.6,2.8-0.2,5.2-3.6,8.7c-3.3,3.5-13.3,7.1-22.2,7.8c-8.8,0.7-0.7-12.9-8.6-14.8c-7.9-1.9-14.8,0.7-15.5-1.9
	c-0.3-1.2-0.6-7.1,0-10.9c0.5-3.3,5.5-1.4,10.3-0.9c8.8,0.9,18.5,2.2,17.9-1.7c-0.5-3.9,5.6-5.4,6.1-9.9c0.5-4.5-16.2-8.4-13.3-10.3
	c2.9-1.9,5,1.6,9.5,3.3c4.5,1.6,25.9-5.5,25.9-1.3C160.7,157.8,159.3,159.1,159.3,161.1z"/>
<g id="Group-30" transform="translate(232.000000, 247.000000)">
	<path id="Fill-27" class="st1" d="M2,31v10.1l0.2,0c0.8,1.1,4.5,0.5,8.1,0.6c7.8,0,64.6-8.5,70.5-10.9c5.9-2.4,2.4-8.8,0-16.1
		C78.4,7.4,72.5,0.3,66.1,1.2c-6.4,0.9,2.5,4,0.1,3.6C63.8,4.3,42.8-4,49.3,4.2"/>
	<path id="Stroke-29" class="st2" d="M2,31v10.1l0.2,0c0.8,1.1,4.5,0.5,8.1,0.6c7.8,0,64.6-8.5,70.5-10.9c5.9-2.4,2.4-8.8,0-16.1
		C78.4,7.4,72.5,0.3,66.1,1.2c-6.4,0.9,2.5,4,0.1,3.6C63.8,4.3,42.8-4,49.3,4.2"/>
</g>
<path id="Fill-31" class="st3" d="M242.2,277.9c-5.3,0-10.6,1.2-7.1-3.3c3.6-4.5,19.6-11.3,27-14.4c7.3-3.1,23.6-12.1,17.2-20.3
	c-6.5-8.2-0.9-12.3,1.5-11.8c2.4,0.5,10.9,10.4,17.3,9.4c6.4-0.9,12.3,6.1,14.7,13.5c2.4,7.3,5.9,13.7,0,16.1
	C306.8,269.4,250,277.9,242.2,277.9"/>
<path id="Stroke-33" class="st2" d="M242.2,277.9c-5.3,0-10.6,1.2-7.1-3.3c3.6-4.5,19.6-11.3,27-14.4c7.3-3.1,23.6-12.1,17.2-20.3
	c-6.5-8.2-0.9-12.3,1.5-11.8c2.4,0.5,10.9,10.4,17.3,9.4c6.4-0.9,12.3,6.1,14.7,13.5c2.4,7.3,5.9,13.7,0,16.1
	C306.8,269.4,250,277.9,242.2,277.9z"/>
<path id="Fill-35" class="st3" d="M160,153.5c0,3.6-7.8,4.5-3,11.8c4.9,7.3-0.1,10.3-3.6,13.2c-3.5,2.8-0.2,5.2-3.5,8.7
	c-3.3,3.5-13.2,7.1-21.9,7.8c-8.7,0.7-0.7-12.9-8.5-14.8c-7.8-1.9-14.6,0.7-15.3-1.9c-0.7-2.6,1.4-12.7,10.1-11.8
	c8.7,0.9,18.3,2.2,17.7-1.7c-0.5-3.9-11.1-5.3-10.7-9.8c0.5-4.5,0.7-8.5,3.5-10.4c2.8-1.9,5,1.6,9.4,3.3c4.5,1.7,25.7-2.8,25.7,1.4
	V153.5z"/>
<path id="Stroke-37" class="st2" d="M160,153.5c0,3.6-7.8,4.5-3,11.8c4.9,7.3-0.1,10.3-3.6,13.2c-3.5,2.8-0.2,5.2-3.5,8.7
	c-3.3,3.5-13.2,7.1-21.9,7.8c-8.7,0.7-0.7-12.9-8.5-14.8c-7.8-1.9-14.6,0.7-15.3-1.9c-0.7-2.6,1.4-12.7,10.1-11.8
	c8.7,0.9,18.3,2.2,17.7-1.7c-0.5-3.9-11.1-5.3-10.7-9.8c0.5-4.5,0.7-8.5,3.5-10.4c2.8-1.9,5,1.6,9.4,3.3c4.5,1.7,25.7-2.8,25.7,1.4
	V153.5z"/>
<path id="Fill-39" class="st4" d="M110,112.8c-0.1,0.1-3.6,3.4-3.8,3.2c-0.1-0.1-2.2-1.5-4.2-2.7c-1.4-0.9-1.4-3.1,0-3.9
	c0.6-0.4,1.4-0.4,2.1,0C106.1,110.4,110.1,112.7,110,112.8"/>
<path id="Fill-41" class="st4" d="M128,107.8c-0.1,0.1-3.7,1.4-3.8,1.2c-0.1-0.1-1.9-1.9-3.5-3.5c-1.2-1.1-0.6-3,1.1-3.4
	c0.8-0.2,1.6,0,2.1,0.5C125.6,104.1,128.1,107.7,128,107.8"/>
<path id="Fill-43" class="st4" d="M102.7,62c0,0-3.3,54,4.4,54c7.7,0,9.9-56,9.9-56L102.7,62z"/>
<path id="Fill-45" class="st4" d="M116,60c0,0,1.5,50.9,9.3,50c7.8-0.9,5.4-57,5.4-57L116,60z"/>
<path id="Fill-47" class="st5" d="M112,66.2L131.9,55l0.1-28.2c0-4.6-5.1-11.6-9.1-9.3l-12.7,7.1c-1.9,1.1-8.3,17.4-8.3,19.5
	l0.6,16.7C102.6,65.5,107.8,68.5,112,66.2"/>
<path id="Fill-49" class="st5" d="M111,24c0,0-8.7,3.1-9,20.2c-0.3,17.1,30,10.7,30,10.7l0-29.1L111,24z"/>
<path id="Fill-51" class="st5" d="M108.2,24.6L92.6,34.7l-1-16.7l-3.9,1.6c0,0-3.7,20.9,0,23.9c3.7,3,22.4-9.5,22.4-9.5L108.2,24.6z
	"/>
<g id="Group-55" transform="translate(87.000000, 0.000000)">
	<g id="Clip-54">
	</g>
	<defs>
		<filter id="Adobe_OpacityMaskFilter" filterUnits="userSpaceOnUse" x="1.2" y="0.8" width="12" height="13.7">
			<feColorMatrix  type="matrix" values="1 0 0 0 0  0 1 0 0 0  0 0 1 0 0  0 0 0 1 0"/>
		</filter>
	</defs>
	<mask maskUnits="userSpaceOnUse" x="1.2" y="0.8" width="12" height="13.7" id="mask-2">
		<g class="st6">
			<polygon id="path-1" class="st3" points="1.2,0.8 13.3,0.8 13.3,14.5 1.2,14.5 			"/>
		</g>
	</mask>
	<polygon id="Fill-53" class="st7" points="1.2,7.2 2.2,14.5 13.3,8 12.4,0.8 	"/>
</g>
<path id="Fill-56" class="st5" d="M100.8,6c0,0,26.3,12.1,27.5,12.7c1.2,0.7,3.8,6.3,2.3,8.1C129,28.7,98.3,9.4,98,8.4
	C97.7,7.4,100.8,6,100.8,6"/>
<path id="Fill-58" class="st0" d="M121,17.5c0,4.1-3.4,7.5-7.5,7.5c-4.1,0-7.5-3.4-7.5-7.5s3.4-7.5,7.5-7.5
	C117.6,10,121,13.4,121,17.5"/>
<path id="Fill-60" class="st4" d="M108.1,12.3c0.3,0.3-0.6,3.9,0.3,4.5c0.8,0.6,1.6,0.9,1.6,0.9s1.3,0.7-0.2,2.3
	c-1.5,1.6,1.7,5,3.4,4.9c1.7-0.1,5.3-0.5,6.8-3.6c1.4-3.1,1.3-5.3,0.3-7.2s-2.9-4-6.4-4.2C110.4,9.8,108.1,12.3,108.1,12.3"/>
<path id="Fill-62" class="st0" d="M88.1,21C88,20.9,88.2,21,88.1,21c-0.2-0.1-0.4-0.2-0.6-0.4c-0.3-0.3-0.5-0.7-0.7-1.1
	c-0.3-0.7-0.4-1.4-0.6-2.1c-0.1-0.3-0.1-0.6-0.2-0.9c0-0.2-0.1-0.4,0-0.7c0.1-0.2,0.3-0.4,0.5-0.6c0.5-0.4,0.9-0.8,1.5-1.1
	c0.1-0.1,0.3-0.1,0.4-0.2c0.2-0.2,0.1-0.4,0-0.6c-0.4-0.4-0.7-1-0.8-1.6c0-0.2-0.1-0.3,0-0.5C87.6,11,88,11,88.3,11
	c0.1,0,0.3,0.1,0.4,0.2c0.1,0.1,0.2,0.2,0.4,0.3c0.1,0.1,0.2,0.2,0.3,0.3c0.2,0.1,0.3,0.2,0.5,0.4c0.1,0.1,0.3,0.2,0.4,0.3
	c0.1,0.1,0.1,0.1,0.2,0.2c0,0,0.1,0.1,0.2,0.1c0,0,0,0,0-0.1c0,0,0,0,0-0.1c0,0,0,0,0.1-0.1c0.2-0.1,0.3,0.1,0.4,0.2
	c0.1,0.1,0.3,0.1,0.4,0.2c0.3,0.1,0.6,0.2,0.7,0.4c0.2,0.2,0.3,0.6,0.3,0.9c0,0.1,0,0.3,0,0.4c0,0.3,0.2,0.7,0.3,1
	c0.1,0.6-0.1,1.1-0.3,1.7c-0.1,0.2-0.1,0.4-0.2,0.6c-0.1,0.3-0.2,0.5-0.3,0.8c-0.2,0.5-0.3,1.1-0.2,1.6c0,0.1,0,0.2-0.1,0.3
	c0,0-0.1,0.1-0.2,0.1c-0.4,0.1-0.8,0.2-1.1,0.2c-0.5,0-1,0-1.5,0c-0.1,0-0.2,0-0.2,0c-0.1,0-0.1-0.1-0.1-0.1c-0.5-0.5-0.9-1-1.4-1.6
	c-0.2-0.3-0.4-0.6-0.6-0.9c-0.2-0.4-0.3-0.9-0.3-1.4c-0.1-0.4-0.1-0.7,0-1.1c0.2-0.9,1.1-1.4,1.9-1.9c0.1,0,0.1-0.1,0.2-0.1
	c0-0.1,0-0.2,0-0.2"/>
<path id="Fill-64" class="st0" d="M92,19.7c0,0-1.7,1-2.5,1.2c-0.8,0.2-1,0.1-1.3-0.1c-0.4-0.2,0-1.3,0-1.3S88.8,19,89,19
	C89.2,19,92,19.7,92,19.7"/>
<path id="Fill-66" class="st5" d="M212,74.2c0,0,7.8-12.6,11.3-11.1c3.4,1.5-8.4,23-7.5,20.9"/>
<polygon id="Fill-68" class="st4" points="223.2,63 223,69.2 232,74 232,67.7 "/>
<path id="Fill-70" class="st5" d="M226,94l-6,13"/>
<path id="Fill-72" class="st5" d="M231.7,66.1c-4-1.1-5.1,4.2-5.1,4.2l-5.7,17.8c0,0-2.9-4.7-5.7-5l-7.7-0.9
	c0,0-12.3,23.5-11.4,35.8L226,93.5C228.9,85.9,235.9,67.1,231.7,66.1"/>
<path id="Fill-74" class="st5" d="M207,124.4c-5.3,0.6-7.8-0.2-9-1.4c1.3,1.5,3.4,2.2,6.5,1.9c1.8-0.2,6.9-1.1,8.5-1.4l-2.6-0.4
	C209.3,123.9,208.2,124.3,207,124.4"/>
<path id="Fill-76" class="st5" d="M196.9,121c-0.5-1-0.6-2.1-0.9-3C196.1,119.1,196.4,120.1,196.9,121"/>
<path id="Fill-78" class="st5" d="M230,110C230,110,230,110,230,110C230,110,230,110,230,110"/>
<path id="Fill-80" class="st5" d="M225.2,97c-2,6.2-6.8,19.4-13.2,25.1l2.1,0.3v0.6l13.2-10c1.2-2.1,1.6-5.6,1.7-6.5
	C229.1,103.4,226.5,98.2,225.2,97"/>
<path id="Fill-82" class="st5" d="M230.1,110L230.1,110c0,0.1-0.1,0.1-0.1,0.2C230.1,110.1,230.1,110,230.1,110"/>
<path id="Fill-84" class="st4" d="M212.6,123.5v4.1l-0.9,1c0,0-0.3,0.8-0.7,1.8c-0.1,1.9,0.4,3.2,2.1,2.5
	c3.9-1.7,12.8-17.7,13.9-19.8C224.6,117.2,221,120.4,212.6,123.5"/>
<path id="Fill-86" class="st4" d="M213,122c-1.6,0.6-3.4,1.1-5.2,1.5l0,0c0,0-3.6,9.7-0.6,10.4c1.8,0.5,3.3-1.6,4.1-3.4
	C211.5,127,213,122,213,122L213,122z"/>
<path id="Fill-88" class="st4" d="M213,126.8V122c-0.1,0-0.3,0.1-0.4,0.1l0,0c0,0-1.5,4.6-1.6,7.8c0.6-1.1,0.9-2.1,0.9-2.1
	L213,126.8z"/>
<path id="Fill-90" class="st4" d="M214.4,123.2V123l-0.4,0.3C214.1,123.2,214.2,123.2,214.4,123.2"/>
<path id="Fill-92" class="st5" d="M197.8,123c-0.3-0.3-0.6-0.6-0.8-1C197.2,122.4,197.4,122.7,197.8,123"/>
<path id="Fill-94" class="st5" d="M225.2,97c0.5-1.8,0.8-3,0.8-3v0c-0.6,1.7-1,2.8-1,2.8C225,96.8,225.1,96.9,225.2,97"/>
<path id="Fill-96" class="st5" d="M196,118c0,0.1,0.1,0.2,0.1,0.2C196.1,118.2,196.1,118.1,196,118L196,118z"/>
<path id="Fill-98" class="st5" d="M206.9,125.8c1.2-0.2,2.4-0.7,3.5-1.4l1-1.4l0.6,0.1c6.3-5.8,11.1-19.4,13.1-25.7
	c-0.1-0.1-0.2-0.2-0.3-0.3c0,0,0.5-1.2,1.2-3.1l-30,25c0,0.1,0,0.2,0,0.3c0.3,1.1,0.4,2.4,0.9,3.5c0.2,0.5,0.5,0.9,0.8,1.3
	C198.9,125.6,201.4,126.4,206.9,125.8"/>
<path id="Fill-100" class="st5" d="M211,123c0.7-0.3,1.3-0.6,2-0.9l-0.8-0.1L211,123z"/>
<path id="Fill-102" class="st8" d="M348.7,157c0,0-0.5-0.1-1.4,0s0.4,1,0.4,1l2.3-0.2l-0.2-0.8H348.7z"/>
<polygon id="Fill-104" class="st4" points="353.2,206 348,206 348,190 355,191.7 "/>
<polygon id="Fill-106" class="st4" points="364,211 358.9,209.7 356,190 364,191.2 "/>
<path id="Fill-108" class="st4" d="M353,206c0,1.1-1.8,2-4,2c-2.2,0-4-0.9-4-2c0-1.1,1.8-2,4-2C351.2,204,353,204.9,353,206"/>
<path id="Fill-110" class="st4" d="M364,212c0,1.1-1.8,2-4,2c-2.2,0-4-0.9-4-2c0-1.1,1.8-2,4-2C362.2,210,364,210.9,364,212"/>
<path id="Fill-112" class="st8" d="M351.8,132c-0.3,0-0.6,0-0.9,0c-3.1,0.2-8.7,1.7-10.4,9.5c-2.3,11,3.2,11.2,3.2,11.2l0.6,35.8
	c0,0,11.5,3.2,15.6,3.5c4.1,0.3,7.9-1.3,7.9-1.3v-32.4c0,0,3.6,0.3,4-0.8c0.4-1-0.3-14.4-2.7-17.5c-2.4-3.1-10.6-6.7-10.6-6.7"/>
<polygon id="Fill-114" class="st4" points="358,158 348,156.3 348,149 358,150.9 "/>
<g id="Group-119" transform="translate(357.000000, 144.000000)">
	<path id="Fill-116" class="st8" d="M7.7,0.3c0,0,2,7.3-0.7,7.4C2.7,7.8,1.9,7.9,1.9,7.9v4.7c0,0,8.5,1.7,9.4,1.9"/>
	<path id="Stroke-118" class="st9" d="M7.7,0.3c0,0,2,7.3-0.7,7.4C2.7,7.8,1.9,7.9,1.9,7.9v4.7c0,0,8.5,1.7,9.4,1.9"/>
</g>
<path id="Fill-120" class="st0" d="M359,152.6c0,0-5.4-1.8-5,0.7c0.4,2.5,5,2.7,5,2.7L359,152.6z"/>
<g id="Group-125" transform="translate(344.000000, 144.000000)">
	<path id="Fill-122" class="st8" d="M1.9,0.8c0,0-0.3,3.9,2.4,4.6"/>
	<path id="Stroke-124" class="st9" d="M1.9,0.8c0,0-0.3,3.9,2.4,4.6"/>
</g>
<g id="Group-129" transform="translate(339.000000, 150.000000)">
	<path id="Fill-126" class="st8" d="M2,0.8c0,0,0.9,1.9,2.9,2.1c2,0.2,4.4,0.4,4.4,0.4"/>
	<path id="Stroke-128" class="st9" d="M2,0.8c0,0,0.9,1.9,2.9,2.1c2,0.2,4.4,0.4,4.4,0.4"/>
</g>
<path id="Fill-130" class="st0" d="M363,130c0,3.3-2.2,6-5,6s-5-2.7-5-6c0-3.3,2.2-6,5-6S363,126.7,363,130"/>
<path id="Fill-132" class="st4" d="M354.1,127.4c0,0,3.7,0.9,5,1.2c0.7,0.1,0,1.6,1.2,2.3c1.2,0.8,2.7,1.7,2.6,2.1
	c-0.1,0.4,3.8-3.7,1.3-7c-1.7-2.3-5.5-4.2-8.8-1.8C354.6,124.7,353.7,125.9,354.1,127.4"/>
<path id="Fill-134" class="st0" d="M217,79.1c0-1.7-0.7-3.1-1.7-4.1c-0.4,0.8-1.1,2-1.2,2.5c-0.3,0.9,1.2,2.5,1.1,3.1
	c-0.1,0.5,0,2.7-1,3.4C215.8,83.2,217,81.3,217,79.1"/>
<path id="Fill-136" class="st4" d="M215.8,81.1c0.1-0.6-1.6-2.3-1.3-3.2c0.2-0.6,1-1.8,1.5-2.6c-1-0.8-2.2-1.3-3.5-1.3
	c-3,0-5.5,2.5-5.5,5.5c0,3,2.5,5.5,5.5,5.5c0.8,0,1.5-0.2,2.1-0.4C215.8,83.9,215.7,81.6,215.8,81.1"/>
<g id="Group-141" transform="translate(17.000000, 197.000000)">
	<polyline id="Fill-138" class="st3" points="5.6,9.4 2,7.3 13.6,0.6 17.2,2.6 	"/>
	<polyline id="Stroke-140" class="st2" points="5.6,9.4 2,7.3 13.6,0.6 17.2,2.6 	"/>
</g>
<path id="Fill-142" class="st3" d="M53.9,216.3L42,223c1.8-1,3.2-2.6,4.3-4.9c1.2-2.5,1.8-6.6,1.8-12.4c0-3.7-0.4-7.3-1.2-11.1
	l11.9-6.7c0.8,3.7,1.2,7.4,1.2,11.1c0,5.7-0.6,9.9-1.8,12.4C57.1,213.7,55.7,215.3,53.9,216.3"/>
<path id="Stroke-144" class="st2" d="M53.4,216.3L42,223c1.7-1,3.1-2.6,4.1-4.9c1.1-2.5,1.7-6.6,1.7-12.4c0-3.7-0.4-7.3-1.1-11.1
	l11.4-6.7c0.7,3.7,1.1,7.4,1.1,11.1c0,5.7-0.6,9.9-1.7,12.4C56.4,213.7,55.1,215.3,53.4,216.3z"/>
<polygon id="Fill-146" class="st3" points="19.1,174.7 31,168 30.9,197.3 19,204 "/>
<polygon id="Stroke-148" class="st2" points="19.1,174.7 31,168 30.9,197.3 19,204 "/>
<polygon id="Fill-150" class="st3" points="5,153.7 16.5,147 38,159.3 26.5,166 "/>
<polygon id="Stroke-152" class="st2" points="4.4,154 16.5,147 37.2,159.8 26,166.3 "/>
<path id="Fill-154" class="st3" d="M32.1,206.9c0.7-1.5,1.1-4.5,1.1-8.8c0-5.8-0.8-10.2-2.4-13.3c-1.6-3.1-4.4-5.7-8.2-7.9l-3.7-2.1
	l-0.1,29.8l3.6,2.1c3.1,1.8,5.3,2.6,6.6,2.6C30.3,209.2,31.3,208.4,32.1,206.9 M46.9,195c0.8,3.8,1.2,7.5,1.1,11.2
	c0,5.8-0.6,10-1.8,12.6c-1.2,2.5-2.8,4.3-4.9,5.3c-2.1,1-4.3,1.2-6.7,0.5c-3.2-0.9-6.2-2.1-8.8-3.6L4,208.5L4.2,154l21.9,12.6
	c4.3,2.5,7.8,5.1,10.5,8c2.7,2.9,4.8,6,6.6,9.5C44.8,187.6,46.1,191.3,46.9,195"/>
<path id="Stroke-156" class="st2" d="M32.1,206.9c0.7-1.5,1.1-4.5,1.1-8.8c0-5.8-0.8-10.2-2.4-13.3c-1.6-3.1-4.4-5.7-8.2-7.9
	l-3.7-2.1l-0.1,29.8l3.6,2.1c3.1,1.8,5.3,2.6,6.6,2.6C30.3,209.2,31.3,208.4,32.1,206.9z M46.9,195c0.8,3.8,1.2,7.5,1.1,11.2
	c0,5.8-0.6,10-1.8,12.6c-1.2,2.5-2.8,4.3-4.9,5.3c-2.1,1-4.3,1.2-6.7,0.5c-3.2-0.9-6.2-2.1-8.8-3.6L4,208.5L4.2,154l21.9,12.6
	c4.3,2.5,7.8,5.1,10.5,8c2.7,2.9,4.8,6,6.6,9.5C44.8,187.6,46.1,191.3,46.9,195z"/>
<path id="Fill-158" class="st3" d="M26,166.7l11.6-6.7c4.2,2.5,7.7,5.1,10.3,7.9c2.6,2.8,4.8,6,6.5,9.5c1.7,3.5,2.9,7.1,3.7,10.8
	L46.4,195c-0.8-3.7-2-7.3-3.7-10.8s-3.9-6.6-6.5-9.5C33.7,171.9,30.2,169.2,26,166.7"/>
<path id="Stroke-160_1_" class="st2" d="M36.8,159.6c4.2,2.5,8.4,5.5,11,8.3c2.6,2.8,4.8,6,6.5,9.5c1.7,3.5,2.9,7.1,3.7,10.8
	l-11.2,6.5c-0.8-3.7-2.4-7.1-4.1-10.6s-3.9-6.6-6.5-9.5c-2.6-2.8-6-5.7-10.2-8.1"/>
<polygon id="Fill-162" class="st3" points="65.3,234.6 77,228 74.7,235.4 63,242 "/>
<polygon id="Stroke-164" class="st2" points="65.3,234.6 77,228 74.7,235.4 63,242 "/>
<polygon id="Fill-166" class="st3" points="68,224.9 79.6,218 90,224.1 78.4,231 "/>
<polygon id="Stroke-168" class="st2" points="68,224.9 79.6,218 90,224.1 78.4,231 "/>
<polygon id="Fill-170" class="st3" points="73.3,207.7 85,201 79.7,217.3 68,224 "/>
<polygon id="Stroke-172" class="st2" points="73.3,207.7 85,201 79.7,217.3 68,224 "/>
<path id="Fill-174" class="st3" d="M68.3,225.2l10.3,6l-5.1-22.6L68.3,225.2z M81.5,199.2L99.4,263l-15.6-7.9l-2.3-10.4l-16.4-9.6
	l-2.3,7.7L48,234.2L65.8,190L81.5,199.2z"/>
<path id="Stroke-176" class="st2" d="M68.3,225.2l10.3,6l-5.1-22.6L68.3,225.2z M82.2,199L99,264l-15.2-8.9l-2.3-10.4l-16.4-9.6
	l-2.3,7.7L48,234.2L65.8,190L82.2,199z"/>
<polygon id="Fill-178" class="st3" points="82,198.7 93.6,192 111,256.3 99.4,263 "/>
<polygon id="Stroke-180" class="st2" points="82,198.7 93.6,192 111,256.3 99,263.3 "/>
<polygon id="Fill-182" class="st3" points="66,189.8 77.8,183 94,192.2 82.2,199 "/>
<polygon id="Stroke-184" class="st2" points="66,189.8 77.8,183 94,192.2 82.2,199 "/>
<polygon id="Fill-186" class="st3" points="125.2,237.3 138,231 137.9,272.2 126,277.8 "/>
<polyline id="Stroke-188" class="st2" points="126.1,237.8 138,231 137.9,272.2 125.2,278.2 "/>
<polygon id="Fill-190" class="st3" points="155.3,286.6 167,280 164.7,287.4 153,294 "/>
<polygon id="Stroke-192" class="st2" points="155.3,286.6 167,280 164.7,287.4 153,294 "/>
<polygon id="Fill-194" class="st3" points="158,276.9 169.6,270 180,276.1 168.4,283 "/>
<polygon id="Stroke-196" class="st2" points="158,276.9 169.6,270 180,276.1 168.4,283 "/>
<polyline id="Fill-198_1_" class="st3" points="125.1,278 110.6,269.6 110.7,228.9 96,220.3 96,207 140,232.5 140,245.9 
	125.2,237.3 "/>
<line id="Fill-198" class="st3" x1="125.2" y1="237.3" x2="125.1" y2="278"/>
<polygon id="Stroke-200" class="st2" points="140,232.5 140,245.9 125.2,237.3 125.1,278 110.6,269.6 110.7,228.9 96,220.3 96,207 
	"/>
<polyline id="Fill-202" class="st3" points="96,206.7 107.6,200 152,225.3 140.4,232 "/>
<polyline id="Stroke-204" class="st2" points="96,206.7 107.6,200 152,225.3 140.4,232 "/>
<polygon id="Fill-206" class="st3" points="141,232.7 153,226 153,239.3 141,246 "/>
<polygon id="Stroke-208" class="st2" points="140,232.5 153,225.3 153,239.3 140,245.9 "/>
<polygon id="Fill-210" class="st3" points="163.3,259.7 175,253 169.7,269.3 158,276 "/>
<polygon id="Stroke-212" class="st2" points="163.3,259.7 175,253 169.7,269.3 158,276 "/>
<polygon id="Fill-214" class="st3" points="156,241.8 167.8,235 184,244.2 172.2,251 "/>
<polygon id="Stroke-216" class="st2" points="156,241.8 167.8,235 184,244.2 172.2,251 "/>
<polygon id="Fill-218" class="st3" points="172,250.7 183.6,244 201,308.3 189.4,315 "/>
<polygon id="Stroke-220" class="st2" points="172,250.7 183.6,244 201,308.3 189.4,315 "/>
<path id="Fill-222" class="st3" d="M158.3,276.2l10.3,6l-5.1-22.6L158.3,276.2z M171.5,250.2L189,315l-15.2-8.9l-2.3-10.4l-16.4-9.6
	l-2.3,7.7l-14.8-8.6l17.8-44.2L171.5,250.2z"/>
<path id="Stroke-224" class="st2" d="M158.3,276.2l10.3,6l-5.1-22.6L158.3,276.2z M171.5,250.2L189,315l-15.2-8.9l-2.3-10.4
	l-16.4-9.6l-2.3,7.7l-14.8-8.6l17.8-44.2L171.5,250.2z"/>
<path id="Stroke-226" class="st2" d="M93,5C93,5-18.5,75.2,4,154"/>
<path id="Stroke-228" class="st2" d="M222.4,63c0,0,97.1,43.5-69.4,162.3"/>
<path id="Stroke-230" class="st2" d="M350,153.5c0,0-77.7-56.1-167,90.5"/>
<path id="Fill-232" class="st0" d="M419.9,204.4c0,0,0.3,5.9,0,7.3c-0.3,1.4-0.8,2.4-1.7,2.3c-2.9-0.2-4.2-12-4.2-12"/>
<path id="Fill-234" d="M417,204c0,0,0.4,10,3.7,10c1.3,0,1.1-2.2,1.1-3.5c0.1-2.6,0.2-2,0.1-4.5"/>
<path id="Fill-236" class="st0" d="M417,204c0,0,0.4,10,3.7,10c1.3,0,1.1-2.2,1.1-3.5c0.1-2.6,0.2-2,0.1-4.5"/>
<path id="Fill-238" class="st0" d="M415.6,156c0,0,0.6,0.9,0.4,1.3c-0.2,0.4-2,1.5-2,1.5l2.4,1.1l3.1,0.1l1.5-0.5l-0.1-1.7l-0.7-0.6
	l-1.5-0.5L415.6,156z"/>
<path id="Fill-240" class="st0" d="M420.4,157.6c0,0,0.2-0.2,0.6-0.7c0.4-0.5,1.2-1.8,0.9-2.7c0,0-0.5-2.1-1.9-3.5s-2.7-1.7-2.7-1.7
	l-2.3,3l0,0c0,0.2,0,0.4,0,0.7c0,2.9,1.7,5.3,3.9,5.3c0.7,0,1.3-0.2,1.9-0.6"/>
<path id="Fill-242" class="st10" d="M421.4,159.6c-6.6,1.2-5.6-1.6-5.6-1.6l-0.1,0.6c-0.1,0.4,0.3-0.2-0.1,0.1
	c-0.1,0.1-0.2,0.5-0.4,0.6c-0.5,0.3,0.3,1-0.2,1.4c-1.1,0.9-3.3,6.2-3.2,7.6c0.4,8.8-0.3,12.3-0.4,21.1c0,2.8-0.9,8,0,10.7
	c0.9,2.7,3.4,3.2,6,4.2l-1.9-0.7c3.5,1.4,6.3,2.6,9.8,3.9c0.8,0.3,1.3,0.8,2,0.3c0.4-0.2,0.4-1.2,0.4-1.6c0.2-1.5,0.1-1.7,0.1-2.6
	c0.4-3-0.2-4-0.3-7.1c0-1.3-0.3-3-0.2-4.3c0.3-5.4,0.6-10.4,0-15.7c-0.2-2.2-2.3-11-3-13.1"/>
<path id="Fill-244" class="st0" d="M421,162.1c0-0.9,0.2-2.2,1.4-2.1c1.2,0.1,3.2,3.8,3.5,8.3c0.3,4.5,0.5,19.7-2.2,19.7
	C421,188,421,163,421,162.1"/>
<path id="Fill-246" class="st4" d="M422.9,146.1c4.5,4.2,3.1,19.9,2,19.9c-1.8,0-4.7-8.1-6.1-10.8c-1.4-2.7-2.6-5.2-2.6-5.2
	s-1.2,1.8-1.9,1.5c-0.5-0.2-0.9-3.3,1.8-5.2C417.5,145.4,420.6,144,422.9,146.1"/>
<path id="Fill-248" class="st10" d="M415.4,158c0,0-4.5,2.3-4.4,9.5c0.1,7.2,5-3.3,5-3.3L415.4,158z"/>
<polygon id="Stroke-250" class="st11" points="418,161 411,157.1 411,149 418,152.9 "/>
<path id="Fill-252" class="st5" d="M227,113c0,0-2.6,6.5-13.1,10.3c-10.5,3.8-3.7-9.3-3.7-9.3L227,113z"/>
<path id="Stroke-254" class="st2" d="M411,153.6c-19.4-5.8-122.5-27.8-219,121.4"/>
<path id="Path-21" class="st2" d="M1,0"/>
<path id="Path-22" class="st5" d="M226.6,91.8l-1.5,5.3l0.5,5.8l-2.3,2.2l-18.4,12.7l-8.3,2.3c-0.4,0.1-0.5-0.9-0.5-3.2
	s1.3-3.8,3.8-4.6l16.6-14.7l6.9-7L226.6,91.8z"/>
</svg>
