<svg width="1919.9999999999998" height="471.99999999999994" xmlns="http://www.w3.org/2000/svg" xmlns:xlink="http://www.w3.org/1999/xlink">
 <defs>
  <path id="a" d="m0,0l1920,0l0,472l-1920,0l0,-472z"/>
  <path id="c" d="m0,30l1920,0l0,479l-1920,0l0,-479z"/>
  <path id="e" d="m0,556l812.612,0l0,-555.55l-812.612,0l0,555.55z"/>
  <path id="g" d="m0.818,0.594l139.727,0l0,57.006l-139.727,0l0,-57.006z"/>
  <path id="i" d="m0.54,0.868l169.072,0l0,117.868l-169.071,0l-0.001,-117.868z"/>
  <path id="k" d="m0,556l812.612,0l0,-555.55l-812.612,0l0,555.55z"/>
  <path id="m" d="m329,555l1244.612,0l0,-555.55l-1244.612,0l0,555.55z"/>
 </defs>
 <g>
  <title>Layer 1</title>
  <g fill="none" fill-rule="evenodd" id="svg_1">
   <mask id="b" fill="#fff">
    <use xlink:href="#a" id="svg_2"/>
   </mask>
   <use fill="#110D28" transform="matrix(-1 0 0 1 1920 0)" xlink:href="#a" id="svg_3" y="0.3391" x="1.94928"/>
   <g mask="url(#b)" id="svg_4">
    <g id="svg_5">
     <mask id="d" fill="#fff">
      <use xlink:href="#c" id="svg_6"/>
     </mask>
     <use fill="#110D28" transform="matrix(-1 0 0 1 1920 0)" xlink:href="#c" y="-35.32749" id="svg_7" x="4.6159"/>
     <g mask="url(#d)" opacity="0.63" id="svg_8">
      <g id="svg_9">
       <path fill="#4FC0C6" d="m1436.18872,336.4191l-7.652,-4.44c-7.217,-4.188 -11.677,-11.656 -11.932,-19.979l1.76,-0.054c0.236,7.71 4.37,14.63 11.057,18.511l8.49,4.926l-1.723,1.036z" id="svg_10"/>
       <path fill="#4FC0C6" d="m1441.53472,328.9371l-12.911,-7.492c-7.217,-4.187 -11.677,-11.656 -11.933,-19.979l1.76,-0.053c0.238,7.71 4.37,14.63 11.058,18.51l13.91,8.073l-1.884,0.941z" id="svg_11"/>
       <mask id="f" fill="#fff">
        <use xlink:href="#e" id="svg_12"/>
       </mask>
       <path fill="#4FC0C6" d="m1416.69072,312.6561l1.761,0l0,-27.734l-1.761,0l0,27.734z" mask="url(#f)" id="svg_13"/>
      </g>
     </g>
     <g mask="url(#d)" opacity="0.63" id="svg_14">
      <g id="svg_15">
       <mask id="h" fill="#fff">
        <use xlink:href="#g" id="svg_16"/>
       </mask>
       <path fill="#4FC0C6" d="m1500.30474,369.9391c-4.17,0 -8.34,-1.078 -12.057,-3.232l-42.312,-24.514l1.895,-0.946l41.302,23.94a22.341,22.341 0 0 0 22.28,0.038l61.357,-35.291c6.088,-3.502 10.258,-9.745 11.132,-16.659l1.762,-0.342c-0.945,7.467 -5.445,14.744 -12.014,18.523l-61.358,35.29a24.03,24.03 0 0 1 -11.987,3.193" mask="url(#h)" id="svg_17"/>
      </g>
      <path fill="#4FC0C6" d="m1500.39272,359.4161c-4.17,0 -8.34,-1.077 -12.057,-3.23c0,0 -32.747,-19.003 -34.19,-19.818c0.126,-0.747 0.162,-1.94 0.162,-1.94l34.912,20.238a22.343,22.343 0 0 0 22.28,0.037l61.358,-35.292c6.086,-3.502 10.08,-9.476 10.953,-16.39l1.747,0.219c-0.943,7.466 -5.251,13.915 -11.82,17.693l-61.358,35.292a24.03,24.03 0 0 1 -11.987,3.191" id="svg_18"/>
      <path fill="#110D28" d="m1490.18172,230.1871l-61.184,35.385c-15.359,8.882 -15.37,31.003 -0.02,39.901l59.713,34.611a23.168,23.168 0 0 0 23.162,0.038l61.357,-35.291c15.402,-8.86 15.438,-31.021 0.065,-39.93l-59.885,-34.703a23.166,23.166 0 0 0 -23.208,-0.01" id="svg_19"/>
      <g id="svg_20">
       <mask id="j" fill="#fff">
        <use xlink:href="#i" id="svg_21"/>
       </mask>
       <path fill="#4FC0C6" d="m1490.18172,230.1871l0.442,0.76l-61.184,35.385c-6.939,4.012 -11.082,11.184 -11.087,19.185c-0.004,8 4.134,15.176 11.068,19.196l59.712,34.611a22.341,22.341 0 0 0 22.28,0.037l61.358,-35.292c6.958,-4.002 11.12,-11.175 11.132,-19.187c0.013,-8.012 -4.125,-15.198 -11.07,-19.222l-59.886,-34.703a22.333,22.333 0 0 0 -22.323,-0.01l-0.442,-0.76zm10.124,113.888a24.021,24.021 0 0 1 -12.058,-3.232l-59.712,-34.61c-7.483,-4.337 -11.949,-12.082 -11.945,-20.717c0.004,-8.634 4.477,-16.375 11.964,-20.705l61.186,-35.384a24.105,24.105 0 0 1 24.092,0.01l59.885,34.704c7.494,4.343 11.96,12.097 11.945,20.745c-0.014,8.647 -4.504,16.387 -12.013,20.706l-61.357,35.291a24.033,24.033 0 0 1 -11.987,3.192z" mask="url(#j)" id="svg_22"/>
      </g>
     </g>
     <g mask="url(#d)" opacity="0.63" id="svg_23">
      <g id="svg_24">
       <path fill="#4FC0C6" d="m1318.90272,214.9371c-4.17,0 -8.34,-1.079 -12.057,-3.235l-59.713,-34.649c-7.621,-4.421 -12.085,-12.32 -11.94,-21.128l1.76,0.03c-0.133,8.16 4.003,15.48 11.066,19.577l59.712,34.65a22.32,22.32 0 0 0 22.28,0.036l61.356,-35.33c6.333,-3.646 10.354,-9.89 11.033,-17.13l1.753,0.164c-0.732,7.816 -5.072,14.555 -11.906,18.49l-61.357,35.33a24.02,24.02 0 0 1 -11.987,3.195" id="svg_25"/>
       <path fill="#4FC0C6" d="m1370.26072,176.0591l-1.618,-1.1l22.724,-13.104c6.333,-3.647 10.354,-9.89 11.033,-17.13l1.754,0.164c-0.733,7.815 -5.073,14.555 -11.907,18.49l-21.987,12.68l0.001,0zm-51.358,25.844c-4.17,0 -8.34,-1.078 -12.057,-3.235l-59.713,-34.648c-7.621,-4.422 -12.085,-12.321 -11.94,-21.128l1.76,0.029c-0.133,8.161 4.003,15.48 11.066,19.578l59.712,34.648a22.322,22.322 0 0 0 22.28,0.037l29.013,-16.705s-0.487,1.502 -0.383,2.25c-1.057,0.592 -27.751,15.98 -27.751,15.98a24.02,24.02 0 0 1 -11.987,3.194" id="svg_26"/>
       <mask id="l" fill="#fff">
        <use xlink:href="#k" id="svg_27"/>
       </mask>
       <path fill="#4FC0C6" d="m1235.18872,159.9831l1.762,0l0,-27.734l-1.762,0l0,27.734zm167.302,-2.134l1.762,0l0,-27.802l-1.762,0l0,27.802z" mask="url(#l)" id="svg_28"/>
       <path fill="#110D28" d="m1308.77972,75.0341l-61.184,35.423c-15.36,8.891 -15.37,31.037 -0.02,39.945l59.712,34.648a23.145,23.145 0 0 0 23.162,0.038l61.357,-35.33c15.401,-8.868 15.437,-31.055 0.065,-39.973l-59.885,-34.74a23.144,23.144 0 0 0 -23.207,-0.011" mask="url(#l)" id="svg_29"/>
       <path fill="#4FC0C6" d="m1308.77972,75.0341l0.44,0.76l-61.183,35.424c-6.937,4.017 -11.082,11.196 -11.086,19.205c-0.004,8.01 4.134,15.194 11.068,19.218l59.712,34.648a22.32,22.32 0 0 0 22.279,0.037l61.357,-35.33c6.958,-4.006 11.119,-11.186 11.131,-19.207c0.013,-8.02 -4.125,-15.214 -11.068,-19.243l-59.886,-34.742a22.312,22.312 0 0 0 -22.323,-0.01l-0.441,-0.76zm10.123,114.011c-4.17,0 -8.34,-1.077 -12.057,-3.235l-59.713,-34.647c-7.482,-4.343 -11.948,-12.096 -11.944,-20.74c0.005,-8.644 4.478,-16.393 11.965,-20.728l61.184,-35.422a24.08,24.08 0 0 1 24.092,0.01l59.884,34.741c7.494,4.348 11.96,12.111 11.946,20.768c-0.013,8.656 -4.505,16.405 -12.013,20.728l-61.357,35.33a24.01,24.01 0 0 1 -11.987,3.195z" mask="url(#l)" id="svg_30"/>
      </g>
     </g>
     <g mask="url(#d)" opacity="0.63" id="svg_31">
      <path fill="#110D28" d="m1583.09972,192.6491l-54.756,-32.07l0,64.642l54.756,31.16l0,-63.732z" id="svg_32"/>
      <path fill="#4FC0C6" d="m1529.22072,224.7041l53.002,30.162l0,-61.707l-53.002,-31.042l0,62.588l0,-0.001zm54.756,33.192l-56.51,-32.158l0,-66.696l56.51,33.098l0,65.756z" id="svg_33"/>
     </g>
     <g mask="url(#d)" opacity="0.63" id="svg_34">
      <path fill="#110D28" d="m1526.93372,58.3411l-54.756,-32.07l0,64.642l54.756,31.16l0,-63.732z" id="svg_35"/>
      <path fill="#4FC0C6" d="m1473.05472,90.3961l53.002,30.162l0,-61.708l-53.002,-31.042l0,62.588zm54.756,33.192l-56.51,-32.158l0,-66.696l56.51,33.097l0,65.757z" id="svg_36"/>
     </g>
     <g fill="#4FC0C6" mask="url(#d)" opacity="0.63" id="svg_37">
      <path d="m1442.07672,331.0571c-0.27,0 -0.526,0.055 -0.758,0.17c-0.825,0.409 -1.048,1.422 -1.107,1.989c-0.117,1.119 0.159,2.41 0.778,3.637c1.196,2.367 3.366,3.797 4.74,3.113c1.374,-0.68 1.524,-3.256 0.328,-5.625c-0.993,-1.967 -2.658,-3.284 -3.981,-3.284m2.903,10.762c-1.99,0 -4.194,-1.606 -5.51,-4.213c-0.763,-1.51 -1.1,-3.13 -0.95,-4.564c0.165,-1.572 0.89,-2.752 2.038,-3.321c2.274,-1.125 5.358,0.573 7.02,3.867c1.664,3.294 1.187,6.758 -1.087,7.884a3.378,3.378 0 0 1 -1.51,0.347m7.516,-3.323l-0.761,-1.506c0.825,-0.408 1.047,-1.422 1.108,-1.988c0.116,-1.12 -0.16,-2.41 -0.78,-3.637c-1.195,-2.367 -3.364,-3.797 -4.74,-3.114l-0.76,-1.506c2.275,-1.126 5.357,0.573 7.02,3.867c0.763,1.509 1.1,3.13 0.95,4.563c-0.165,1.572 -0.888,2.752 -2.037,3.321" id="svg_38"/>
      <path d="m1441.31772,331.2281l-0.76,-1.507l6.006,-2.976l0.76,1.507l-6.006,2.976zm5.173,10.245l-0.761,-1.507l6.006,-2.976l0.76,1.507l-6.005,2.976z" id="svg_39"/>
     </g>
     <path fill="#4FC0C6" d="m1443.68472,334.5161a2.745,2.745 0 0 0 -1.752,-1.285a2.973,2.973 0 0 0 -2.181,0.32l-9.6,5.67l-0.004,-0.005l-0.786,0.472l-1.544,0.912l0.008,0.012l-58.51,35.177l-137.471,-75.2l-0.407,-0.25l-0.451,0.252l-23.936,13.307l1.768,1.016l22.603,-12.566l137.488,75.211l0.45,0.231l0.434,-0.25l60.46,-36.35l10.39,-6.136c0.269,-0.154 0.579,-0.201 0.873,-0.13a1,1 0 0 1 0.642,0.464a0.98,0.98 0 0 1 0.085,0.78a1.18,1.18 0 0 1 -0.553,0.687l-10.93,6.304l0.019,0.034l-61.515,37.114l-136.947,-74.805l-0.419,-0.231l-0.433,0.231l-19.974,10.949l1.775,1.02l18.626,-10.21l136.969,74.817l0.47,0.261l0.413,-0.28l63.41,-38.257l-0.004,-0.005l9.424,-5.435a2.907,2.907 0 0 0 1.36,-1.703a2.69,2.69 0 0 0 -0.25,-2.143" mask="url(#d)" opacity="0.63" id="svg_40"/>
     <g fill="#4FC0C6" mask="url(#d)" opacity="0.63" id="svg_41">
      <path d="m1091.22872,180.1321l-0.916,-1.494l160.855,-96.988l0.915,1.494l-160.854,96.988zm-0.869,4.719l-0.916,-1.494l160.999,-97.075l0.916,1.493l-160.999,97.076z" id="svg_42"/>
      <path d="m1271.83672,99.6391l-21.531,-11.787l0.852,-1.53l21.53,11.787l-0.851,1.53zm3.536,-2.851l-24.414,-13.365l0.852,-1.53l24.414,13.365l-0.852,1.53zm-185.029,83.361l-78.679,-43.183l0.853,-1.53l78.68,43.185l-0.854,1.528zm-0.223,4.733l-80.279,-43.952l0.853,-1.53l80.279,43.951l-0.853,1.531z" id="svg_43"/>
      <path d="m1010.81072,141.0391c-1.7,0 -3.083,-1.372 -3.083,-3.059s1.383,-3.059 3.084,-3.059c0.68,0 1.324,0.215 1.865,0.622l-1.067,1.392a1.316,1.316 0 0 0 -0.798,-0.266c-0.729,0 -1.322,0.588 -1.322,1.311s0.593,1.311 1.322,1.311c0.179,0 0.352,-0.035 0.514,-0.102l0.688,1.609c-0.38,0.16 -0.785,0.24 -1.202,0.24" id="svg_44"/>
      <path d="m1011.48172,132.7161c-1.235,0 -2.81,0.66 -4.138,1.855c-2.053,1.846 -2.885,4.395 -1.815,5.565c0.642,0.702 1.725,0.638 2.314,0.539c1.16,-0.196 2.383,-0.831 3.447,-1.787s1.82,-2.102 2.13,-3.228c0.158,-0.57 0.326,-1.633 -0.316,-2.335c-0.377,-0.412 -0.949,-0.609 -1.622,-0.609m-4.34,9.769c-1.198,0 -2.213,-0.404 -2.919,-1.175c-1.77,-1.937 -0.919,-5.465 1.937,-8.033c2.855,-2.568 6.48,-3.062 8.25,-1.126c0.895,0.978 1.147,2.388 0.71,3.97c-0.398,1.443 -1.338,2.886 -2.647,4.062c-1.308,1.177 -2.848,1.964 -4.334,2.215a5.918,5.918 0 0 1 -0.996,0.087m-9.562,-5.552c-0.312,-0.178 -0.59,-0.4 -0.828,-0.659c-1.77,-1.937 -0.919,-5.465 1.937,-8.033c2.856,-2.568 6.48,-3.062 8.25,-1.126l-1.305,1.174c-1.071,-1.17 -3.709,-0.6 -5.761,1.247c-2.053,1.846 -2.884,4.394 -1.815,5.564c0.113,0.124 0.248,0.23 0.4,0.317l-0.878,1.516z" id="svg_45"/>
      <path d="m1004.38572,141.4491l-7.15,-4.742l0.98,-1.453l7.15,4.742l-0.98,1.453zm8.258,-8.478l-7.345,-4.96l0.991,-1.445l7.346,4.96l-0.992,1.445z" id="svg_46"/>
     </g>
     <path fill="#110D28" d="m1374.55072,188.2141c-2.39,2.259 -5.448,2.803 -6.829,1.215c-1.381,-1.587 -0.562,-4.705 1.829,-6.964c2.39,-2.26 5.448,-2.804 6.829,-1.217c1.381,1.588 0.562,4.707 -1.829,6.966" mask="url(#d)" opacity="0.63" id="svg_47"/>
     <g fill="#4FC0C6" mask="url(#d)" opacity="0.63" id="svg_48">
      <path d="m853.53272,25.8791s-1.669,2.403 0,3.988c1.67,1.584 1.417,3.794 -0.37,4.556c-1.788,0.763 -10.2,-2.6 -15.95,0s-16.032,5.016 -19.98,2.416c-3.946,-2.6 7.923,-8.73 9.222,-9.287c1.297,-0.556 4.295,-3.11 3.724,-4.62c-0.572,-1.509 -7.434,-4.48 -7.063,-7.452c0.37,-2.971 16.506,-6.129 17.804,-7.429c1.3,-1.3 6.677,-9.657 11.314,-7.8c4.636,1.857 9.644,3.157 13.354,2.043c3.709,-1.114 16.321,0 19.102,2.972c2.783,2.971 10.572,8.729 14.282,9.1c3.709,0.372 17.99,3.715 23.368,7.243c5.378,3.53 13.168,11.701 14.467,10.772c1.298,-0.929 5.75,-0.743 5.935,1.3c0.184,2.043 -1.67,2.234 0,4.275c1.669,2.04 12.425,8.169 10.385,10.212c-2.04,2.043 -15.393,-0.186 -17.99,-2.043c-2.596,-1.857 -7.79,-6.686 -12.055,-6.5c-4.266,0.185 -1.484,5.386 -5.935,6.871c-4.451,1.486 -9.644,2.6 -13.539,0.372c-3.894,-2.229 -11.385,-2.414 -14.409,-1.857c-3.025,0.556 -6.363,3.9 -8.589,1.857s-0.927,-7.986 -5.564,-8.543c-4.636,-0.558 -8.16,1.114 -8.346,0c-0.185,-1.115 3.482,-6.358 0.742,-8.457c-2.74,-2.098 -5.378,2.885 -7.418,1.77c-2.04,-1.114 -3.895,-7.429 -6.492,-5.757m116.226,28.043s-10.386,-5.943 -14.836,-3.467c-4.452,2.476 -2.226,5.944 1.977,7.181c4.205,1.24 5.935,3.716 5.812,5.572c-0.124,1.858 -13.601,16.591 -4.451,19.935c9.15,3.343 19.66,3.218 22.627,2.6c2.967,-0.619 9.025,-3.096 10.261,-1.61c1.237,1.486 1.114,5.3 3.215,5.126c2.103,-0.173 3.215,-6.488 3.71,-8.47c0.495,-1.98 4.451,-2.97 6.306,-3.342c1.854,-0.372 2.968,-7.057 7.295,-5.571c4.327,1.485 3.091,5.2 1.978,6.933c-1.113,1.733 -0.247,4.085 3.339,4.581c3.585,0.495 22.626,4.705 24.48,1.98c1.855,-2.723 -21.884,-17.58 -28.685,-21.047c-6.8,-3.467 -17.927,-5.077 -27.82,-6.438c-9.89,-1.363 -11.742,-2.238 -15.208,-3.963m-35.732,62.527c-2.765,-0.014 -5.564,0.619 -3.71,-1.733c1.855,-2.353 10.263,-5.944 14.096,-7.553c3.832,-1.61 12.346,-6.344 8.973,-10.648c-3.374,-4.305 -0.483,-6.438 0.774,-6.191c1.257,0.247 5.708,5.448 9.046,4.952c3.339,-0.494 6.43,3.22 7.666,7.058c1.237,3.838 3.091,7.18 0,8.419c-3.09,1.238 -32.778,5.715 -36.845,5.696" id="svg_49"/>
      <path d="m891.36772,51.2001s-4.114,2.38 -1.562,6.204c2.552,3.825 -0.045,5.435 -1.9,6.92c-1.854,1.486 -0.124,2.725 -1.854,4.581c-1.73,1.858 -6.924,3.716 -11.499,4.087c-4.575,0.371 -0.371,-6.796 -4.451,-7.794c-4.08,-0.997 -7.666,0.365 -8.037,-0.997c-0.371,-1.362 0.742,-6.686 5.317,-6.191c4.574,0.496 9.578,1.14 9.302,-0.916c-0.276,-2.055 -5.84,-2.799 -5.593,-5.15c0.247,-2.354 0.371,-4.458 1.854,-5.449c1.484,-0.99 2.597,0.867 4.946,1.734c2.35,0.866 13.477,-1.469 13.477,0.751l0,2.22z" id="svg_50"/>
     </g>
     <path fill="#110D28" d="m867.38972,8.0771l-0.001,-0.02a2.08,2.08 0 0 1 0.108,-0.911c0.055,-0.153 0.126,-0.3 0.193,-0.447c0.056,-0.123 0.068,-0.225 0.096,-0.353c0.075,-0.336 0.219,-0.629 0.15,-0.984c-0.036,-0.192 -0.127,-0.374 -0.14,-0.57c-0.005,-0.083 0.004,-0.168 0.001,-0.252a0.865,0.865 0 0 0 -0.169,-0.485c-0.012,-0.015 -0.034,-0.021 -0.05,-0.034l3.365,-1.96c0.233,0.124 0.418,0.21 0.519,0.24c0.134,0.058 0.374,0.162 0.624,0.255c0.827,0.57 2.09,1.39 3.573,2.317a4.06,4.06 0 0 0 -0.31,1.554c0,1.756 1.115,3.254 2.686,3.854l-0.01,-0.002s-0.426,0.154 -1.031,0.608l-9.072,5.748l-0.532,-8.558zm-1.97,-3.829c0.024,0.045 0.034,0.09 0.011,0.134c-0.002,0.005 -0.009,0.006 -0.011,0.01l0,-0.144zm22.434,53.932c2.768,-4.612 2.203,-25.697 2.033,-30.575l0.014,-15.31l0.001,-0.348l0,-0.67l-0.066,-0.007a5.324,5.324 0 0 0 -0.118,-0.537c-0.164,-1.31 -1.051,-2.954 -1.528,-3.217a32.66,32.66 0 0 0 -0.82,-0.404c-0.414,-0.314 -0.85,-0.535 -1.288,-0.619c-0.706,-0.338 -1.545,-0.738 -2.46,-1.172a3.595,3.595 0 0 0 -0.195,-0.52c-0.03,-0.066 -0.057,-0.133 -0.091,-0.198l-0.03,-0.05a4.209,4.209 0 0 0 -3.512,-2.25c-0.02,-0.003 -0.037,-0.008 -0.058,-0.009c-0.055,-0.003 -0.109,-0.001 -0.163,-0.003l-0.016,-0.001l-0.006,0a3.905,3.905 0 0 0 -1.546,0.295c-0.027,0.01 -0.057,0.018 -0.084,0.03l-4.211,-1.994a3.32,3.32 0 0 0 -0.074,-0.094c-0.341,-0.825 -0.825,-1.727 -1.77,-1.241l-0.235,-1.947l-6.421,3.585l0.257,1.88a0.38,0.38 0 0 0 -0.134,-0.033c-0.177,-0.005 -0.41,0.023 -0.475,0.216a0.472,0.472 0 0 0 0.007,0.263c0.078,0.327 0.242,0.633 0.47,0.883c0.074,0.083 0.109,0.187 0.058,0.283c-0.019,0.016 -0.034,0.036 -0.056,0.05c-0.184,0.11 -0.374,0.228 -0.543,0.363c-0.16,0.118 -0.313,0.246 -0.463,0.377c-0.11,0.098 -0.225,0.202 -0.265,0.343c-0.034,0.12 -0.007,0.248 0.019,0.37l0.117,0.534c0.087,0.399 0.175,0.8 0.322,1.182c0.088,0.225 0.2,0.45 0.383,0.612c0.03,0.026 0.068,0.04 0.1,0.064c-0.313,1.852 -1.894,11.825 0.049,13.378c1.159,0.926 4.854,-0.739 8.006,-2.465a24.784,24.784 0 0 0 -0.158,2.44c-0.016,0.893 0.118,1.67 0.373,2.35l-0.027,7.01c0,0.232 0.028,0.453 0.068,0.669l-0.006,0s-1.172,18.621 0.442,26.833c-0.26,-0.03 -0.526,0.012 -0.76,0.144a1.201,1.201 0 0 0 -0.018,2.088c0.94,0.556 1.956,1.159 2.298,1.371c0.025,0.018 0.05,0.032 0.074,0.048c0.025,0.015 0.05,0.031 0.054,0.035l0.008,0c0.149,0.08 0.306,0.127 0.472,0.127c0.609,0 1.174,-0.587 1.699,-1.596l0.004,-0.002l-0.001,-0.003c1.907,-3.674 3.265,-12.97 4.082,-20.314c0.548,5.345 1.37,11.318 2.534,15.031c-0.552,0.416 -0.678,1.243 -0.153,1.79c0.503,0.522 1.174,1.012 1.678,1.353c0.212,0.222 0.43,0.369 0.659,0.436c0.03,0.02 0.051,0.036 0.055,0.041c0.007,0.013 0.037,0.006 0.08,-0.012c0.08,0.011 0.16,0.015 0.24,0.007c0.413,-0.045 0.775,-0.36 1.093,-0.888l0.001,-0.001l0,-0.001l0.001,0z" mask="url(#d)" opacity="0.63" id="svg_51"/>
     <g mask="url(#d)" opacity="0.63" id="svg_52">
      <path fill="#110D28" d="m867.54572,7.4111l-0.001,-0.02a2.153,2.153 0 0 1 0.106,-0.918c0.053,-0.154 0.123,-0.302 0.189,-0.45c0.055,-0.125 0.066,-0.228 0.093,-0.356c0.074,-0.339 0.215,-0.635 0.148,-0.993c-0.036,-0.194 -0.125,-0.377 -0.137,-0.574c-0.006,-0.084 0.003,-0.17 0,-0.254a0.889,0.889 0 0 0 -0.165,-0.489c-0.012,-0.015 -0.034,-0.021 -0.049,-0.034l3.295,-1.976c0.228,0.125 0.409,0.212 0.508,0.243c0.132,0.058 0.367,0.162 0.612,0.256c0.81,0.574 2.046,1.4 3.499,2.335a4.195,4.195 0 0 0 -0.304,1.567c0,1.77 1.092,3.28 2.63,3.884l-0.01,-0.001s-0.417,0.155 -1.01,0.612l-8.884,5.793l-0.52,-8.625zm-1.929,-3.86c0.023,0.046 0.032,0.092 0.01,0.136c-0.002,0.004 -0.008,0.006 -0.01,0.01l0,-0.145l0,-0.001zm21.969,54.36c2.711,-4.65 2.157,-25.9 1.991,-30.817l0.014,-15.432l0.001,-0.35l0,-0.676l-0.065,-0.007a5.502,5.502 0 0 0 -0.115,-0.54c-0.161,-1.32 -1.03,-2.979 -1.496,-3.243c-0.08,-0.044 -0.367,-0.19 -0.805,-0.408c-0.404,-0.317 -0.83,-0.539 -1.26,-0.624l-2.408,-1.181a3.69,3.69 0 0 0 -0.182,-0.503l-0.01,-0.021c-0.03,-0.066 -0.056,-0.134 -0.09,-0.2c-0.008,-0.015 -0.02,-0.033 -0.028,-0.05a4.116,4.116 0 0 0 -3.44,-2.269c-0.02,-0.001 -0.037,-0.007 -0.057,-0.008c-0.054,-0.003 -0.106,-0.001 -0.16,-0.003l-0.021,0a3.73,3.73 0 0 0 -1.514,0.296c-0.027,0.01 -0.056,0.019 -0.083,0.03l-4.124,-2.009a3.338,3.338 0 0 0 -0.071,-0.095c-0.335,-0.832 -0.809,-1.74 -1.735,-1.251l-0.228,-1.962l-6.289,3.614l0.252,1.894a0.363,0.363 0 0 0 -0.13,-0.033c-0.174,-0.005 -0.402,0.023 -0.466,0.217a0.49,0.49 0 0 0 0.007,0.266c0.077,0.329 0.237,0.638 0.46,0.89c0.073,0.083 0.107,0.188 0.057,0.285c-0.019,0.016 -0.033,0.037 -0.055,0.05c-0.18,0.11 -0.366,0.23 -0.531,0.366c-0.157,0.12 -0.308,0.248 -0.454,0.38c-0.107,0.099 -0.22,0.204 -0.26,0.346c-0.033,0.12 -0.007,0.25 0.019,0.373l0.114,0.538c0.086,0.402 0.172,0.807 0.316,1.191c0.086,0.228 0.196,0.454 0.375,0.617c0.03,0.026 0.066,0.042 0.098,0.065c-0.306,1.867 -1.855,11.919 0.048,13.484c1.135,0.933 4.754,-0.745 7.84,-2.484a25.7,25.7 0 0 0 -0.155,2.458c-0.015,0.9 0.116,1.684 0.366,2.37l-0.026,7.065c-0.001,0.233 0.027,0.456 0.066,0.674l-0.006,0s-1.148,18.768 0.433,27.045a1.19,1.19 0 0 0 -0.745,0.146a1.228,1.228 0 0 0 -0.017,2.104c0.92,0.56 1.915,1.168 2.25,1.382c0.025,0.018 0.05,0.032 0.073,0.048l0.053,0.035c0,0.002 0.006,0 0.007,0c0.147,0.08 0.3,0.129 0.463,0.129c0.596,0 1.15,-0.592 1.664,-1.61l0.003,-0.001l0,-0.003c1.867,-3.703 3.197,-13.072 3.997,-20.475c0.537,5.387 1.342,11.408 2.482,15.15c-0.541,0.42 -0.664,1.253 -0.15,1.804c0.493,0.527 1.15,1.02 1.643,1.364c0.208,0.223 0.422,0.372 0.645,0.44c0.03,0.02 0.05,0.035 0.054,0.04c0.007,0.014 0.036,0.007 0.08,-0.012a0.91,0.91 0 0 0 0.235,0.007c0.403,-0.045 0.757,-0.361 1.069,-0.894l0.002,-0.002l-0.001,0z" id="svg_53"/>
      <path fill="#4FC0C6" d="m868.42072,7.3761l0.427,7.097l7.418,-4.837a5.04,5.04 0 0 1 -1.8,-3.888c0,-0.402 0.047,-0.8 0.14,-1.188a96.14,96.14 0 0 1 -2.876,-1.927c-0.2,-0.08 -0.387,-0.161 -0.51,-0.216a2.905,2.905 0 0 1 -0.158,-0.063l-2.25,1.349c0.004,0.042 0.005,0.08 0.007,0.109c0.002,0.06 0.001,0.12 0,0.178c0.004,0.096 0.021,0.141 0.036,0.187c0.033,0.11 0.066,0.222 0.087,0.334c0.086,0.468 -0.021,0.854 -0.1,1.135c-0.019,0.069 -0.039,0.138 -0.054,0.21c-0.035,0.181 -0.066,0.34 -0.15,0.527l-0.044,0.098c-0.04,0.093 -0.084,0.186 -0.117,0.283c-0.059,0.17 -0.08,0.355 -0.062,0.536l0.005,0.076l0.001,0zm18.476,50.905l0.074,0.112a1.13,1.13 0 0 0 -0.074,-0.112zm-1.451,0.98c0.03,0.055 0.066,0.104 0.101,0.142l-0.101,-0.143l0,0.001zm-9.637,1.931l0.013,0.006c0.045,0.022 0.381,-0.03 0.925,-1.107l0.022,-0.043c1.433,-2.878 2.777,-9.836 3.888,-20.13l0.906,-8.383l0.834,8.39c0.672,6.747 1.518,11.927 2.449,14.98l0.179,0.589l-0.485,0.374a0.355,0.355 0 0 0 -0.133,0.25a0.313,0.313 0 0 0 0.089,0.243c0.346,0.37 0.852,0.79 1.504,1.243l0.14,0.122c0.143,0.154 0.232,0.19 0.255,0.197l0.013,0.002c0.051,-0.001 0.21,-0.096 0.423,-0.461l0,-0.003c2.024,-3.468 2.272,-18.51 1.872,-30.336l0.014,-16.144l-0.053,-0.21a4.71,4.71 0 0 0 -0.098,-0.454l-0.023,-0.121c-0.132,-1.082 -0.837,-2.387 -1.096,-2.605c-0.039,-0.018 -0.31,-0.154 -0.722,-0.36l-0.15,-0.094c-0.31,-0.243 -0.619,-0.4 -0.892,-0.455l-0.215,-0.072l-2.76,-1.355l-0.107,-0.383a2.739,2.739 0 0 0 -0.139,-0.38l-0.104,-0.22a3.257,3.257 0 0 0 -2.713,-1.799l-0.115,-0.013l-0.075,0.004c-0.407,-0.012 -0.8,0.07 -1.179,0.229l-0.426,0.15l-0.371,-0.14l-4.322,-2.105l-0.306,-0.465c-0.24,-0.601 -0.392,-0.779 -0.455,-0.83c-0.009,0.006 -0.031,0.015 -0.062,0.032l-1.126,0.595l-0.222,-1.914l-4.628,2.66l0.3,2.26l4.35,-2.606l0.436,0.24c0.152,0.084 0.275,0.148 0.351,0.176l0.09,0.033c0.123,0.055 0.342,0.152 0.57,0.24l0.192,0.103c0.809,0.574 2.039,1.395 3.466,2.313l0.615,0.395l-0.274,0.684a3.307,3.307 0 0 0 -0.239,1.234c0,1.363 0.814,2.565 2.073,3.06l1.471,0.45l-1.659,1.282a4.369,4.369 0 0 0 -0.618,0.406l-10.199,6.652l-0.613,-10.19a2.93,2.93 0 0 1 0.155,-1.227c0.05,-0.145 0.112,-0.288 0.176,-0.43l0.078,-0.273c0.022,-0.107 0.05,-0.208 0.078,-0.31c0.04,-0.144 0.076,-0.27 0.064,-0.331c-0.008,-0.046 -0.024,-0.091 -0.038,-0.136a2.305,2.305 0 0 1 -0.113,-0.545a2.276,2.276 0 0 1 0,-0.219l0.014,-0.012l-0.588,-0.487c0.042,0.218 0.014,0.441 -0.084,0.642l-0.153,0.24l-0.938,1.46c0.067,0.31 0.137,0.602 0.238,0.871a1.1,1.1 0 0 0 0.117,0.245c0.016,0.01 0.032,0.02 0.046,0.031l0.443,0.32l-0.089,0.545c-1.208,7.365 -1.038,12.015 -0.263,12.652c0.01,0.01 1.002,0.732 6.862,-2.57l1.488,-0.838l-0.193,1.71a25.049,25.049 0 0 0 -0.15,2.375c-0.012,0.755 0.093,1.444 0.313,2.047l0.055,0.15l-0.027,7.225c0,0.151 0.016,0.313 0.052,0.51l0.166,0.91l-0.2,0.028c-0.188,3.516 -0.909,18.939 0.46,26.1l0.226,1.188l-1.188,-0.142a0.334,0.334 0 0 0 -0.204,0.034a0.327,0.327 0 0 0 -0.167,0.288c0,0.072 0.02,0.206 0.161,0.292c0.93,0.565 1.931,1.177 2.269,1.394l0.073,0.047zm0.054,1.795a1.73,1.73 0 0 1 -0.554,-0.09l-0.249,0.05l-0.304,-0.338c-0.289,-0.184 -1.277,-0.786 -2.19,-1.342a2.093,2.093 0 0 1 -1.01,-1.823a2.092,2.092 0 0 1 1.212,-1.895c-1.328,-8.432 -0.386,-24.872 -0.3,-26.313a4.32,4.32 0 0 1 -0.057,-0.7l0.025,-6.912c-0.258,-0.77 -0.38,-1.62 -0.365,-2.534c0.005,-0.3 0.014,-0.598 0.03,-0.893c-5.031,2.637 -6.599,2.272 -7.393,1.62c-1.072,-0.88 -2.005,-4.009 -0.432,-13.86a2.753,2.753 0 0 1 -0.353,-0.678c-0.168,-0.448 -0.263,-0.891 -0.354,-1.32l-0.115,-0.536c-0.036,-0.176 -0.098,-0.466 -0.005,-0.8c0.109,-0.393 0.375,-0.634 0.518,-0.764c0.162,-0.148 0.332,-0.291 0.509,-0.426a2.95,2.95 0 0 1 -0.254,-0.683a1.358,1.358 0 0 1 0.015,-0.752c0.04,-0.118 0.159,-0.396 0.451,-0.595l-0.222,-1.676l7.948,-4.568l0.28,2.392c0.109,0.019 0.206,0.046 0.291,0.078c0.693,0.258 1.095,0.925 1.387,1.597l3.529,1.719a4.604,4.604 0 0 1 1.536,-0.252l0.025,0c0.127,0.002 0.177,0.003 0.229,0.007l0.13,0.016c1.688,0.09 3.287,1.145 4.091,2.743c0.057,0.102 0.085,0.166 0.112,0.23c0.05,0.113 0.093,0.215 0.13,0.308l1.985,0.975c0.482,0.116 0.964,0.354 1.435,0.71c0.419,0.209 0.693,0.348 0.772,0.393c0.83,0.472 1.693,2.37 1.91,3.73l0.148,0.013l0.063,0.819l-0.015,16.459c0.208,6.103 0.67,26.487 -2.112,31.262c-0.471,0.808 -1.051,1.253 -1.728,1.329c-0.058,0.006 -0.115,0.01 -0.175,0.01l-0.518,0.23l-0.293,-0.413a2.447,2.447 0 0 1 -0.691,-0.503c-0.72,-0.506 -1.294,-0.99 -1.712,-1.435a2.077,2.077 0 0 1 -0.56,-1.601a2.13,2.13 0 0 1 0.367,-1.037c-0.551,-1.94 -1.059,-4.512 -1.519,-7.69c-0.756,5.294 -1.762,10.496 -3.027,13.276l0.121,0.303l-0.405,0.275c-0.338,0.64 -1.103,1.885 -2.337,1.885z" id="svg_54"/>
     </g>
     <path fill="#110D28" d="m973.05072,37.6141s5.217,-9.275 7.51,-8.186c2.29,1.09 -4.193,13.911 -4.193,13.911" mask="url(#d)" opacity="0.63" id="svg_55"/>
     <path fill="#110D28" d="m980.09372,29.3391l-3.043,3.186l7.063,3.814l3.937,-2.696l-7.957,-4.304z" mask="url(#d)" opacity="0.63" id="svg_56"/>
     <path fill="#110D28" d="m969.37372,45.1091s-17.16,32.603 -2.2,31.185c14.961,-1.417 20.152,-11.97 20.262,-14.477c0.11,-2.508 -5.19,-5.914 -5.41,-6.35c0,0 8.91,-21.154 5.06,-22.026c-2.916,-0.763 -3.743,3.016 -3.743,3.016l-4.178,12.904s-2.09,-3.38 -4.18,-3.599" mask="url(#d)" opacity="0.63" id="svg_57"/>
     <path fill="#110D28" d="m973.99272,74.6511s-2.467,7.823 0.583,6.547c3.051,-1.276 11.475,-15.859 11.475,-15.859" mask="url(#d)" opacity="0.63" id="svg_58"/>
     <path fill="#110D28" d="m971.08072,76.2001s-2.087,5.665 -0.32,6.119c1.768,0.454 3.29,-6.98 3.29,-6.98m3,-33a4,4 0 1 1 -8,0a4,4 0 0 1 8,0m7,11l-5,9" mask="url(#d)" opacity="0.63" id="svg_59"/>
     <path fill="#4FC0C6" d="m1306.81272,93.6991l0,27.73l18.476,-9.767l0,-28.327l-18.476,10.364zm-1.762,30.64l0,-31.658l22,-12.342l0,32.37l-22,11.63z" mask="url(#d)" opacity="0.63" id="svg_60"/>
     <path fill="#4FC0C6" d="m1288.82572,97.1651c-1.564,0 -2.836,1.344 -2.836,2.996c0,1.653 1.272,2.997 2.836,2.997c1.563,0 2.835,-1.344 2.835,-2.997c0,-1.652 -1.272,-2.996 -2.835,-2.996m0,7.753c-2.535,0 -4.598,-2.134 -4.598,-4.757c0,-2.622 2.063,-4.756 4.598,-4.756c2.534,0 4.597,2.134 4.597,4.756c0,2.623 -2.063,4.757 -4.597,4.757" mask="url(#d)" id="svg_61"/>
     <path fill="#4FC0C6" d="m1291.62772,144.1321c-0.277,0 -0.558,-0.01 -0.843,-0.032c-2.913,-0.224 -10.699,-2.357 -11.03,-2.448l-0.634,-0.175l-0.44,-24.681a3.447,3.447 0 0 1 -1.503,-1.109c-1.192,-1.498 -1.425,-4.011 -0.693,-7.469c1.44,-6.798 7.063,-7.276 8.705,-7.266l-0.015,1.76c-2.122,-0.032 -5.876,0.72 -6.966,5.87c-0.811,3.829 -0.13,5.409 0.348,6.01c0.462,0.58 1.004,0.626 1.01,0.626l0.848,0.016l0.444,24.893c1.937,0.519 7.776,2.043 10.062,2.22c1.886,0.144 3.687,-0.337 4.557,-0.621l0,-22.691l0.947,0.07c0.73,0.055 1.567,0.008 1.919,-0.1c0.12,-1.432 -0.42,-9.333 -1.77,-11.108c-1.234,-1.624 -4.663,-3.298 -5.88,-3.806l0.679,-1.624c0.196,0.082 4.83,2.032 6.604,4.366c1.872,2.461 2.384,11.929 1.993,12.943c-0.333,0.865 -1.531,1.109 -2.73,1.12l0,22.033l-0.542,0.227c-0.106,0.043 -2.381,0.976 -5.07,0.976" mask="url(#d)" id="svg_62"/>
     <path fill="#4FC0C6" d="m1285.43672,102.7191a7.563,7.563 0 0 0 -0.261,-0.007l0.015,-1.76c0.117,0.001 0.225,0.004 0.323,0.008l-0.077,1.758l0,0.001zm-2.144,48.853l1.734,0l0,-8.579l-1.734,-0.426l0,9.005zm3.496,1.76l-5.258,0l0,-13.01l5.258,1.292l0,11.717l0,0.001zm4.202,1.557l1.734,0.606l0,-11.363l-1.734,0l0,10.757zm3.496,3.088l-5.258,-1.84l0,-13.765l5.258,0l0,15.605z" mask="url(#d)" id="svg_63"/>
     <path fill="#4FC0C6" d="m1281.73472,153.4291c0.28,0.15 0.85,0.343 1.703,0.343c0.85,0 1.421,-0.192 1.701,-0.344c-0.28,-0.151 -0.85,-0.344 -1.701,-0.344c-0.852,0 -1.423,0.193 -1.703,0.344m1.703,2.104c-2.132,0 -3.62,-0.865 -3.62,-2.104c0,-1.238 1.488,-2.103 3.62,-2.103c2.13,0 3.619,0.865 3.619,2.103c0,1.239 -1.489,2.104 -3.62,2.104m5.811,1.317c0.28,0.152 0.851,0.345 1.703,0.345c0.85,0 1.422,-0.193 1.702,-0.344c-0.28,-0.152 -0.851,-0.344 -1.702,-0.344c-0.852,0 -1.423,0.192 -1.703,0.344m1.703,2.103c-2.132,0 -3.62,-0.865 -3.62,-2.103c0,-1.239 1.488,-2.104 3.62,-2.104c2.13,0 3.62,0.865 3.62,2.104c0,1.238 -1.49,2.103 -3.62,2.103m6.921,-38.122l-8.455,-1.114l0.23,-1.745l8.456,1.115l-0.231,1.744z" mask="url(#d)" id="svg_64"/>
     <path fill="#4FC0C6" d="m1293.86272,115.4891l1.761,0l0,-3.777l-1.761,0l0,3.777z" id="svg_65"/>
     <path fill="#4FC0C6" d="m1289.89872,116.0371l4.845,0l0,-1.76l-4.845,0l0,1.76zm-7.688,2.132l-3.003,-1.26l0.683,-1.622l3.001,1.26l-0.681,1.622z" id="svg_66"/>
     <path fill="#4FC0C6" d="m1283.44872,117.4631l5.202,0.839l0,-2.876l-5.202,-0.941l0,2.978zm6.964,2.904l-8.726,-1.406l0,-6.583l8.726,1.579l0,6.41z" id="svg_67"/>
     <path fill="#110D28" d="m1392.05072,60.1401l-55,-31.801l0,64.1l55,30.9l0,-63.199z" id="svg_68"/>
     <path fill="#4FC0C6" d="m1337.82072,92.4341l53.46,29.901l0,-61.175l-53.46,-30.774l0,62.048zm55.23,32.905l-57,-31.88l0,-66.12l57,32.811l0,65.189zm-206.796,-139.887l-77.264,46.422a2.429,2.429 0 0 0 -1.172,2.07l0,186.425c0,0.753 0.341,1.449 0.938,1.91l3.553,2.507c0.24,-0.818 0.359,-1.518 0.358,-2.101l-0.052,-181.98c0,-1.477 0.793,-2.86 2.072,-3.607l80.955,-47.341l-6.848,-4.282a2.427,2.427 0 0 0 -2.54,-0.022l0,-0.001zm-73.945,241.198l-3.319,-1.865l-1.319,-1.115a4.147,4.147 0 0 1 -1.621,-3.302l0,-186.423a4.2,4.2 0 0 1 2.027,-3.58l77.264,-46.423a4.184,4.184 0 0 1 4.392,0.039l9.317,5.826l-83.469,48.81a2.424,2.424 0 0 0 -1.198,2.086l-2.074,185.947z" opacity="0.63" id="svg_69"/>
     <path fill="#110D28" d="m1197.05072,-11.1009l-7.957,-5.056a3.221,3.221 0 0 0 -3.411,-0.03l-76.057,46.445a3.31,3.31 0 0 0 -1.575,2.827l0,186.514c0,1.02 0.466,1.982 1.26,2.607l5.256,4.133l-0.053,-186.493c0,-1.171 0.612,-2.254 1.61,-2.847l80.927,-48.1z" id="svg_70"/>
     <g opacity="0.63" id="svg_71">
      <path fill="#110D28" d="m1106.48672,31.2541l7.185,7.596" id="svg_72"/>
      <path fill="#4FC0C6" d="m1113.01072,39.4751l-7.185,-7.596l1.321,-1.25l7.186,7.597l-1.322,1.249z" id="svg_73"/>
     </g>
     <path fill="#110D28" d="m1190.31272,-6.3409l-75.388,44.373a3.806,3.806 0 0 0 -1.874,3.283l0.05,178.618c0,1.464 0.073,4.12 0.142,6.406c4.288,-2.38 4.288,-2.38 5.553,-3.113l74.132,-42.92a3.807,3.807 0 0 0 1.897,-3.27l1.226,-186.697l-5.738,3.32z" id="svg_74"/>
     <path fill="#4FC0C6" d="m1190.84972,-6.0409l-75.597,44.504a2.95,2.95 0 0 0 -1.447,2.533l0.051,179.148c0,1.194 0.05,3.184 0.1,4.956c3.048,-1.692 3.171,-1.763 4.295,-2.414l74.34,-43.048a2.946,2.946 0 0 0 1.464,-2.523l1.22,-185.716l-4.426,2.56zm-76.966,233.193l-1.64,-0.556c-0.06,-2.023 -0.142,-4.893 -0.142,-6.451l-0.051,-179.149c0,-1.658 0.886,-3.21 2.313,-4.05l75.606,-44.51l7.081,-4.097l-1.24,188.787a4.713,4.713 0 0 1 -2.342,4.036l-74.339,43.047c-1.276,0.74 -1.276,0.74 -5.584,3.13l0.338,-0.187z" opacity="0.63" id="svg_75"/>
     <path fill="#110D28" d="m1156.05072,49.1451l0,51.194l49,-29.185l0,-49.815l-49,27.806z" id="svg_76"/>
     <g opacity="0.63" id="svg_77">
      <path fill="#110D28" d="m1167.11572,42.9251l0,51.094l49.978,-29.162l0,-49.354l-49.978,27.422z" id="svg_78"/>
      <path fill="#4FC0C6" d="m1167.99672,43.4391l0,48.456l48.216,-27.766l0,-47.145l-48.216,26.455zm-1.762,51.49l0,-52.518l51.74,-28.39l0,51.11l-51.74,29.798z" id="svg_79"/>
      <path fill="#110D28" d="m1188.44772,41.7191l0,31.918l13.27,-20.244l-13.27,-11.674z" id="svg_80"/>
      <path fill="#4FC0C6" d="m1189.32872,43.6611l0,27.029l11.238,-17.143l-11.238,-9.886zm-1.762,32.923l0,-36.807l15.304,13.462l-15.304,23.345z" id="svg_81"/>
     </g>
     <path fill="#110D28" d="m1182.73372,96.2191l-44.653,25.745s-0.056,44.08 -0.016,45.375c2.48,-1.347 47.685,-28.15 47.685,-28.15l0.301,-44.85l-3.317,1.88z" opacity="0.63" id="svg_82"/>
     <path fill="#4FC0C6" d="m1138.82772,123.3811c-0.005,4.433 -0.042,36.516 -0.024,43.95c7.3,-4.367 41.03,-24.956 45.196,-27.499l0.283,-43.42l-1.94,1.133l-43.515,25.836zm-1.72,46.958l-0.042,-1.448c-0.04,-1.311 0.012,-44.193 0.015,-46.018l0,-0.505l48.97,-29.029l-0.309,47.495l-0.418,0.255c-1.818,1.11 -44.535,27.19 -46.961,28.548l-1.254,0.702l-0.001,0z" opacity="0.63" id="svg_83"/>
     <g opacity="0.63" id="svg_84">
      <path fill="#110D28" d="m1142.92872,153.5581l10.145,-32.448l10.688,12.296l5.543,-11.122l9.71,8.662l-36.086,22.612z" id="svg_85"/>
      <path fill="#4FC0C6" d="m1153.43772,122.8611l-8.972,28.698l33.094,-20.736l-7.985,-7.125l-5.616,11.267l-10.521,-12.104zm-12.046,32.695l11.317,-36.199l10.856,12.49l5.471,-10.977l11.435,10.201l-39.08,24.485l0.001,0z" id="svg_86"/>
     </g>
     <path fill="#110D28" d="m1502.05072,228.3391l0,35.646l-41,24.354l0,-37.417l41,-22.583z" opacity="0.63" id="svg_87"/>
     <g opacity="0.63" id="svg_88">
      <path fill="#110D28" d="m1539.81372,283.4421l-36.299,-20.323l-41.661,24.026l34.828,20.532l43.132,-24.235z" id="svg_89"/>
      <path fill="#4FC0C6" d="m1463.59172,287.1531l33.1,19.513l41.332,-23.223l-34.502,-19.316l-39.93,23.026zm33.079,21.534l-36.556,-21.55l43.393,-25.025l38.096,21.328l-44.933,25.247z" id="svg_90"/>
      <path fill="#4FC0C6" d="m1462.73472,250.7531l0,34.873l39.898,-23.01l0,-33.199l-39.898,21.336zm-1.763,37.912l0,-38.954l43.425,-23.221l0,37.132l-43.425,25.043zm14.403,0.151l1.865,1.1l2.48,-1.393l-1.945,-1.09l-2.4,1.383zm1.856,2.11l-3.594,-2.118l4.13,-2.382l3.743,2.095l-4.28,2.405l0.001,0zm2.854,-4.835l1.865,1.099l2.48,-1.393l-1.945,-1.09l-2.4,1.384zm1.856,2.11l-3.594,-2.119l4.13,-2.382l3.743,2.096l-4.28,2.405l0.001,0zm3.12,-5.044l1.866,1.1l2.48,-1.393l-1.946,-1.09l-2.4,1.383zm1.856,2.11l-3.594,-2.118l4.13,-2.382l3.744,2.095l-4.28,2.405zm3.284,-5.279l1.865,1.099l2.48,-1.393l-1.946,-1.09l-2.4,1.384l0.001,0zm1.855,2.11l-3.594,-2.119l4.13,-2.382l3.744,2.096l-4.28,2.405zm3.355,-5.126l1.864,1.099l2.48,-1.393l-1.946,-1.09l-2.399,1.384l0.001,0zm1.854,2.11l-3.594,-2.119l4.131,-2.382l3.743,2.096l-4.28,2.405zm3.206,-4.953l1.865,1.1l2.48,-1.393l-1.947,-1.09l-2.399,1.383l0.001,0zm1.854,2.11l-3.594,-2.118l4.132,-2.382l3.742,2.095l-4.28,2.405zm2.829,-4.9l1.866,1.1l2.48,-1.394l-1.947,-1.09l-2.399,1.383l0,0.001zm1.855,2.11l-3.593,-2.12l4.13,-2.38l3.743,2.094l-4.28,2.405l0,0.001zm-11.178,8.523l1.865,1.099l2.48,-1.393l-1.945,-1.09l-2.4,1.384zm1.856,2.11l-3.594,-2.12l4.13,-2.38l3.744,2.094l-4.28,2.405l0,0.001zm3.068,-4.877l1.864,1.1l2.48,-1.394l-1.945,-1.09l-2.4,1.384l0.001,0zm1.855,2.11l-3.594,-2.12l4.13,-2.38l3.744,2.094l-4.28,2.406zm3.189,-4.776l1.861,1.097l6.692,-3.736l-1.888,-1.15l-6.665,3.79l0,-0.001zm1.85,2.107l-3.597,-2.12l8.428,-4.792l3.609,2.198l-8.44,4.714zm-27.886,12.937l1.998,1.2l3.013,-1.845l-1.975,-1.106l-3.036,1.75l0,0.001zm2.002,2.225l-3.727,-2.241l4.755,-2.743l3.714,2.08l-4.742,2.904zm3.923,-5.803l1.865,1.1l2.48,-1.393l-1.945,-1.09l-2.4,1.383zm1.855,2.11l-3.593,-2.118l4.13,-2.382l3.743,2.095l-4.28,2.405zm2.995,-4.964l1.865,1.1l2.48,-1.394l-1.946,-1.09l-2.4,1.384l0.001,0zm1.855,2.11l-3.594,-2.12l4.13,-2.38l3.744,2.094l-4.28,2.406zm-7.949,7.132l1.936,1.134l5.232,-3.083l-1.961,-1.098l-5.207,3.047zm1.938,2.15l-3.671,-2.15l6.93,-4.056l3.729,2.087l-6.988,4.119zm6.072,-6.836l1.865,1.1l2.48,-1.393l-1.946,-1.09l-2.4,1.383l0.001,0zm1.855,2.11l-3.594,-2.119l4.13,-2.381l3.744,2.095l-4.28,2.405zm-5.232,5.36l1.865,1.1l2.48,-1.393l-1.946,-1.09l-2.399,1.383zm1.855,2.11l-3.594,-2.118l4.131,-2.382l3.743,2.095l-4.28,2.405zm3.069,-5.023l1.864,1.1l2.48,-1.394l-1.946,-1.09l-2.399,1.384l0.001,0zm1.854,2.11l-3.594,-2.12l4.131,-2.38l3.743,2.094l-4.28,2.406zm1.612,-9.601l1.865,1.099l2.48,-1.393l-1.946,-1.09l-2.4,1.384l0.001,0zm1.855,2.11l-3.594,-2.12l4.13,-2.38l3.744,2.094l-4.28,2.405l0,0.001zm-0.049,2.5l1.858,1.073l13.381,-7.519l-2.035,-1.168l-13.204,7.614zm1.853,2.08l-3.605,-2.08l14.955,-8.625l3.808,2.188l-15.158,8.517zm1.423,-9.439l1.866,1.1l2.48,-1.393l-1.947,-1.09l-2.399,1.383zm1.855,2.11l-3.594,-2.118l4.131,-2.382l3.743,2.095l-4.28,2.405zm2.987,-4.858l1.865,1.1l2.48,-1.393l-1.946,-1.09l-2.399,1.383zm1.855,2.11l-3.593,-2.119l4.13,-2.381l3.743,2.095l-4.28,2.405zm2.892,-4.919l1.862,1.098l5.097,-2.869l-1.922,-1.107l-5.037,2.878zm1.852,2.108l-3.597,-2.12l6.783,-3.875l3.691,2.124l-6.877,3.871zm0.752,1.846l1.865,1.1l2.48,-1.393l-1.946,-1.09l-2.399,1.383zm1.855,2.11l-3.594,-2.119l4.131,-2.381l3.743,2.095l-4.28,2.405zm2.987,-4.858l1.866,1.1l2.479,-1.393l-1.946,-1.09l-2.4,1.383l0.001,0zm1.855,2.11l-3.594,-2.118l4.13,-2.382l3.744,2.095l-4.28,2.405z" id="svg_91"/>
     </g>
     <path fill="#4FC0C6" d="m1467.65772,303.3391l-1.607,-1.01l9.317,-5.99l1.683,0.961l-9.393,6.039zm49.703,33l-49.31,-32.927l1.572,-1.073l49.428,33.005l-1.69,0.995zm-145.617,-256.194c-2.061,0 -4.055,0.844 -5.678,2.417c-1.831,1.774 -2.969,4.257 -3.204,6.993c-0.237,2.734 0.46,5.383 1.958,7.458c1.475,2.042 3.555,3.28 5.855,3.488c2.306,0.211 4.56,-0.64 6.362,-2.385c1.83,-1.775 2.968,-4.258 3.204,-6.993c0.484,-5.603 -3.022,-10.514 -7.814,-10.947a7.541,7.541 0 0 0 -0.683,-0.03m-0.38,22.193a9.12,9.12 0 0 1 -0.844,-0.039c-2.812,-0.253 -5.34,-1.75 -7.12,-4.213c-1.754,-2.43 -2.57,-5.517 -2.297,-8.691c0.273,-3.175 1.605,-6.068 3.75,-8.146c2.172,-2.106 4.915,-3.126 7.73,-2.873c5.76,0.52 9.985,6.309 9.417,12.905c-0.274,3.175 -1.606,6.067 -3.75,8.146c-1.955,1.895 -4.374,2.911 -6.886,2.911" opacity="0.63" id="svg_92"/>
     <path fill="#4FC0C6" d="m1375.99472,110.3391l-2.51,-8.24l1.95,-0.67l2.616,8.492l-2.056,0.418zm2.233,-42l-34.177,-18.431l0.823,-1.569l34.177,18.431l-0.823,1.569zm-7.985,6l-26.192,-14.427l0.809,-1.573l26.191,14.427l-0.808,1.573zm-8.018,6l-18.174,-9.479l0.826,-1.521l18.174,9.478l-0.826,1.522zm-2.991,10l-15.183,-8.403l0.817,-1.597l15.183,8.403l-0.817,1.597z" opacity="0.63" id="svg_93"/>
     <path fill="#110D28" d="m1335.02672,109.5391s-3.529,0.599 -4.958,1.587c-1.428,0.987 -4.194,6.754 -5.206,6.782c-1.012,0.03 -1.238,-9.638 -1.58,-10.231c-0.344,-0.594 -2.55,-0.389 -2.622,0.487c-0.074,0.876 -1.828,15.617 0.973,16.172c2.803,0.556 5.178,-0.374 5.178,-0.374s1.729,-1.203 1.618,0.13c-0.11,1.333 -1.68,24.247 -1.68,24.247s15.9,-0.928 16.23,-3.547c0.33,-2.62 2.203,-32.43 2.064,-33.451c-0.14,-1.02 -2.618,-3.413 -3.927,-3.518c-1.308,-0.105 -6.09,1.716 -6.09,1.716" opacity="0.63" id="svg_94"/>
     <path fill="#4FC0C6" d="m1334.67272,102.1731c-1.418,0 -2.665,1.499 -2.82,3.44c-0.16,2.016 0.92,3.759 2.407,3.883c1.474,0.117 2.828,-1.414 2.989,-3.431c0.16,-2.017 -0.92,-3.76 -2.407,-3.885a2.08,2.08 0 0 0 -0.169,-0.007m-0.248,9.166c-0.104,0 -0.207,-0.005 -0.31,-0.013c-2.47,-0.207 -4.283,-2.837 -4.043,-5.863c0.24,-3.026 2.445,-5.316 4.916,-5.111c2.469,0.206 4.282,2.836 4.042,5.862c-0.231,2.898 -2.265,5.125 -4.605,5.125" opacity="0.63" id="svg_95"/>
     <path fill="#4FC0C6" d="m1344.24572,120.2311c0.343,-5.867 -0.473,-8.457 -1.219,-9.597c-0.841,-1.288 -3.86,-0.983 -7.227,0.445l2.538,-2.34s4.986,-1.128 6.117,0.892c1.163,2.077 1.813,5.595 1.512,10.708l-1.721,-0.108zm175.805,240.088l-2,1.02l0,-23.98l2,-1.02l0,23.98z" opacity="0.63" id="svg_96"/>
     <g fill="#4FC0C6" opacity="0.63" id="svg_97">
      <path d="m1479.26872,262.5021c-1.234,0 -2.237,0.987 -2.237,2.199c0,1.213 1.003,2.199 2.237,2.199c1.234,0 2.237,-0.986 2.237,-2.2c0,-1.211 -1.003,-2.198 -2.237,-2.198m0,6.137c-2.21,0 -4.007,-1.767 -4.007,-3.938c0,-2.171 1.798,-3.938 4.007,-3.938c2.209,0 4.006,1.767 4.006,3.938c0,2.171 -1.797,3.938 -4.006,3.938m13.049,-13.019c-1.234,0 -2.238,0.986 -2.238,2.2c0,1.212 1.004,2.199 2.238,2.199s2.237,-0.987 2.237,-2.2s-1.003,-2.199 -2.237,-2.199m0,6.138c-2.21,0 -4.007,-1.767 -4.007,-3.938c0,-2.172 1.797,-3.939 4.007,-3.939c2.209,0 4.006,1.767 4.006,3.939c0,2.17 -1.797,3.938 -4.006,3.938m-13.494,-10.505c-1.234,0 -2.237,0.986 -2.237,2.2c0,1.211 1.003,2.198 2.237,2.198c1.234,0 2.237,-0.987 2.237,-2.199c0,-1.213 -1.003,-2.199 -2.237,-2.199m0,6.137c-2.209,0 -4.006,-1.766 -4.006,-3.938c0,-2.171 1.797,-3.938 4.006,-3.938c2.21,0 4.007,1.767 4.007,3.938c0,2.172 -1.798,3.938 -4.007,3.938" id="svg_98"/>
      <path d="m1482.88472,263.9021l-0.989,-1.442l6.293,-4.167l0.988,1.442l-6.292,4.167zm7.072,-7.478l-8.236,-2.13l0.45,-1.683l8.236,2.13l-0.45,1.683zm-11.57,5.282l-0.444,-5.111l1.763,-0.148l0.444,5.111l-1.763,0.148z" id="svg_99"/>
     </g>
     <path fill="#110D28" d="m1498.05072,69.1401l-55,-31.801l0,64.1l55,30.9l0,-63.199z" id="svg_100"/>
     <path fill="#4FC0C6" d="m1443.82072,100.4341l53.46,29.901l0,-61.174l-53.46,-30.774l0,62.047zm55.23,32.905l-57,-31.88l0,-66.12l57,32.812l0,65.188z" opacity="0.63" id="svg_101"/>
     <g fill="#4FC0C6" opacity="0.63" id="svg_102">
      <path d="m1555.97572,230.1511l-0.01,-0.002l0.032,0.008c-0.007,-0.002 -0.015,-0.003 -0.022,-0.006m0.085,0.018c0.02,0.003 0.039,0.004 0.057,0.005c-0.018,-0.001 -0.038,-0.002 -0.057,-0.005m0.216,-0.017a0.397,0.397 0 0 1 -0.044,0.01l0.003,0a0.85,0.85 0 0 1 0.04,-0.01m-0.906,-1.136c-0.05,0.508 0.22,1.015 0.596,1.132a0.638,0.638 0 0 1 -0.261,-0.157c-0.393,-0.366 -9.54,-9.102 -10.337,-20.031c-0.122,-4.123 0.292,-10.218 1.196,-17.679c0.093,-0.526 0.42,-0.775 0.78,-0.664c0.383,0.142 0.634,0.662 0.577,1.161l-0.027,0.225c-0.87,7.243 -1.273,13.126 -1.157,17.028c0.659,8.97 7.95,16.724 9.405,18.19c-0.171,0.05 -0.27,0.074 -0.28,0.076c-0.267,0.062 -0.46,0.346 -0.492,0.719" id="svg_103"/>
      <path d="m1555.87272,213.7861l-0.54,0.505c-0.141,0.136 -0.233,0.346 -0.255,0.595c-0.02,0.222 0.021,0.443 0.104,0.631l-4.5,-8.487c-0.236,-0.445 -0.184,-1.028 0.115,-1.301a0.504,0.504 0 0 1 0.507,-0.121c0.175,0.054 0.342,0.198 0.46,0.422l4.109,7.756zm0.311,2.105l0.053,-0.049a0.511,0.511 0 0 1 -0.49,0.187a0.497,0.497 0 0 0 0.438,-0.138" id="svg_104"/>
      <path d="m1565.43772,205.1991c0.174,0.054 0.34,0.197 0.457,0.416c0.237,0.44 0.185,1.028 -0.11,1.302l-9.549,8.926l-0.051,0.049a0.498,0.498 0 0 1 -0.506,0.121l-0.033,-0.011c-0.198,-0.074 -0.363,-0.256 -0.464,-0.485a1.302,1.302 0 0 1 -0.104,-0.631c0.023,-0.249 0.114,-0.459 0.254,-0.595l0.54,-0.505l9.057,-8.465a0.506,0.506 0 0 1 0.509,-0.122m5.766,-6.444a0.727,0.727 0 0 1 0.344,0.213c0.097,0.105 0.175,0.24 0.228,0.39c0.052,0.152 0.08,0.32 0.07,0.49l-0.013,0.222c-0.406,7.09 -1.127,13.44 -1.983,17.435c-2.596,9.716 -12.736,12.432 -13.573,12.647a0.56,0.56 0 0 1 -0.276,0.006c-0.412,-0.127 -0.68,-0.634 -0.632,-1.143c0.034,-0.373 0.226,-0.656 0.494,-0.717c0.01,-0.003 0.108,-0.028 0.28,-0.078c1.66,-0.483 10.223,-3.34 12.399,-11.475c0.808,-3.786 1.506,-9.894 1.91,-16.762l0.026,-0.454c0.02,-0.517 0.347,-0.857 0.726,-0.774" id="svg_105"/>
      <path d="m1571.77572,199.3591c0.086,0.228 0.105,0.485 0.057,0.711l0.011,-0.192l0.003,-0.028a1.32,1.32 0 0 0 -0.071,-0.491m-24.86,-7.903c3.409,-2.191 8.075,-2.603 12.812,-1.133c4.67,1.45 8.97,4.598 11.82,8.644a0.704,0.704 0 0 0 -0.305,-0.202c-0.419,-0.092 -0.745,0.247 -0.765,0.764l-0.026,0.453c-2.642,-3.64 -6.587,-6.48 -10.887,-7.815c-4.312,-1.338 -8.544,-1.03 -11.67,0.836l0.025,-0.218c0.058,-0.506 -0.193,-1.026 -0.568,-1.165c-0.367,-0.114 -0.694,0.136 -0.778,0.592c0,-0.035 0.001,-0.07 0.005,-0.105c0.026,-0.295 0.15,-0.535 0.337,-0.651m9.204,38.717l0.057,-0.001l-0.057,0.001m-0.059,-0.004" id="svg_106"/>
     </g>
     <path fill="#4FC0C6" d="m1326.15772,150.1891l0.066,-1.006c0.06,-0.903 1.397,-21.192 1.613,-24.22c-0.46,-0.079 -1.43,-0.037 -2.169,-0.004c-1.284,0.057 -2.739,0.119 -3.977,-0.136c-1.604,-0.331 -3.032,-2.454 -1.461,-15.692c0.036,-0.302 0.06,-0.507 0.068,-0.59c0.07,-0.864 0.544,-1.52 1.21,-1.67c0.58,-0.128 1.159,0.16 1.48,0.737c0.154,0.275 0.277,0.799 0.74,2.919c0.365,1.665 1.142,5.221 1.694,6.668c0.47,-0.617 1.145,-1.72 1.634,-2.52c1.187,-1.944 2.021,-3.259 2.767,-3.795c0.574,-0.411 0.55,-0.528 1.736,-0.88l1.85,1.238s-2.298,0.891 -2.584,1.097c-0.513,0.369 -1.499,1.983 -2.291,3.28c-1.572,2.574 -2.307,3.713 -3.253,3.74c-1.155,0.04 -1.692,-1.305 -3.252,-8.442l-0.164,-0.748c-1.36,12.024 0.112,12.886 0.176,12.917c1.026,0.21 2.368,0.151 3.553,0.1c1.739,-0.076 2.995,-0.13 3.643,0.557c0.263,0.28 0.391,0.654 0.36,1.054c-0.094,1.166 -1.272,19.016 -1.569,23.496c7.19,-0.509 13.496,-1.749 14.01,-2.787c0.208,-1.766 1.714,-15.87 2.225,-25.285l1.709,0.12c-0.52,9.555 -1.987,23.538 -2.216,25.426c-0.358,2.944 -10.56,4 -16.612,4.366l-0.986,0.06z" opacity="0.63" id="svg_107"/>
     <path fill="#387D8B" d="m1330.54872,150.0441l0.901,9.56c0.016,0.172 0.155,0.3 0.324,0.3l0.173,0a0.353,0.353 0 0 0 0.347,-0.33l0.685,-9.76l-2.43,0.23zm1.398,11.639l-0.173,0c-1.07,0 -1.955,-0.82 -2.059,-1.909l-1.068,-11.335l6.216,-0.59l-0.831,11.852c-0.078,1.111 -0.994,1.982 -2.085,1.982zm5.497,-12.84l0.603,7.702c0.028,0.352 0.32,0.627 0.666,0.627c0.195,0 0.355,-0.15 0.373,-0.347l0.773,-8.66l-2.415,0.678zm1.27,10.107c-1.249,0 -2.304,-0.995 -2.404,-2.264l-0.717,-9.166l6.23,-1.751l-1.002,11.217c-0.1,1.119 -1.006,1.964 -2.108,1.964l0.001,0z" id="svg_108"/>
     <g fill="#4FC0C6" opacity="0.63" id="svg_109">
      <path d="m1368.01372,186.4051c-0.155,0.555 -0.321,1.588 0.312,2.27c0.634,0.684 1.702,0.625 2.282,0.527c1.145,-0.191 2.352,-0.808 3.402,-1.738c2.026,-1.796 2.846,-4.274 1.791,-5.412c-0.43,-0.463 -1.058,-0.584 -1.6,-0.584c-0.257,0 -0.495,0.028 -0.682,0.06c-1.145,0.19 -2.352,0.808 -3.402,1.738m-0.198,7.696c-1.183,0 -2.185,-0.392 -2.881,-1.144c-0.883,-0.952 -1.131,-2.323 -0.701,-3.861c0.392,-1.404 1.32,-2.807 2.612,-3.951c1.291,-1.144 2.81,-1.91 4.277,-2.155c1.61,-0.269 2.98,0.108 3.863,1.06c1.747,1.883 0.907,5.315 -1.91,7.812c-1.292,1.144 -2.81,1.91 -4.278,2.154c-0.339,0.057 -0.667,0.085 -0.982,0.085m-9.436,-5.4a3.347,3.347 0 0 1 -0.817,-0.641c-0.882,-0.952 -1.13,-2.323 -0.7,-3.862c0.393,-1.403 1.32,-2.807 2.612,-3.95c1.291,-1.146 2.81,-1.91 4.277,-2.155c1.608,-0.267 2.98,0.108 3.864,1.059l-1.289,1.142c-0.633,-0.683 -1.7,-0.622 -2.283,-0.525c-1.144,0.19 -2.352,0.808 -3.4,1.738c-1.05,0.93 -1.797,2.044 -2.103,3.14c-0.156,0.554 -0.322,1.588 0.311,2.27c0.112,0.122 0.245,0.226 0.394,0.31l-0.866,1.474z" id="svg_110"/>
      <path d="m1367.19772,189.9541l-7.054,-4.613l0.967,-1.412l7.054,4.612l-0.967,1.413zm8.148,-8.245l-7.248,-4.824l0.98,-1.405l7.247,4.823l-0.979,1.406z" id="svg_111"/>
     </g>
     <path fill="#110D28" d="m1373.05072,184.3391l98,54m-99,-49l96,53m-95.219,-53c-1.023,-0.273 -1.781,-1.271 -1.781,-2.463c0,-1.4 1.049,-2.537 2.344,-2.537c0.646,0 1.232,0.284 1.656,0.744" opacity="0.63" id="svg_112"/>
     <g opacity="0.63" id="svg_113">
      <path fill="#110D28" d="m1375.01372,185.2991l98.554,54.626" id="svg_114"/>
      <path fill="#4FC0C6" d="m1473.14072,240.6971l-98.554,-54.625l0.854,-1.544l98.555,54.625l-0.855,1.544z" id="svg_115"/>
      <path fill="#110D28" d="m1373.35272,189.4081l95.918,53.012" id="svg_116"/>
      <path fill="#4FC0C6" d="m1468.84472,243.1921l-95.918,-53.012l0.852,-1.545l95.918,53.012l-0.852,1.545z" id="svg_117"/>
      <path fill="#110D28" d="m1373.36872,189.3441a2.207,2.207 0 0 1 0.529,-4.348c0.608,0 1.159,0.247 1.557,0.646" id="svg_118"/>
      <path fill="#4FC0C6" d="m1373.15772,190.2011a3.08,3.08 0 0 1 -2.346,-3a3.09,3.09 0 0 1 3.085,-3.087c0.824,0 1.599,0.32 2.181,0.904l-1.246,1.248a1.324,1.324 0 1 0 -1.252,2.222l-0.422,1.713z" id="svg_119"/>
     </g>
     <path fill="#10F1E0" d="m1006.79072,331.9791l-1.74,0.616l0,-8.256l2,1.359l-0.26,6.281z" id="svg_120"/>
     <path fill="#4FC0C6" d="m1270.79272,402.3971a42.79,42.79 0 0 0 0.018,-9.221l-0.018,-17.038c0.037,-15.39 -7.66,-28.79 -20.577,-36.294l-104.872,-60.923c-12.803,-7.436 -28.715,-7.443 -41.524,-0.018l-32.457,18.893l1.087,1.394l32.253,-18.762c12.264,-7.111 27.498,-7.105 39.757,0.017l104.87,60.922c12.368,7.185 19.739,20.015 19.715,34.32c-0.023,14.304 -5.14,25.85 -17.53,32.995l0,1.881c9.345,-5.388 14.543,-12.964 17.517,-22.882l0,14.59c-1.395,12.327 -8.436,23.229 -19.575,29.652l-47.087,27.15l0.88,1.526l47.087,-27.15c9.127,-5.263 15.616,-13.407 18.695,-22.886l0,10.437c0.053,14.216 -7.28,27.117 -19.812,34.344l-107.449,61.955c-12.25,7.063 -27.453,7.037 -39.68,-0.066l-104.567,-60.76c-12.712,-7.386 -20.09,-20.73 -19.698,-35.28l-0.014,-10.308c2.96,9.814 9.536,18.282 18.852,23.69l104.676,60.76a41.43,41.43 0 0 0 20.803,5.583c7.15,0 14.3,-1.838 20.683,-5.514l60.424,-34.805l-0.88,-1.525l-60.425,34.804c-12.261,7.062 -27.481,7.038 -39.72,-0.066l-104.674,-60.76c-13.502,-7.838 -20.998,-22.384 -19.56,-37.962l-0.178,-6.26c2.955,9.89 9.53,18.36 18.827,23.762l104.569,60.76a41.356,41.356 0 0 0 20.781,5.584a41.364,41.364 0 0 0 20.662,-5.515l75.83,-44.11l-2.146,-1.38l-74.564,43.964c-12.25,7.063 -27.453,7.037 -39.68,-0.066l-104.567,-60.76c-12.35,-7.176 -19.719,-19.988 -19.712,-34.271c0.007,-14.285 7.388,-27.09 19.745,-34.253l11.302,-6.552l-0.883,-1.525l-11.302,6.552c-12.895,7.477 -20.601,20.835 -20.621,35.74l-0.003,46.056c0.202,14.541 7.8,27.749 20.588,35.18l104.569,60.759a41.347,41.347 0 0 0 20.781,5.583a41.363,41.363 0 0 0 20.662,-5.514l107.449,-61.955c13.204,-7.614 20.893,-21.256 20.704,-36.255l-0.011,-18.218l0,0.001z" opacity="0.63" id="svg_121"/>
     <g opacity="0.63" id="svg_122">
      <path fill="#110D28" d="m973.45272,37.2631s5.501,-9.442 7.918,-8.333c2.416,1.109 -4.42,14.16 -4.42,14.16" id="svg_123"/>
      <path fill="#4FC0C6" d="m977.73072,43.5031l-1.562,-0.827c3.133,-5.982 5.362,-12.052 4.77,-12.991c-0.718,-0.314 -3.852,3.098 -6.724,8.026l-1.523,-0.897c1.775,-3.047 6.208,-9.996 9.045,-8.69c0.29,0.132 0.682,0.42 0.888,1.028c0.982,2.892 -3.904,12.462 -4.894,14.351" id="svg_124"/>
      <path fill="#110D28" d="m980.41472,28.8391l-3.01,3.383l6.987,4.05l3.895,-2.863l-7.872,-4.57z" id="svg_125"/>
      <path fill="#4FC0C6" d="m978.78772,31.9991l5.547,3.215l2.337,-1.717l-6.077,-3.528l-1.807,2.03zm5.66,5.33l-8.425,-4.884l4.68,-4.462l9.197,5.34l-5.451,4.005l-0.001,0.001z" id="svg_126"/>
      <path fill="#110D28" d="m969.88772,43.9741s-17.205,33.155 -2.205,31.714c15,-1.442 20.204,-12.172 20.314,-14.722c0.11,-2.55 -5.204,-6.014 -5.425,-6.458c0,0 8.934,-21.512 5.074,-22.399c-2.923,-0.776 -3.753,3.068 -3.753,3.068l-4.188,13.122s-2.096,-3.438 -4.192,-3.66" id="svg_127"/>
      <path fill="#4FC0C6" d="m966.76372,76.6211c-2.21,0 -3.85,-0.782 -4.888,-2.33c-2.082,-3.108 -1.472,-9.264 1.812,-18.296c2.39,-6.572 5.388,-12.373 5.419,-12.43l1.564,0.82c-3.242,6.248 -10.877,23.621 -7.331,28.916c0.81,1.209 2.203,1.702 4.259,1.504c15.222,-1.463 19.451,-12.376 19.516,-13.878c0.065,-1.488 -3.032,-3.994 -4.199,-4.937c-0.743,-0.603 -0.994,-0.805 -1.133,-1.084l-0.18,-0.364l0.155,-0.375c2.871,-6.913 6.98,-18.75 5.787,-21.08c-0.053,-0.102 -0.084,-0.11 -0.096,-0.113c-0.53,-0.14 -0.954,-0.093 -1.326,0.137c-0.83,0.51 -1.277,1.831 -1.368,2.255l-4.796,15.041l-1.006,-1.644c-0.725,-1.186 -2.326,-3.114 -3.532,-3.241l0.185,-1.764c1.497,0.157 2.884,1.493 3.792,2.6l3.653,-11.451c0.031,-0.16 0.537,-2.316 2.15,-3.309c0.782,-0.482 1.706,-0.602 2.669,-0.346c0.356,0.082 0.89,0.332 1.244,1.024c1.818,3.554 -3.811,17.894 -5.494,22.005l0.402,0.328c2.399,1.94 4.95,4.196 4.855,6.396c-0.124,2.88 -5.72,14.088 -21.112,15.567c-0.346,0.033 -0.68,0.05 -1.002,0.05" id="svg_128"/>
      <path fill="#110D28" d="m974.48872,74.2391s-2.492,8.158 0.59,6.827c3.081,-1.33 11.59,-16.537 11.59,-16.537" id="svg_129"/>
      <path fill="#4FC0C6" d="m974.47272,82.0991a1.6,1.6 0 0 1 -1.09,-0.41c-1.48,-1.336 -0.31,-5.837 0.263,-7.71l2.555,-1.108c-0.763,2.502 -1.998,6.827 -1.67,7.447c0.042,-0.009 0.107,-0.027 0.2,-0.067c2.044,-0.884 7.936,-10.38 11.17,-16.157l1.538,0.87c-1.446,2.583 -8.818,15.538 -12.013,16.917a2.41,2.41 0 0 1 -0.953,0.218" id="svg_130"/>
      <path fill="#4FC0C6" d="m971.49772,82.1591c-0.2,0 -0.405,-0.025 -0.61,-0.076a1.682,1.682 0 0 1 -1.102,-0.891c-0.864,-1.66 0.408,-5.324 0.82,-6.408l1.648,0.632c-0.805,2.128 -1.238,4.545 -0.892,4.975a0.637,0.637 0 0 0 0.43,-0.092c0.507,-0.31 0.829,-1.26 0.901,-1.567l1.719,0.403c-0.044,0.195 -0.472,1.921 -1.695,2.675c-0.376,0.232 -0.79,0.349 -1.22,0.349" id="svg_131"/>
      <path fill="#110D28" d="m977.40572,41.2361c0,2.195 -1.77,3.974 -3.952,3.974c-2.183,0 -3.952,-1.78 -3.952,-3.974s1.769,-3.973 3.952,-3.973s3.952,1.779 3.952,3.973" id="svg_132"/>
      <path fill="#4FC0C6" d="m973.45272,38.1491a3.082,3.082 0 0 0 -3.07,3.087a3.081,3.081 0 0 0 3.07,3.086a3.081,3.081 0 0 0 3.07,-3.086a3.082,3.082 0 0 0 -3.07,-3.086m0,7.946c-2.665,0 -4.834,-2.18 -4.834,-4.86s2.169,-4.86 4.834,-4.86c2.666,0 4.835,2.18 4.835,4.86s-2.169,4.86 -4.835,4.86" id="svg_133"/>
      <path fill="#110D28" d="m983.47572,52.2491l-4.211,9.504" id="svg_134"/>
      <path fill="#4FC0C6" d="m980.07072,62.1141l-1.612,-0.721l4.211,-9.505l1.612,0.721l-4.211,9.505z" id="svg_135"/>
     </g>
     <path fill="#4FC0C6" d="m1054.04972,108.9921l0,-0.045l-0.032,-10.694c0.035,-0.632 0.038,-1.269 -0.006,-1.912l-0.03,-10.035c0.037,-0.405 0.063,-0.814 0.068,-1.227c0.066,-5.472 -2.691,-10.42 -7.373,-13.235l-58.41,-35.125l-0.347,1.846l57.853,34.79c3.682,2.213 6.012,5.92 6.443,10.116l0.009,2.749c-0.418,4.362 -2.872,8.186 -6.731,10.383l-81.52,46.39a13.442,13.442 0 0 1 -13.426,-0.096l-169.104,-99.392c-4.154,-2.442 -6.635,-6.781 -6.635,-11.607c-0.002,-4.827 2.476,-9.168 6.628,-11.612l82.115,-48.33a13.395,13.395 0 0 1 13.712,0.064l98.564,59.273l1.17,-1.351l-98.83,-59.433a15.154,15.154 0 0 0 -15.506,-0.073l-82.114,48.331c-4.506,2.652 -7.26,7.279 -7.477,12.47l-0.02,0l0,26.187l0.097,0c0.516,4.77 3.197,8.964 7.408,11.438l169.104,99.393a15.158,15.158 0 0 0 7.683,2.084c2.59,0 5.18,-0.659 7.499,-1.978l45.67,-25.989l-0.526,-0.303s-0.79,0.495 -2.042,0.869c-1.21,0.31 -2.257,0.154 -2.257,0.154l-41.713,23.737a13.444,13.444 0 0 1 -13.426,-0.094l-169.104,-99.392c-4.172,-2.452 -6.653,-6.812 -6.635,-11.661l0,-4.16a15.133,15.133 0 0 0 5.747,5.992l169.104,99.392a15.15,15.15 0 0 0 7.683,2.085c2.59,0 5.18,-0.659 7.499,-1.978l33,-18.78l-1.595,-1.117l-32.273,18.365a13.447,13.447 0 0 1 -13.426,-0.094l-169.104,-99.392c-4.172,-2.453 -6.653,-6.812 -6.635,-11.661l0,-5.303a15.14,15.14 0 0 0 5.747,5.993l169.104,99.393a15.162,15.162 0 0 0 7.684,2.085c2.589,0 5.18,-0.659 7.498,-1.978l81.52,-46.39a15.14,15.14 0 0 0 5.88,-6.001l0.01,3.408l-0.08,0.01c0.038,0.289 0.062,0.576 0.082,0.863l0.006,1.81a13.404,13.404 0 0 1 -6.764,10.867l-36.237,20.552l1.61,1.11l35.493,-20.13a15.164,15.164 0 0 0 5.917,-6.101l0.007,2.363l-0.114,0.015c0.09,0.674 0.128,1.343 0.12,2.006l0,0.057a13.414,13.414 0 0 1 -6.798,11.477l-30.543,17.38l1.804,0.999l29.607,-16.848a15.157,15.157 0 0 0 7.666,-12.566l0.023,0l-0.001,-0.413z" opacity="0.63" id="svg_136"/>
     <path fill="#10F1E0" d="m1219.05072,391.0021l-2,0.752l0.067,-12.415l1.933,0.011l0,11.652zm-86,-50.663l-2,-0.497l0,-11.943l2,-0.561l0,13.001zm-125.127,-15.45c4.477,4.014 26.524,21.382 55.814,4.218c9.659,-5.66 14.557,-11.803 14.557,-18.26c0,-9.962 -11.712,-17.91 -14.126,-19.44l-56.245,33.482zm30.325,13.45c-19.605,0 -32.24,-12.808 -32.416,-12.99l-0.782,-0.813l59.123,-35.197l0.443,0.259c0.63,0.37 15.43,9.166 15.434,21.244c0.003,7.14 -5.19,13.803 -15.434,19.807c-9.66,5.66 -18.567,7.69 -26.368,7.69z" id="svg_137"/>
     <path fill="#10F1E0" d="m1038.07672,346.3391a45.5,45.5 0 0 1 -15.712,-2.807c-10.28,-3.78 -17.063,-10.726 -17.314,-10.986l1.756,-0.716c0.236,0.244 24.199,24.417 56.92,5.265c11.658,-6.823 16.348,-14.303 13.94,-22.234l1.677,-0.522c2.682,8.828 -2.276,17.002 -14.738,24.295c-9.832,5.755 -18.839,7.705 -26.529,7.705m60.166,31l-1.604,-0.5l32.001,-46.244l-72.44,23.149l-1.149,-1.478l78,-24.927l-34.808,50z" id="svg_138"/>
     <path fill="#10F1E0" d="m1055.58672,363.3391l-0.536,-1.676l67.72,-21.71l-0.72,2.062l-66.464,21.324zm42.23,26.32l0,-2.997l33.445,-47.323l1.789,1.053l-35.234,49.267z" id="svg_139"/>
     <path fill="#10F1E0" d="m1110.94172,358.7121l-25.8,-14.316l1.78,-1.057l25.258,13.882l-1.238,1.491zm-3.758,5.627l-21.133,-11.467l0.867,-1.533l21.133,11.467l-0.867,1.533zm-10.145,26.383l-0.379,-13.915l1.633,0.521l0,11.614l-1.254,1.78zm156.012,19.617l-2,0l0,-12.39l2,-0.61l0,13z" id="svg_140"/>
     <path fill="#10F1E0" d="m1218.24272,447.3391l-1.447,-1.004l31.844,-45.74l-72.44,23.149l-1.149,-1.405l78,-25l-34.808,50z" id="svg_141"/>
     <path fill="#10F1E0" d="m1175.05072,433.3391l0.614,-2.099l66.846,-21.901l0.54,1.722l-68,22.278zm43.478,26l-1.478,-0.992l34.077,-48.027l1.966,0l-34.565,49.019z" id="svg_142"/>
     <path fill="#10F1E0" d="m1232.17972,427.3391l-26.129,-14.432l1.834,-0.885l25.166,13.75l-0.871,1.567zm-5.996,6l-21.133,-11.467l2.04,-0.835l19.96,10.769l-0.867,1.533zm-9.097,26l-0.285,-13l1.872,0l0,13l-1.587,0zm-160.036,-96.577l-2,0.577l0,-11l2,0.64l0,9.783zm160.663,17.577l-58.663,-33.293l0.586,-1.707l59.414,33.856l-1.337,1.144zm-93.157,16l-1.506,-1.324l49.097,-29.676l0.903,1.514l-48.494,29.486zm8.403,5l-0.909,-1.48l49.647,-29.272l1.353,1.231l-50.091,29.521zm0.394,10l-0.303,-2.068l49.099,-28.932l0.901,1.488l-49.697,29.512z" id="svg_143"/>
     <path fill="#10F1E0" d="m1134.05072,410.3391l-2,0l0,-10l2,0.689l0,9.311z" id="svg_144"/>
     <path fill="#10F1E0" d="m1132.19872,401.3391l-9.148,-5.485l0.852,-1.515l9.148,5.485l-0.852,1.515zm1.207,10l-10.355,-6.281l1.728,-0.719l9.272,5.392l-0.645,1.608z" id="svg_145"/>
     <path fill="#10F1E0" d="m1125.05072,404.3391l-2,0l0,-10l2,0.657l0,9.343zm24.344,-52l-1.487,-0.872l11.702,-6.172l0.441,1.726l-10.656,5.318z" id="svg_146"/>
     <path fill="#10F1E0" d="m1208.16372,387.3391l-59.113,-33.464l0.482,-1.827l59.518,33.755l-0.887,1.536z" id="svg_147"/>
     <path fill="#10F1E0" d="m1207.83072,385.7351l-1.493,-1.228l10.841,-6.168l0.872,1.483l-10.22,5.913z" id="svg_148"/>
     <path fill="#10F1E0" d="m1209.05072,397.4641l-2,-2.125l0,-9.287l2,-1.247l0,12.659zm-59.38,-35.485l-1.66,-0.505l0,-10.044l1.66,0.526l0,10.023z" id="svg_149"/>
     <path fill="#10F1E0" d="m1209.05372,397.5071l-61.003,-35.986l1.306,-1.182l59.634,34.845l0.063,2.323z" id="svg_150"/>
     <path fill="#10F1E0" d="m1209.05072,397.5531l0,-1.963l10.02,-5.155l-0.046,1.944l-9.974,5.174zm-32,33.574l-2,2.113l0,-10.908l2,-0.422l0,9.217z" id="svg_151"/>
     <path fill="#1FFFE9" d="m366.21939,158.36677zm67.756,63.471l0,-7.928l-7.538,0l0,-6.904l-9.986,0l0,6.904l-10.517,0l-20.53,15.599l-43.687,0l0,7.927l47.37,0l19.903,-15.598l24.985,0z" id="svg_152"/>
     <path fill="#1FFFE9" d="m431.94772,258.6041l2.255,-32.028l-8.697,0l-2.255,32.028l8.697,0zm-19.36,0l8.698,0l-1.868,-32.028l-8.698,0l1.868,32.028zm-3.539,10.715l25.834,0l0,-7.927l-25.834,0l0,7.927z" id="svg_153"/>
     <path fill="#10F1E0" d="m535.09472,216.1361l-1.417,-6.968l-9.342,0l1.482,6.968l9.277,0z" id="svg_154"/>
     <path fill="#1FFFE9" d="m446.60272,261.9111l13.66,0l0,-17.9l-13.66,0l0,17.9zm83.238,0.446l-6.958,-36.694l14.69,0l0,-7.927l-16.171,0l-1.718,-9.371l-9.614,0l1.668,9.37l-24.7,0l-15.63,-0.102l-13.787,0l0,-9.294l-9.987,0l0,27.744l-5.734,0a6.22,6.22 0 0 0 -1.836,0.288a6.636,6.636 0 0 0 -1.707,0.797a4.232,4.232 0 0 0 -1.257,1.277c-0.321,0.51 -0.483,1.106 -0.483,1.785l0,29.609l28.23,0c0.599,0 1.221,-0.086 1.865,-0.256a5.415,5.415 0 0 0 1.735,-0.797a5.017,5.017 0 0 0 1.286,-1.308c0.343,-0.512 0.515,-1.107 0.515,-1.786l0,-29.608l-12.627,0l0,-10.417l29.417,0l0,-0.003l26.118,0l7.602,41.361c0.214,0.937 0.75,1.63 1.61,2.078c0.86,0.447 1.717,0.671 2.577,0.671l12.241,0l0.773,-7.416l-8.118,0l0,-0.001z" id="svg_155"/>
     <path fill="#1FFFE9" d="m501.00072,239.4771l10.243,0l0,-7.927l-30.473,0l0,7.927l10.244,0l0,20.713l-11.79,0l0,7.926l33.501,0l0,-7.926l-11.725,0l0,-20.713z" id="svg_156"/>
     <path fill="#FFF" d="m1010.05672,209.9971z" id="svg_160"/>
     <path fill="#110D28" d="m1144.73372,54.2191l-44.653,25.744s-0.055,44.082 -0.015,45.376c2.479,-1.347 47.684,-28.15 47.684,-28.15l0.301,-44.85l-3.317,1.88z" id="svg_161"/>
     <path fill="#4FC0C6" d="m1100.82772,80.3811c-0.005,4.433 -0.042,36.517 -0.024,43.95c7.3,-4.367 41.029,-24.955 45.195,-27.499l0.284,-43.42l-1.941,1.133l-43.514,25.836zm-1.72,46.958l-0.042,-1.448c-0.04,-1.31 0.012,-44.193 0.015,-46.018l0,-0.505l48.97,-29.029l-0.31,47.495l-0.418,0.256c-1.818,1.11 -44.534,27.19 -46.96,28.547l-1.254,0.702l-0.001,0z" opacity="0.63" id="svg_162"/>
     <path fill="#4FC0C6" d="m1140.05072,91.3391l2,0l0,-23l-2,0l0,23zm-5,-5l2,0l0,-12l-2,0l0,12zm-13,6l2,0l0,-12l-2,0l0,12zm-13,5l2,0l0,-12l-2,0l0,12zm21,-5l2,0l0,-17l-2,0l0,17zm-4,-5l2,0l0,-5l-2,0l0,5zm-12,5l2,0l0,-5l-2,0l0,5zm4,-3l2,0l0,-2l-2,0l0,2z" opacity="0.63" id="svg_163"/>
     <path stroke="#387E8C" stroke-linecap="square" stroke-width="2" d="m1584.55072,289.3341l0,23.01" id="svg_164"/>
     <path fill="#110D28" d="m1218.66472,447.5371l0,8.605l8.984,-12.681l-8.984,4.076z" id="svg_165"/>
     <text font-style="italic" font-weight="bold" transform="matrix(2.27717 0 0 2.74311 -750.434 -556.13)" xml:space="preserve" text-anchor="start" font-family="'Archivo'" font-size="24" stroke-width="0" id="svg_167" y="299.44305" x="567.51305" fill="#FFF"></text>
    </g>
   </g>
  </g>
  <text fill="#1FFFE9" stroke-width="0" x="461.19612" y="137.47663" id="svg_166" font-size="24" font-family="'Gluten'" text-anchor="start" xml:space="preserve" transform="matrix(2.61398 0 0 3.48974 -867.671 -317.459)">D-LABEL</text>
 </g>
</svg>