<?xml version="1.0" encoding="UTF-8"?>
<svg width="472px" height="310px" viewBox="0 0 472 310" version="1.1" xmlns="http://www.w3.org/2000/svg" xmlns:xlink="http://www.w3.org/1999/xlink">
    <!-- Generator: Sketch 50.2 (55047) - http://www.bohemiancoding.com/sketch -->
    <title>Group 12</title>
    <desc>Created with Sketch.</desc>
    <defs>
        <polygon id="path-1" points="0.539 0.0752 1.539 0.0752 1.539 23 0.539 23"></polygon>
        <polygon id="path-3" points="0 309.472 471.881 309.472 471.881 0 0 0"></polygon>
    </defs>
    <g id="Page-1" stroke="none" stroke-width="1" fill="none" fill-rule="evenodd">
        <g id="首页KF-Copy" transform="translate(-802.000000, -720.000000)">
            <g id="Group-12" transform="translate(802.000000, 720.000000)">
                <g id="Group-Copy">
                    <path d="M78.2606,106.533 L32.0496,133.176 C21.4276,139.299 21.3466,154.598 31.9016,160.835 L77.4766,187.762 C82.4486,190.7 88.6176,190.733 93.6206,187.849 L140.1686,161.012 C150.8286,154.866 150.8626,139.493 140.2286,133.301 L94.3166,106.568 C89.3576,103.68 83.2326,103.667 78.2606,106.533" id="Fill-1" fill="#FFFFFF"></path>
                    <path d="M78.2606,106.533 L32.0496,133.176 C21.4276,139.299 21.3466,154.598 31.9016,160.835 L77.4766,187.762 C82.4486,190.7 88.6176,190.733 93.6206,187.849 L140.1686,161.012 C150.8286,154.866 150.8626,139.493 140.2286,133.301 L94.3166,106.568 C89.3576,103.68 83.2326,103.667 78.2606,106.533 Z" id="Stroke-3" stroke="#285164"></path>
                    <polygon id="Fill-5" fill="#FFFFFF" points="90.0399 35.5599 90.0399 80.9249 48.8989 103.8719 48.8989 58.6619"></polygon>
                    <polygon id="Stroke-7" stroke="#285164" points="90.0399 35.5599 90.0399 80.9249 48.8989 103.8719 48.8989 58.6619"></polygon>
                    <polyline id="Stroke-9" stroke="#285164" stroke-linecap="round" stroke-linejoin="round" points="62.3349 70.803 69.0579 79.631 79.2019 57.727"></polyline>
                    <polygon id="Fill-11" fill="#FFFFFF" points="42.5399 61.7264 42.5399 107.0914 1.3989 130.0384 1.3989 84.8284"></polygon>
                    <polygon id="Stroke-13" stroke="#285164" points="42.5399 61.7264 42.5399 107.0914 1.3989 130.0384 1.3989 84.8284"></polygon>
                    <path d="M70.8329,86.472 C70.3029,85.254 69.8369,82.045 67.8039,83.152 C65.7709,84.259 65.2199,85.242 65.6859,85.693 C66.1519,86.144 67.4229,87.251 68.1429,87.251 C68.8629,87.251 71.3619,87.69 70.8329,86.472" id="Fill-15" fill="#FFF0F0"></path>
                    <path d="M65.9188,85.6429 C65.9188,85.6429 63.5258,83.0129 62.7968,83.7179 C62.0678,84.4219 66.4018,87.1929 67.1978,87.4579 C67.9948,87.7219 70.1978,86.7789 70.1978,86.7789" id="Fill-17" fill="#FFF0F0"></path>
                    <polygon id="Fill-19" fill="#95E8DE" points="100.3505 100.8465 71.1495 84.6605 65.8405 88.2675 99.0515 106.7405"></polygon>
                    <path d="M80.8353,143.1873 C80.8353,143.1873 78.4493,145.1443 80.0023,144.9993 C81.5553,144.8553 80.8353,143.1873 80.8353,143.1873" id="Fill-21" fill="#FFF0F0"></path>
                    <path d="M92.8671,165.9334 C92.7801,166.0184 89.5131,168.3744 89.3941,168.2604 C89.3291,168.1974 87.4741,167.1134 85.8011,166.1414 C84.6081,165.4484 84.6241,163.7704 85.8281,163.0974 L85.8291,163.0974 C86.3781,162.7904 87.0521,162.7814 87.6091,163.0724 C89.3341,163.9744 92.9341,165.8694 92.8671,165.9334" id="Fill-23" fill="#285164"></path>
                    <path d="M103.2631,161.8235 C103.1551,161.8825 100.3871,163.0925 100.1641,162.8475 C99.9421,162.6025 98.6341,161.2435 97.2931,159.8715 C96.3371,158.8935 96.8181,157.2815 98.1661,156.9475 C98.7801,156.7945 99.4311,156.9605 99.8871,157.3865 C101.2981,158.7045 103.3451,161.7795 103.2631,161.8235" id="Fill-25" fill="#285164"></path>
                    <path d="M92.8671,165.9334 C92.6501,169.3204 89.3941,168.2604 89.3941,168.2604 L85.4031,135.9224 L94.1701,132.9684 C94.1701,132.9684 93.0841,162.5464 92.8671,165.9334" id="Fill-27" fill="#285164"></path>
                    <path d="M103.265,161.8895 C103.265,163.9175 100.164,162.8475 100.164,162.8475 L93.513,128.0425 L103.265,129.6305 L103.265,161.8895 Z" id="Fill-29" fill="#285164"></path>
                    <path d="M87.1542,140.0809 L103.8622,130.9049 L103.9272,107.8099 C103.9272,104.0639 99.6862,98.3109 96.3212,100.1619 L85.2572,105.0629 C83.6792,105.9309 79.3302,117.9729 79.3302,119.7289 L79.2682,135.6179 C79.2522,139.5429 79.4772,143.6019 87.1542,140.0809" id="Fill-31" fill="#95E8DE"></path>
                    <path d="M85.8773,104.6448 C85.8773,104.6448 79.4803,107.9328 79.2333,121.9738 C78.9863,136.0148 104.3833,130.7678 104.3833,130.7678 L103.8263,106.7628 L85.8773,104.6448 Z" id="Fill-33" fill="#95E8DE"></path>
                    <path d="M94.8397,99.763 C94.8397,103.094 92.0497,105.794 88.6077,105.794 C85.1657,105.794 82.3757,103.094 82.3757,99.763 C82.3757,96.433 85.1657,93.733 88.6077,93.733 C92.0497,93.733 94.8397,96.433 94.8397,99.763" id="Fill-35" fill="#FFF0F0"></path>
                    <path d="M84.0834,95.6155 C84.2944,95.8205 83.5894,98.7795 84.2954,99.2615 C85.0014,99.7445 85.6654,99.9905 85.6654,99.9905 C85.6654,99.9905 86.7244,100.5465 85.4814,101.8575 C84.2394,103.1695 86.9014,105.8875 88.3064,105.7935 C89.7104,105.6985 92.7534,105.3685 93.9464,102.8755 C95.1404,100.3825 95.0184,98.6115 94.2034,97.1055 C93.3894,95.6005 91.7534,93.9265 88.8724,93.7385 C85.9904,93.5515 84.0834,95.6155 84.0834,95.6155" id="Fill-37" fill="#285164"></path>
                    <path d="M80.66,143.2669 C80.66,143.2669 78.877,145.4429 80.66,146.0129 C82.443,146.5829 83.71,145.8319 83.804,145.2359 C83.898,144.6399 83.1,142.9559 82.912,142.6449 C82.724,142.3339 80.66,143.2669 80.66,143.2669" id="Fill-39" fill="#FFF0F0"></path>
                    <path d="M83.1517,107.3026 C83.1517,107.3026 84.8497,108.6776 83.9727,115.8276 C83.0967,122.9776 84.6047,142.0326 83.9727,142.6016 C83.3407,143.1706 79.3827,144.5846 79.2677,142.5076 C79.1527,140.4286 77.6957,114.8416 83.1517,107.3026" id="Fill-41" fill="#95E8DE"></path>
                    <g id="Group-46" transform="translate(24.000000, 145.472000)">
                        <path d="M0.0338777799,0.7817 C0.0061,6.1517 2.6241,11.5357 7.9021,14.6537 L53.4771,41.5817 C58.4491,44.5187 64.6171,44.5527 69.6201,41.6677 L116.1691,14.8307 C121.4881,11.7637 124.1611,6.4007 124.1841,1.0267 L124.1061,22.2887 C124.6851,28.1937 122.0371,34.3727 116.1691,37.7557 L69.6201,64.5927 C64.6171,67.4767 58.4491,67.4447 53.4771,64.5067 L7.9021,37.5787 C2.3731,34.3127 -0.2369,28.5607 0.0561,22.9427" id="Fill-43" fill="#DDE7F1"></path>
                        <path d="M0.0338777799,0.7817 C0.0061,6.1517 2.6241,11.5357 7.9021,14.6537 L53.4771,41.5817 C58.4491,44.5187 64.6171,44.5527 69.6201,41.6677 L116.1691,14.8307 C121.4881,11.7637 124.1611,6.4007 124.1841,1.0267 L124.1061,22.2887 C124.6851,28.1937 122.0371,34.3727 116.1691,37.7557 L69.6201,64.5927 C64.6171,67.4767 58.4491,67.4447 53.4771,64.5067 L7.9021,37.5787 C2.3731,34.3127 -0.2369,28.5607 0.0561,22.9427" id="Stroke-45" stroke="#285164"></path>
                    </g>
                    <g id="Group-50" transform="translate(24.000000, 146.472000)">
                        <path d="M0.0341,0.7812 L0.0341,24.8822" id="Fill-47" fill="#DDE7F1"></path>
                        <path d="M0.0341,0.7812 L0.0341,24.8822" id="Stroke-49" stroke="#285164"></path>
                    </g>
                    <path d="M85.4545,189.2801 L85.4545,212.2051" id="Stroke-51" stroke="#285164"></path>
                    <path d="M401.4579,114.4295 L355.2459,141.0725 C344.6249,147.1955 344.5429,162.4955 355.0989,168.7315 L400.6739,195.6595 C405.6459,198.5965 411.8139,198.6295 416.8179,195.7455 L463.3659,168.9085 C474.0259,162.7625 474.0599,147.3895 463.4259,141.1975 L417.5139,114.4645 C412.5549,111.5765 406.4289,111.5635 401.4579,114.4295" id="Fill-53" fill="#FFFFFF"></path>
                    <path d="M401.4579,114.4295 L355.2459,141.0725 C344.6249,147.1955 344.5429,162.4955 355.0989,168.7315 L400.6739,195.6595 C405.6459,198.5965 411.8139,198.6295 416.8179,195.7455 L463.3659,168.9085 C474.0259,162.7625 474.0599,147.3895 463.4259,141.1975 L417.5139,114.4645 C412.5549,111.5765 406.4289,111.5635 401.4579,114.4295 Z" id="Stroke-55" stroke="#285164"></path>
                    <g id="Group-60" transform="translate(347.000000, 153.472000)">
                        <path d="M0.231061803,0.6787 C0.2023,6.0487 2.8213,11.4327 8.0983,14.5507 L53.6733,41.4787 C58.6463,44.4157 64.8143,44.4487 69.8173,41.5647 L116.3663,14.7277 C121.6853,11.6607 124.3583,6.2977 124.3803,0.9227 L124.3033,22.1857 C124.8823,28.0907 122.2343,34.2697 116.3663,37.6527 L69.8173,64.4897 C64.8143,67.3737 58.6463,67.3407 53.6733,64.4037 L8.0983,37.4757 C2.5703,34.2097 -0.0397,28.4567 0.2533,22.8397" id="Fill-57" fill="#DDE7F1"></path>
                        <path d="M0.231061803,0.6787 C0.2023,6.0487 2.8213,11.4327 8.0983,14.5507 L53.6733,41.4787 C58.6463,44.4157 64.8143,44.4487 69.8173,41.5647 L116.3663,14.7277 C121.6853,11.6607 124.3583,6.2977 124.3803,0.9227 L124.3033,22.1857 C124.8823,28.0907 122.2343,34.2697 116.3663,37.6527 L69.8173,64.4897 C64.8143,67.3737 58.6463,67.3407 53.6733,64.4037 L8.0983,37.4757 C2.5703,34.2097 -0.0397,28.4567 0.2533,22.8397" id="Stroke-59" stroke="#285164"></path>
                    </g>
                    <g id="Group-64" transform="translate(347.000000, 154.472000)">
                        <path d="M0.2308,0.6782 L0.2308,24.7792" id="Fill-61" fill="#DDE7F1"></path>
                        <path d="M0.2308,0.6782 L0.2308,24.7792" id="Stroke-63" stroke="#285164"></path>
                    </g>
                    <path d="M408.7206,197.886 L408.7206,220.811" id="Stroke-65" stroke="#285164"></path>
                    <path d="M247.2763,203.0906 L201.0653,229.7336 C190.4433,235.8566 190.3613,251.1566 200.9173,257.3926 L246.4923,284.3206 C251.4643,287.2576 257.6333,287.2906 262.6363,284.4066 L309.1843,257.5696 C319.8443,251.4236 319.8783,236.0506 309.2443,229.8586 L263.3323,203.1256 C258.3733,200.2376 252.2483,200.2246 247.2763,203.0906" id="Fill-67" fill="#FFFFFF"></path>
                    <path d="M247.2763,203.0906 L201.0653,229.7336 C190.4433,235.8566 190.3613,251.1566 200.9173,257.3926 L246.4923,284.3206 C251.4643,287.2576 257.6333,287.2906 262.6363,284.4066 L309.1843,257.5696 C319.8443,251.4236 319.8783,236.0506 309.2443,229.8586 L263.3323,203.1256 C258.3733,200.2376 252.2483,200.2246 247.2763,203.0906 Z" id="Stroke-69" stroke="#285164"></path>
                    <g id="Group-74" transform="translate(193.000000, 242.472000)">
                        <path d="M0.049461803,0.3398 C0.0207,5.7098 2.6397,11.0938 7.9167,14.2118 L53.4917,41.1398 C58.4647,44.0768 64.6327,44.1098 69.6357,41.2258 L116.1847,14.3888 C121.5037,11.3218 124.1767,5.9588 124.1997,0.5838 L124.1217,21.8468 C124.7007,27.7518 122.0527,33.9308 116.1847,37.3138 L69.6357,64.1508 C64.6327,67.0348 58.4647,67.0018 53.4917,64.0648 L7.9167,37.1368 C2.3887,33.8708 -0.2213,28.1178 0.0717,22.5008" id="Fill-71" fill="#DDE7F1"></path>
                        <path d="M0.049461803,0.3398 C0.0207,5.7098 2.6397,11.0938 7.9167,14.2118 L53.4917,41.1398 C58.4647,44.0768 64.6327,44.1098 69.6357,41.2258 L116.1847,14.3888 C121.5037,11.3218 124.1767,5.9588 124.1997,0.5838 L124.1217,21.8468 C124.7007,27.7518 122.0527,33.9308 116.1847,37.3138 L69.6357,64.1508 C64.6327,67.0348 58.4647,67.0018 53.4917,64.0648 L7.9167,37.1368 C2.3887,33.8708 -0.2213,28.1178 0.0717,22.5008" id="Stroke-73" stroke="#285164"></path>
                    </g>
                    <g id="Group-78" transform="translate(193.000000, 243.472000)">
                        <path d="M0.0497,0.3393 L0.0497,24.4403" id="Fill-75" fill="#DDE7F1"></path>
                        <path d="M0.0497,0.3393 L0.0497,24.4403" id="Stroke-77" stroke="#285164"></path>
                    </g>
                    <g id="Group-81" transform="translate(254.000000, 286.472000)">
                        <mask id="mask-2" fill="white">
                            <use xlink:href="#path-1"></use>
                        </mask>
                        <g id="Clip-80"></g>
                        <path d="M0.539,0.0752 L0.539,23.0002" id="Stroke-79" stroke="#285164" mask="url(#mask-2)"></path>
                    </g>
                    <polygon id="Fill-82" fill="#285164" points="421.2675 144.6536 416.1995 144.6536 416.1995 128.6766 423.0175 130.3536"></polygon>
                    <polygon id="Fill-84" fill="#285164" points="432.4281 150.325 427.3601 149.012 424.4951 108.516 432.4281 108.516"></polygon>
                    <path d="M421.2675,144.9539 C421.2675,145.9349 419.4905,146.7299 417.2965,146.7299 C415.1035,146.7299 413.3265,145.9349 413.3265,144.9539 C413.3265,143.9739 415.1035,143.1789 417.2965,143.1789 C419.4905,143.1789 421.2675,143.9739 421.2675,144.9539" id="Fill-86" fill="#285164"></path>
                    <path d="M432.4281,150.325 C432.4281,151.306 430.6501,152.101 428.4571,152.101 C426.2641,152.101 424.4871,151.306 424.4871,150.325 C424.4871,149.345 426.2641,148.549 428.4571,148.549 C430.6501,148.549 432.4281,149.345 432.4281,150.325" id="Fill-88" fill="#285164"></path>
                    <path d="M420.2172,71.1766 C419.9512,71.1746 419.6502,71.1796 419.3222,71.1996 C416.1772,71.3886 410.5182,72.8546 408.8572,80.7106 C406.5152,91.7776 412.0492,91.8846 412.0492,91.8846 L412.3452,108.5166 C412.3452,108.5166 422.9042,109.3946 427.0542,109.7136 C431.2042,110.0326 436.4192,109.0486 436.4192,109.0486 L436.4192,97.5246 C436.4192,97.5246 440.0642,97.8036 440.4632,96.7656 C440.8622,95.7286 440.1432,82.3596 437.7492,79.2066 C435.3552,76.0546 427.0542,72.5156 427.0542,72.5156" id="Fill-90" fill="#A4C3F7"></path>
                    <polygon id="Fill-92" fill="#285164" points="426.5219 96.5823 416.4259 94.9523 416.4259 88.0133 426.5219 89.8423"></polygon>
                    <g id="Group-97" transform="translate(427.000000, 82.472000)">
                        <path d="M5.8881,0.8716 C5.8881,0.8716 7.8841,8.2146 5.1431,8.2936 C0.8851,8.4176 0.0541,8.5276 0.0541,8.5276 L0.0541,13.1896 C0.0541,13.1896 8.5401,14.9266 9.4191,15.0526" id="Fill-94" fill="#A4C3F7"></path>
                        <path d="M5.8881,0.8716 C5.8881,0.8716 7.8841,8.2146 5.1431,8.2936 C0.8851,8.4176 0.0541,8.5276 0.0541,8.5276 L0.0541,13.1896 C0.0541,13.1896 8.5401,14.9266 9.4191,15.0526" id="Stroke-96" stroke="#000000" stroke-width="0.1"></path>
                    </g>
                    <path d="M426.993,91.7586 C426.993,91.7586 421.732,90.0316 422.098,92.4296 C422.466,94.8286 426.986,94.9696 426.986,94.9696 L426.993,91.7586 Z" id="Fill-98" fill="#FFF0F0"></path>
                    <g id="Group-103" transform="translate(414.000000, 83.472000)">
                        <path d="M0.1053,0.4302 C0.1053,0.4302 -0.1817,4.3132 2.5003,5.0592" id="Fill-100" fill="#A4C3F7"></path>
                        <path d="M0.1053,0.4302 C0.1053,0.4302 -0.1817,4.3132 2.5003,5.0592" id="Stroke-102" stroke="#000000" stroke-width="0.1"></path>
                    </g>
                    <g id="Group-107" transform="translate(409.000000, 89.472000)">
                        <path d="M0.1713,0.3564 C0.1713,0.3564 1.0463,2.2524 3.0493,2.4124 C5.0523,2.5714 7.4253,2.8254 7.4253,2.8254" id="Fill-104" fill="#A4C3F7"></path>
                        <path d="M0.1713,0.3564 C0.1713,0.3564 1.0463,2.2524 3.0493,2.4124 C5.0523,2.5714 7.4253,2.8254 7.4253,2.8254" id="Stroke-106" stroke="#000000" stroke-width="0.1"></path>
                    </g>
                    <path d="M431.0472,68.7103 C431.0472,72.1293 428.8952,74.9003 426.2402,74.9003 C423.5862,74.9003 421.4332,72.1293 421.4332,68.7103 C421.4332,65.2913 423.5862,62.5193 426.2402,62.5193 C428.8952,62.5193 431.0472,65.2913 431.0472,68.7103" id="Fill-108" fill="#FFF0F0"></path>
                    <path d="M421.8226,66.2698 C421.8226,66.2698 425.3886,67.1688 426.6626,67.4608 C427.2976,67.6058 426.6546,69.0658 427.7956,69.8578 C428.9426,70.6538 430.4436,71.5748 430.2986,72.0308 C430.1736,72.4228 433.9566,68.1868 431.5926,64.8118 C429.9206,62.4238 426.3036,60.4958 423.1096,62.9178 C422.3316,63.5078 421.4336,64.8118 421.8226,66.2698" id="Fill-110" fill="#285164"></path>
                    <path d="M29.1215,84.2943 L13.8735,109.6113" id="Stroke-112" stroke="#1F3F4D" stroke-linecap="round" stroke-linejoin="round"></path>
                    <path d="M15.0531,92.5721 L29.8101,100.5571" id="Stroke-114" stroke="#1F3F4D" stroke-linecap="round" stroke-linejoin="round"></path>
                    <path d="M378.1512,85.5897 L378.4012,128.3197" id="Stroke-116" stroke="#285164"></path>
                    <g id="Group-121" transform="translate(180.000000, 57.472000)">
                        <path d="M0.463061714,0.2798 C0.4343,5.6498 3.0523,11.0338 8.3303,14.1518 L53.9053,41.0788 C58.8783,44.0168 65.0463,44.0498 70.0493,41.1658 L116.5973,14.3288 C121.9173,11.2618 124.5903,5.8988 124.6123,0.5238 L124.5353,21.7868 C125.1143,27.6908 122.4663,33.8708 116.5973,37.2538 L70.0493,64.0908 C65.0463,66.9748 58.8783,66.9418 53.9053,64.0048 L8.3303,37.0768 C2.8023,33.8108 0.1923,28.0578 0.4853,22.4398" id="Fill-118" fill="#DDE7F1"></path>
                        <path d="M0.463061714,0.2798 C0.4343,5.6498 3.0523,11.0338 8.3303,14.1518 L53.9053,41.0788 C58.8783,44.0168 65.0463,44.0498 70.0493,41.1658 L116.5973,14.3288 C121.9173,11.2618 124.5903,5.8988 124.6123,0.5238 L124.5353,21.7868 C125.1143,27.6908 122.4663,33.8708 116.5973,37.2538 L70.0493,64.0908 C65.0463,66.9748 58.8783,66.9418 53.9053,64.0048 L8.3303,37.0768 C2.8023,33.8108 0.1923,28.0578 0.4853,22.4398" id="Stroke-120" stroke="#285164"></path>
                    </g>
                    <g id="Group-125" transform="translate(180.000000, 58.472000)">
                        <path d="M0.4628,0.2788 L0.4628,24.3798" id="Fill-122" fill="#DDE7F1"></path>
                        <path d="M0.4628,0.2788 L0.4628,24.3798" id="Stroke-124" stroke="#285164"></path>
                    </g>
                    <path d="M241.9525,101.4871 L241.9525,124.4121" id="Stroke-126" stroke="#285164"></path>
                    <path d="M234.6893,18.0306 L188.4783,44.6736 C177.8563,50.7966 177.7753,66.0966 188.3303,72.3326 L233.9053,99.2606 C238.8773,102.1976 245.0463,102.2306 250.0493,99.3466 L296.5973,72.5096 C307.2583,66.3636 307.2913,50.9906 296.6573,44.7986 L250.7453,18.0656 C245.7863,15.1776 239.6613,15.1646 234.6893,18.0306" id="Fill-128" fill="#FFFFFF"></path>
                    <path d="M234.6893,18.0306 L188.4783,44.6736 C177.8563,50.7966 177.7753,66.0966 188.3303,72.3326 L233.9053,99.2606 C238.8773,102.1976 245.0463,102.2306 250.0493,99.3466 L296.5973,72.5096 C307.2583,66.3636 307.2913,50.9906 296.6573,44.7986 L250.7453,18.0656 C245.7863,15.1776 239.6613,15.1646 234.6893,18.0306 Z" id="Stroke-130" stroke="#285164"></path>
                    <g id="Group-135" transform="translate(413.000000, 108.472000)">
                        <polyline id="Fill-132" fill="#DDE7F1" points="11.4955 73.3457 0.7535 79.2217 0.8445 9.3387 0.8445 5.5857 11.4955 0.0447 11.4955 73.3457 11.4955 43.2097"></polyline>
                        <polyline id="Stroke-134" stroke="#285164" points="11.4955 73.3457 0.7535 79.2217 0.8445 9.3387 0.8445 5.5857 11.4955 0.0447 11.4955 73.3457 11.4955 43.2097"></polyline>
                    </g>
                    <polygon id="Fill-136" fill="#FFFFFF" points="414.37 113.7698 424.7 108.3958 367.619 75.8048 358.046 81.2328 357.932 81.2998"></polygon>
                    <polyline id="Stroke-138" stroke="#285164" points="414.37 113.7698 424.7 108.3958 367.619 75.8048 358.046 81.2328 357.932 81.2998 414.37 113.7698"></polyline>
                    <polygon id="Fill-140" fill="#FFFFFF" points="357.9325 81.3655 414.2615 113.8995 413.7535 113.6065 413.7535 187.6945 357.9325 154.7335"></polygon>
                    <polyline id="Stroke-142" stroke="#285164" points="357.9325 81.3655 414.2615 113.8995 413.7535 113.6065 413.7535 187.6945 357.9325 154.7335 357.9325 81.3655"></polyline>
                    <polygon id="Fill-144" fill="#FFFFFF" points="264.1185 150.6097 264.1185 208.0797 222.9775 231.4617 222.9775 173.7117"></polygon>
                    <polygon id="Stroke-146" stroke="#285164" points="264.1185 150.6097 264.1185 208.0797 222.9775 231.4617 222.9775 173.7117"></polygon>
                    <path d="M269.2489,266.4495 C269.1619,266.5345 265.8939,268.8905 265.7759,268.7765 C265.7109,268.7135 263.8559,267.6295 262.1829,266.6575 C260.9899,265.9635 261.0049,264.2865 262.2099,263.6135 C262.7599,263.3065 263.4329,263.2975 263.9909,263.5885 C265.7149,264.4905 269.3159,266.3855 269.2489,266.4495" id="Fill-148" fill="#285164"></path>
                    <path d="M277.7787,262.5272 C277.6707,262.5862 274.9027,263.7962 274.6797,263.5512 C274.4577,263.3062 273.1497,261.9472 271.8087,260.5752 C270.8527,259.5972 271.3337,257.9852 272.6817,257.6512 C273.2957,257.4982 273.9467,257.6642 274.4037,258.0902 C275.8137,259.4082 277.8607,262.4832 277.7787,262.5272" id="Fill-150" fill="#285164"></path>
                    <path d="M269.2489,266.4495 C269.0319,269.8365 265.7759,268.7765 265.7759,268.7765 L261.7849,236.4385 L270.5509,233.4845 C270.5509,233.4845 269.4659,263.0625 269.2489,266.4495" id="Fill-152" fill="#285164"></path>
                    <path d="M277.7811,262.5931 C277.7811,264.6201 274.6801,263.5511 274.6801,263.5511 L268.0281,228.7461 L277.7811,230.3341 L277.7811,262.5931 Z" id="Fill-154" fill="#285164"></path>
                    <path d="M264.1088,255.0267 L278.1138,247.0797 L278.6698,208.8297 C278.6698,205.0847 276.0018,198.0507 272.6378,199.9017 L261.5728,204.8027 C259.9958,205.6717 255.6458,217.7127 255.6458,219.4687 L255.5838,235.3587 C255.5678,239.2827 256.4318,258.5477 264.1088,255.0267" id="Fill-156" fill="#FFEEA6"></path>
                    <path d="M262.1932,204.3851 C262.1932,204.3851 255.7962,207.6731 255.5492,221.7141 C255.3022,235.7551 278.0862,230.5081 278.0862,230.5081 L278.1132,206.2631 L262.1932,204.3851 Z" id="Fill-158" fill="#FFEEA6"></path>
                    <g id="Group-163" transform="translate(213.000000, 47.472000)">
                        <path d="M0.1718,0.0849 L0.1718,8.0089" id="Fill-160" fill="#DDE7F1"></path>
                        <path d="M0.1718,0.0849 L0.1718,8.0089" id="Stroke-162" stroke="#285164"></path>
                    </g>
                    <g id="Group-167" transform="translate(246.000000, 21.472000)">
                        <path d="M0.327,0.6294 C0.327,0.6294 0.04,4.5124 2.722,5.2584" id="Fill-164" fill="#A4C3F7"></path>
                        <path d="M0.327,0.6294 C0.327,0.6294 0.04,4.5124 2.722,5.2584" id="Stroke-166" stroke="#000000" stroke-width="0.1"></path>
                    </g>
                    <g id="Group-171" transform="translate(241.000000, 27.472000)">
                        <path d="M0.393,0.5561 C0.393,0.5561 1.268,2.4521 3.271,2.6111 C5.274,2.7701 7.647,3.0251 7.647,3.0251" id="Fill-168" fill="#A4C3F7"></path>
                        <path d="M0.393,0.5561 C0.393,0.5561 1.268,2.4521 3.271,2.6111 C5.274,2.7701 7.647,3.0251 7.647,3.0251" id="Stroke-170" stroke="#000000" stroke-width="0.1"></path>
                    </g>
                    <path d="M257.3466,237.9734 C257.3466,237.9734 254.9606,239.9304 256.5136,239.7854 C258.0666,239.6414 257.3466,237.9734 257.3466,237.9734" id="Fill-172" fill="#FFF0F0"></path>
                    <path d="M257.1708,238.053 C257.1708,238.053 255.3878,240.229 257.1708,240.799 C258.9538,241.369 260.2208,240.618 260.3158,240.022 C260.4088,239.426 259.6108,237.742 259.4238,237.431 C259.2358,237.12 257.1708,238.053 257.1708,238.053" id="Fill-174" fill="#FFF0F0"></path>
                    <path d="M259.4677,207.0423 C259.4677,207.0423 261.1657,208.2433 260.2887,214.4883 C259.4127,220.7333 260.9207,237.3753 260.2887,237.8723 C259.6567,238.3693 255.6987,239.6043 255.5837,237.7893 C255.4687,235.9743 254.0117,213.6273 259.4677,207.0423" id="Fill-176" fill="#FFEEA6"></path>
                    <path d="M247.5238,185.3294 C247.5238,185.3294 245.5778,182.4494 244.8358,182.7504 C244.0938,183.0514 241.6698,183.7674 241.8988,184.1624 C242.1278,184.5584 244.3358,183.8084 244.7738,183.8714 C245.2108,183.9334 246.4818,185.9334 247.5238,185.3294" id="Fill-178" fill="#FFF0F0"></path>
                    <path d="M247.7968,185.8294 C247.7968,185.8294 245.8518,182.9494 245.1088,183.2504 C244.3678,183.5514 241.9428,184.2674 242.1718,184.6624 C242.4008,185.0584 244.6088,184.3084 245.0468,184.3714 C245.4838,184.4334 246.7548,186.4334 247.7968,185.8294" id="Fill-180" fill="#FFF0F0"></path>
                    <path d="M248.2499,186.0027 C248.2499,186.0027 246.3049,183.1227 245.5619,183.4237 C244.8209,183.7247 242.3959,184.4407 242.6249,184.8357 C242.8539,185.2317 245.0619,184.4817 245.4999,184.5447 C245.9369,184.6067 247.2079,186.6067 248.2499,186.0027" id="Fill-182" fill="#FFF0F0"></path>
                    <path d="M248.5101,186.261 C248.5101,186.261 246.5641,183.381 245.8221,183.682 C245.0811,183.982 242.6561,184.699 242.8851,185.094 C243.1141,185.49 245.3221,184.74 245.7601,184.803 C246.1971,184.865 247.4681,186.865 248.5101,186.261" id="Fill-184" fill="#FFF0F0"></path>
                    <path d="M242.3309,185.1209 C242.3309,185.1209 242.4589,185.2179 242.4699,185.3439 C242.4909,185.6149 242.4609,186.0519 242.9159,186.1829 C243.5849,186.3739 245.0499,186.1319 244.8809,184.9319 C244.7119,183.7319 246.4869,184.6679 246.4869,184.6679 L246.8809,185.4929 L246.6429,186.3199 C246.6429,186.3199 247.4249,186.5429 245.5649,187.1209 C243.7059,187.6989 245.1409,187.0449 244.0649,187.6209 C243.6409,187.8479 243.6649,188.1409 243.4559,188.0899 C243.2919,188.0499 242.8469,187.6839 242.8469,187.6839 C242.8469,187.6839 239.9049,185.1949 242.3309,185.1209" id="Fill-186" fill="#FFF0F0"></path>
                    <path d="M276.4872,200.4871 L247.6132,184.4831 C247.5232,184.4331 247.4122,184.4381 247.3262,184.4961 L243.2552,188.2421 C243.2422,188.2531 243.2412,188.2311 243.2552,188.2421 C244.2012,188.9731 275.0452,206.3001 275.0452,206.3001 C275.2052,206.3901 275.4072,206.2991 275.4462,206.1201 L276.6222,200.7871 C276.6482,200.6681 276.5932,200.5461 276.4872,200.4871" id="Fill-188" fill="#FFEEA6"></path>
                    <path d="M270.7113,199.7459 C270.7113,203.0769 268.3653,205.5339 264.9233,205.5339 C261.4823,205.5339 258.6913,202.8339 258.6913,199.5029 C258.6913,196.1729 261.4823,193.4729 264.9233,193.4729 C268.3653,193.4729 270.7113,196.4149 270.7113,199.7459" id="Fill-190" fill="#FFF0F0"></path>
                    <path d="M260.3763,195.39 C260.2993,195.463 260.2763,195.562 260.3093,195.663 C260.4933,196.232 260.6493,198.24 260.6113,199.002 C260.5403,200.445 260.5403,201.038 260.5403,203.34 C260.5403,205.146 259.5963,216.089 261.0653,216.121 C262.5343,216.153 267.7833,214.983 270.2523,212.621 C272.7223,210.259 271.3343,198.351 270.5193,196.846 C269.7053,195.341 268.0693,193.666 265.1883,193.478 C262.7373,193.319 260.8773,194.911 260.3763,195.39" id="Fill-192" fill="#285164"></path>
                    <polygon id="Fill-194" fill="#285164" points="248.7724 189.2015 240.3534 184.3465 240.8534 183.4805 249.2724 188.3355"></polygon>
                    <path d="M243.2289,183.3333 C243.2289,183.3333 240.9029,183.9703 242.1719,184.6623 C243.4399,185.3553 244.3779,185.0453 244.3779,185.0453 L243.2289,183.3333 Z" id="Fill-196" fill="#FFF0F0"></path>
                    <path d="M228.2416,179.6478 L257.9296,163.3308" id="Stroke-198" stroke="#285164"></path>
                    <g id="Group-203" transform="translate(228.000000, 182.472000)">
                        <path d="M11.4437,0.7724 L0.2417,6.8284" id="Fill-200" fill="#285164"></path>
                        <path d="M11.4437,0.7724 L0.2417,6.8284" id="Stroke-202" stroke="#285164"></path>
                    </g>
                    <polygon id="Fill-204" fill="#285164" points="240.8778 183.4647 239.5808 183.4017 240.3498 184.3417"></polygon>
                    <path d="M229.2035,82.6702 C228.2725,82.6702 227.5105,81.9082 227.5105,80.9762 L227.5105,71.0542 C227.5105,70.1232 228.2725,69.3602 229.2035,69.3602 C230.1355,69.3602 230.8975,70.1232 230.8975,71.0542 L230.8975,80.9762 C230.8975,81.9082 230.1355,82.6702 229.2035,82.6702" id="Fill-206" fill="#DDE7F1"></path>
                    <path d="M229.2035,82.6702 C228.2725,82.6702 227.5105,81.9082 227.5105,80.9762 L227.5105,71.0542 C227.5105,70.1232 228.2725,69.3602 229.2035,69.3602 C230.1355,69.3602 230.8975,70.1232 230.8975,71.0542 L230.8975,80.9762 C230.8975,81.9082 230.1355,82.6702 229.2035,82.6702 Z" id="Stroke-208" stroke="#285164"></path>
                    <path d="M192.9725,61.6365 C192.0405,61.6365 191.2785,60.8745 191.2785,59.9425 L191.2785,48.3215 C191.2785,47.3895 192.0405,46.6275 192.9725,46.6275 C193.9045,46.6275 194.6665,47.3895 194.6665,48.3215 L194.6665,59.9425 C194.6665,60.8745 193.9045,61.6365 192.9725,61.6365" id="Fill-210" fill="#DDE7F1"></path>
                    <path d="M192.9725,61.6365 C192.0405,61.6365 191.2785,60.8745 191.2785,59.9425 L191.2785,48.3215 C191.2785,47.3895 192.0405,46.6275 192.9725,46.6275 C193.9045,46.6275 194.6665,47.3895 194.6665,48.3215 L194.6665,59.9425 C194.6665,60.8745 193.9045,61.6365 192.9725,61.6365 Z" id="Stroke-212" stroke="#285164"></path>
                    <mask id="mask-4" fill="white">
                        <use xlink:href="#path-3"></use>
                    </mask>
                    <g id="Clip-215"></g>
                    <polygon id="Fill-214" fill="#FFFFFF" mask="url(#mask-4)" points="266.32 45.15 269.987 45.15 269.987 22.278 266.32 22.278"></polygon>
                    <polygon id="Stroke-216" stroke="#285164" mask="url(#mask-4)" points="266.32 45.15 269.987 45.15 269.987 22.278 266.32 22.278"></polygon>
                    <g id="Group-219" mask="url(#mask-4)">
                        <g transform="translate(275.000000, 43.472000)">
                            <path d="M0.4203,0.789 L0.4203,4.859" id="Fill-217" stroke="none" fill="#DDE7F1" fill-rule="evenodd"></path>
                            <path d="M0.4203,0.789 L0.4203,4.859" id="Stroke-218" stroke="#285164" stroke-width="1" fill="none"></path>
                        </g>
                    </g>
                    <path d="M258.8671,6.9861 L257.0141,9.5521" id="Stroke-220" stroke="#285164" mask="url(#mask-4)"></path>
                    <path d="M257.3583,9.3509 L257.3583,22.1989 C257.3583,23.1139 257.8313,23.9609 258.6013,24.4239 L274.6063,34.4499 C275.7723,35.1509 277.9423,33.3699 279.2713,32.4879 C279.8163,32.1259 280.1523,31.5249 280.1853,30.8709 L280.7123,20.3319 C280.7603,19.3639 280.2753,18.4499 279.4583,17.9649 L261.1273,7.1159 C259.4513,6.1239 257.3583,7.3659 257.3583,9.3509" id="Fill-221" fill="#DDE7F1" mask="url(#mask-4)"></path>
                    <path d="M257.3583,9.3509 L257.3583,22.1989 C257.3583,23.1139 257.8313,23.9609 258.6013,24.4239 L274.6063,34.4499 C275.7723,35.1509 277.9423,33.3699 279.2713,32.4879 C279.8163,32.1259 280.1523,31.5249 280.1853,30.8709 L280.7123,20.3319 C280.7603,19.3639 280.2753,18.4499 279.4583,17.9649 L261.1273,7.1159 C259.4513,6.1239 257.3583,7.3659 257.3583,9.3509 Z" id="Stroke-222" stroke="#285164" mask="url(#mask-4)"></path>
                    <path d="M256.6444,10.8167 L256.6444,22.4627 C256.6444,23.2927 257.0844,24.0607 257.8004,24.4807 L274.2664,34.1267 C275.7794,35.0127 277.6934,33.9807 277.7834,32.2287 L278.3714,20.7707 C278.4154,19.8927 277.9644,19.0647 277.2034,18.6247 L260.1504,8.7917 C258.5924,7.8927 256.6444,9.0177 256.6444,10.8167" id="Fill-223" fill="#FFFFFF" mask="url(#mask-4)"></path>
                    <path d="M256.6444,10.8167 L256.6444,22.4627 C256.6444,23.2927 257.0844,24.0607 257.8004,24.4807 L274.2664,34.1267 C275.7794,35.0127 277.6934,33.9807 277.7834,32.2287 L278.3714,20.7707 C278.4154,19.8927 277.9644,19.0647 277.2034,18.6247 L260.1504,8.7917 C258.5924,7.8927 256.6444,9.0177 256.6444,10.8167 Z" id="Stroke-224" stroke="#285164" mask="url(#mask-4)"></path>
                    <path d="M280.4564,18.8763 L278.3124,20.1213" id="Stroke-225" stroke="#285164" mask="url(#mask-4)"></path>
                    <path d="M253.435,56.7093 L259.737,60.4533" id="Stroke-226" stroke="#FFFFFF" stroke-width="1.5" mask="url(#mask-4)"></path>
                    <path d="M259.7372,60.4534 L266.3872,64.7284" id="Stroke-227" stroke="#FFFFFF" stroke-width="1.5" mask="url(#mask-4)"></path>
                    <path d="M259.4598,60.2562 L253.1868,64.6242" id="Stroke-228" stroke="#FFFFFF" stroke-width="1.5" mask="url(#mask-4)"></path>
                    <path d="M267.6356,64.7464 C267.7586,65.1884 267.3266,65.6944 266.6716,65.8764 C266.0156,66.0584 265.3856,65.8484 265.2616,65.4064 C265.1396,64.9634 265.5716,64.4574 266.2266,64.2754 C266.8826,64.0934 267.5126,64.3044 267.6356,64.7464" id="Fill-229" fill="#FFFFFF" mask="url(#mask-4)"></path>
                    <path d="M255.0155,56.4236 C255.2445,56.8206 254.9535,57.4186 254.3645,57.7586 C253.7755,58.0986 253.1115,58.0526 252.8825,57.6546 C252.6525,57.2576 252.9445,56.6596 253.5335,56.3196 C254.1225,55.9796 254.7865,56.0266 255.0155,56.4236" id="Fill-230" fill="#FFFFFF" mask="url(#mask-4)"></path>
                    <path d="M254.5307,65.0843 C254.3887,65.5213 253.7497,65.7043 253.1027,65.4953 C252.4557,65.2853 252.0457,64.7623 252.1867,64.3253 C252.3277,63.8893 252.9677,63.7053 253.6147,63.9143 C254.2617,64.1243 254.6717,64.6473 254.5307,65.0843" id="Fill-231" fill="#FFFFFF" mask="url(#mask-4)"></path>
                    <path d="M260.7089,54.5374 L260.7089,57.4794" id="Stroke-232" stroke="#285164" mask="url(#mask-4)"></path>
                    <path d="M259.5858,61.3069 C258.8158,61.3069 258.1918,60.6829 258.1918,59.9129 L258.1918,44.9499 C258.1918,44.1799 258.8158,43.5559 259.5858,43.5559 C260.3558,43.5559 260.9798,44.1799 260.9798,44.9499 L260.9798,59.9129 C260.9798,60.6829 260.3558,61.3069 259.5858,61.3069" id="Fill-233" fill="#FFFFFF" mask="url(#mask-4)"></path>
                    <path d="M259.5858,61.3069 C258.8158,61.3069 258.1918,60.6829 258.1918,59.9129 L258.1918,44.9499 C258.1918,44.1799 258.8158,43.5559 259.5858,43.5559 C260.3558,43.5559 260.9798,44.1799 260.9798,44.9499 L260.9798,59.9129 C260.9798,60.6829 260.3558,61.3069 259.5858,61.3069 Z" id="Stroke-234" stroke="#285164" mask="url(#mask-4)"></path>
                    <path d="M273.7782,50.4549 L262.3112,57.0659 C261.3692,57.6089 260.2122,57.6179 259.2622,57.0899 L245.6032,49.5009 C243.5452,48.3579 243.4662,45.4279 245.4592,44.1759 L256.6712,37.1289 C257.6422,36.5189 258.8702,36.4959 259.8632,37.0689 L273.7782,45.0929 C275.8432,46.2839 275.8432,49.2649 273.7782,50.4549" id="Fill-235" fill="#DDE7F1" mask="url(#mask-4)"></path>
                    <path d="M273.7782,50.4549 L262.3112,57.0659 C261.3692,57.6089 260.2122,57.6179 259.2622,57.0899 L245.6032,49.5009 C243.5452,48.3579 243.4662,45.4279 245.4592,44.1759 L256.6712,37.1289 C257.6422,36.5189 258.8702,36.4959 259.8632,37.0689 L273.7782,45.0929 C275.8432,46.2839 275.8432,49.2649 273.7782,50.4549 Z" id="Stroke-236" stroke="#285164" mask="url(#mask-4)"></path>
                    <path d="M273.7782,47.5149 L262.3112,54.1259 C261.3692,54.6689 260.2122,54.6779 259.2622,54.1499 L245.6032,46.5609 C243.5452,45.4179 243.4662,42.4879 245.4592,41.2349 L256.6712,34.1889 C257.6422,33.5789 258.8702,33.5559 259.8632,34.1279 L273.7782,42.1529 C275.8432,43.3439 275.8432,46.3239 273.7782,47.5149" id="Fill-237" fill="#FFFFFF" mask="url(#mask-4)"></path>
                    <path d="M273.7782,47.5149 L262.3112,54.1259 C261.3692,54.6689 260.2122,54.6779 259.2622,54.1499 L245.6032,46.5609 C243.5452,45.4179 243.4662,42.4879 245.4592,41.2349 L256.6712,34.1889 C257.6422,33.5789 258.8702,33.5559 259.8632,34.1279 L273.7782,42.1529 C275.8432,43.3439 275.8432,46.3239 273.7782,47.5149 Z" id="Stroke-238" stroke="#285164" mask="url(#mask-4)"></path>
                    <path d="M252.4384,9.3758 C252.1724,9.3738 251.8724,9.3788 251.5434,9.3988 C248.3984,9.5878 242.7404,11.0538 241.0784,18.9098 C238.7374,29.9768 244.2714,30.0838 244.2714,30.0838 C244.2714,30.0838 247.0484,35.9298 246.3184,37.6628 C245.5874,39.3948 237.3674,45.3588 237.3674,45.3588 L244.9094,65.9458 C244.9094,65.9458 255.5194,67.7368 259.6694,68.0558 C263.8194,68.3758 251.7424,56.7338 251.7424,56.7338 L258.1914,55.1968 C265.1764,50.9098 273.2434,44.9428 269.5824,37.6108 L269.0374,36.6548 C269.0374,36.6548 271.5314,36.0948 271.9304,35.0568 C272.3294,34.0198 272.3654,20.5588 269.9704,17.4058 C267.5764,14.2538 259.2754,10.7148 259.2754,10.7148" id="Fill-239" fill="#A4C3F7" mask="url(#mask-4)"></path>
                    <path d="M263.2689,6.9095 C263.2689,10.3285 261.1169,13.0995 258.4619,13.0995 C255.8079,13.0995 253.6549,10.3285 253.6549,6.9095 C253.6549,3.4905 255.8079,0.7185 258.4619,0.7185 C261.1169,0.7185 263.2689,3.4905 263.2689,6.9095" id="Fill-240" fill="#FFF0F0" mask="url(#mask-4)"></path>
                    <path d="M254.0443,4.469 C254.0443,4.469 257.6103,5.368 258.8843,5.66 C259.5193,5.805 258.8763,7.265 260.0173,8.057 C261.1643,8.853 262.6643,9.774 262.5193,10.23 C262.3943,10.622 266.1783,6.386 263.8143,3.011 C262.1423,0.623 258.5253,-1.305 255.3313,1.117 C254.5533,1.707 253.6553,3.011 254.0443,4.469" id="Fill-241" fill="#285164" mask="url(#mask-4)"></path>
                    <g id="Group-244" mask="url(#mask-4)">
                        <g transform="translate(182.000000, 42.472000)">
                            <polyline id="Fill-242" stroke="none" fill="#DDE7F1" fill-rule="evenodd" points="59.4184 33.833 0.4504 0.209 0.4504 0.241 0.4504 3.414 59.2524 36.69"></polyline>
                            <polyline id="Stroke-243" stroke="#285164" stroke-width="1" fill="none" points="59.4184 33.833 0.4504 0.209 0.4504 0.241 0.4504 3.414 59.2524 36.69"></polyline>
                        </g>
                    </g>
                    <polygon id="Fill-245" fill="#FFFFFF" mask="url(#mask-4)" points="222.7982 19.6307 281.1192 52.4587 241.4182 76.2807 182.2602 43.0027"></polygon>
                    <polygon id="Stroke-246" stroke="#285164" mask="url(#mask-4)" points="222.7982 19.6307 281.1192 52.4587 241.4182 76.2807 182.2602 43.0027"></polygon>
                    <polygon id="Fill-247" fill="#DDE7F1" mask="url(#mask-4)" points="241.4184 76.2806 281.1194 52.4586 281.1194 52.3846 281.1194 55.1196 241.2524 79.1626"></polygon>
                    <polyline id="Stroke-248" stroke="#285164" mask="url(#mask-4)" points="241.4184 76.2806 281.1194 52.4586 281.1194 52.3846 281.1194 55.1196 241.2524 79.1626 241.4184 76.2806"></polyline>
                    <path d="M264.4598,4.4197 C264.4598,4.4197 265.1348,13.7657 264.4598,16.2657 C263.7838,18.7657 262.0758,20.9317 260.8258,20.3907 C259.5758,19.8487 257.6588,19.9397 257.6588,19.4987 C257.6588,19.0567 259.9748,13.0117 260.7258,12.3707 C261.4768,11.7297 262.5198,10.2297 262.5198,10.2297 L262.0758,5.6817 L264.4598,4.4197 Z" id="Fill-249" fill="#285164" mask="url(#mask-4)"></path>
                    <polygon id="Fill-250" fill="#FFFFFF" mask="url(#mask-4)" points="236.2313 38.4563 221.7823 46.4923 236.2313 55.1203 250.2153 46.5203"></polygon>
                    <polygon id="Stroke-251" stroke="#285164" mask="url(#mask-4)" points="236.2313 38.4563 221.7823 46.4923 236.2313 55.1203 250.2153 46.5203"></polygon>
                    <polygon id="Fill-252" fill="#FFFFFF" mask="url(#mask-4)" points="219.0155 7.4051 249.1645 24.7921 249.1645 54.1321 219.0155 37.2521"></polygon>
                    <polygon id="Stroke-253" stroke="#285164" mask="url(#mask-4)" points="219.0155 7.4051 249.1645 24.7921 249.1645 54.1321 219.0155 37.2521"></polygon>
                    <polygon id="Fill-254" fill="#FFFFFF" mask="url(#mask-4)" points="231.6903 52.4085 228.4823 50.4925 228.4823 39.3635 231.4553 41.1255"></polygon>
                    <polygon id="Stroke-255" stroke="#285164" mask="url(#mask-4)" points="231.6903 52.4085 228.4823 50.4925 228.4823 39.3635 231.4553 41.1255"></polygon>
                    <path d="M252.3593,38.0144 C252.3593,38.0144 248.8593,39.3894 249.9213,40.9524 C250.9843,42.5144 254.7513,39.4834 254.7513,39.4834 L252.3593,38.0144 Z" id="Fill-256" fill="#FFF0F0" mask="url(#mask-4)"></path>
                    <path d="M265.1097,21.5428 C265.1097,21.5428 266.5057,31.9978 263.7657,32.0768 C260.1457,32.1828 253.7797,36.4668 251.9537,37.7478 C251.7087,37.9198 251.7157,38.2828 251.9657,38.4478 L255.0777,40.5158 C255.0777,40.5158 268.1577,36.5288 269.0367,36.6548" id="Fill-257" fill="#A4C3F7" mask="url(#mask-4)"></path>
                    <path d="M265.1097,21.5428 C265.1097,21.5428 266.6177,30.3068 262.3277,31.8578 C258.9697,33.0708 253.6007,36.6398 251.9497,37.7628 C251.7087,37.9278 251.7147,38.2818 251.9597,38.4438 L254.7777,40.3158 C254.9677,40.4418 255.1977,40.4788 255.4157,40.4128 C257.4727,39.7898 268.2417,36.5408 269.0367,36.6548" id="Stroke-258" stroke="#285164" stroke-width="0.1" mask="url(#mask-4)"></path>
                    <path d="M260.8656,13.2166 C260.1806,13.2166 259.4266,12.9886 258.6466,12.5396 L258.7976,12.2796 C260.0296,12.9916 261.1836,13.1106 262.0426,12.6146 C262.8976,12.1236 263.3696,11.0786 263.3746,9.6726 C263.3826,6.6876 261.2756,3.0386 258.6776,1.5386 C257.4266,0.8166 256.1966,0.5966 255.3316,1.1166 C256.2936,0.5386 257.4776,0.4986 258.8286,1.2786 C261.5086,2.8266 263.6826,6.5916 263.6746,9.6736 C263.6696,11.1916 263.1436,12.3276 262.1926,12.8756 C261.7966,13.1036 261.3486,13.2166 260.8656,13.2166" id="Fill-259" fill="#FFFFFF" mask="url(#mask-4)"></path>
                    <path d="M264.3544,8.0491 C264.9574,8.5741 264.9604,9.4291 264.3614,9.9541 C263.7634,10.4791 262.7864,10.4791 262.1834,9.9541 C261.5814,9.4291 261.5774,8.5741 262.1764,8.0491 C262.7744,7.5241 263.7514,7.5241 264.3544,8.0491" id="Fill-260" fill="#FFFFFF" mask="url(#mask-4)"></path>
                    <path d="M258.4677,11.7137 C258.8897,11.9947 259.0927,12.4317 258.9207,12.6907 C258.7487,12.9487 258.2667,12.9317 257.8447,12.6507 C257.4227,12.3697 257.2197,11.9327 257.3917,11.6737 C257.5647,11.4157 258.0457,11.4337 258.4677,11.7137" id="Fill-261" fill="#FFFFFF" mask="url(#mask-4)"></path>
                    <path d="M200.5521,91.6234 C200.2921,91.6234 200.0461,91.6764 199.8221,91.7894 C198.5011,92.4504 198.3561,94.9514 199.5061,97.2514 C200.6571,99.5514 202.7451,100.9364 204.0671,100.2754 C205.3881,99.6144 205.5331,97.1124 204.3831,94.8124 C203.4271,92.9024 201.8251,91.6234 200.5521,91.6234 M203.3451,102.0754 C201.4311,102.0764 199.3101,100.5144 198.0441,97.9834 C196.4431,94.7844 196.9031,91.4204 199.0911,90.3264 C201.2791,89.2304 204.2451,90.8814 205.8451,94.0814 C207.4461,97.2804 206.9861,100.6444 204.7981,101.7384 C204.3421,101.9664 203.8501,102.0754 203.3451,102.0754" id="Fill-262" fill="#285164" mask="url(#mask-4)"></path>
                    <path d="M210.5775,98.848 L209.8455,97.385 C211.1675,96.724 211.3115,94.223 210.1615,91.922 C209.0115,89.622 206.9225,88.238 205.6005,88.899 L204.8695,87.435 C207.0575,86.342 210.0235,87.992 211.6235,91.191 C213.2245,94.39 212.7645,97.754 210.5775,98.848" id="Fill-263" fill="#285164" mask="url(#mask-4)"></path>
                    <polygon id="Fill-264" fill="#285164" mask="url(#mask-4)" points="199.8222 91.7889 199.0912 90.3259 204.8692 87.4349 205.6012 88.8989"></polygon>
                    <polygon id="Fill-265" fill="#285164" mask="url(#mask-4)" points="204.7982 101.7381 204.0672 100.2751 209.8452 97.3851 210.5772 98.8481"></polygon>
                    <g id="Group-268" mask="url(#mask-4)">
                        <g transform="translate(138.000000, 96.472000)">
                            <path d="M63.2738,0.1279 L0.7988,35.4489" id="Fill-266" stroke="none" fill="#FFFFFF" fill-rule="evenodd"></path>
                            <path d="M63.2738,0.1279 L0.7988,35.4489" id="Stroke-267" stroke="#285164" stroke-width="1" fill="none" stroke-linecap="round" stroke-linejoin="round"></path>
                        </g>
                    </g>
                    <path d="M365.1649,187.8626 C364.9049,187.8626 364.6599,187.9156 364.4359,188.0276 C363.1139,188.6886 362.9689,191.1906 364.1199,193.4906 C365.2699,195.7906 367.3579,197.1756 368.6799,196.5136 C370.0009,195.8536 370.1459,193.3516 368.9959,191.0516 C368.0399,189.1416 366.4379,187.8626 365.1649,187.8626 M367.9579,198.3146 C366.0439,198.3146 363.9229,196.7536 362.6569,194.2216 C361.0569,191.0226 361.5169,187.6586 363.7039,186.5646 C365.8919,185.4696 368.8579,187.1196 370.4579,190.3196 C372.0589,193.5196 371.5989,196.8826 369.4119,197.9776 C368.9549,198.2056 368.4639,198.3146 367.9579,198.3146" id="Fill-269" fill="#285164" mask="url(#mask-4)"></path>
                    <path d="M375.1903,195.0867 L374.4583,193.6237 C375.7803,192.9627 375.9243,190.4617 374.7743,188.1607 C373.6243,185.8617 371.5353,184.4767 370.2133,185.1377 L369.4823,183.6737 C371.6703,182.5807 374.6373,184.2307 376.2373,187.4297 C377.8373,190.6287 377.3783,193.9927 375.1903,195.0867" id="Fill-270" fill="#285164" mask="url(#mask-4)"></path>
                    <polygon id="Fill-271" fill="#285164" mask="url(#mask-4)" points="364.4354 188.0276 363.7044 186.5646 369.4824 183.6736 370.2134 185.1376"></polygon>
                    <polygon id="Fill-272" fill="#285164" mask="url(#mask-4)" points="369.4115 197.9774 368.6805 196.5144 374.4585 193.6234 375.1905 195.0864"></polygon>
                    <g id="Group-275" mask="url(#mask-4)">
                        <g transform="translate(304.000000, 192.472000)">
                            <path d="M61.8866,0.3667 L0.6126,35.0097" id="Fill-273" stroke="none" fill="#FFFFFF" fill-rule="evenodd"></path>
                            <path d="M61.8866,0.3667 L0.6126,35.0097" id="Stroke-274" stroke="#285164" stroke-width="1" fill="none" stroke-linecap="round" stroke-linejoin="round"></path>
                        </g>
                    </g>
                    <path d="M122.9022,186.3499 L199.8912,230.4349" id="Stroke-276" stroke="#285164" stroke-linecap="round" stroke-linejoin="round" mask="url(#mask-4)"></path>
                    <path d="M124.7455,183.6151 C124.5685,183.6151 124.4055,183.6351 124.2765,183.6571 C123.4915,183.7911 122.6625,184.2241 121.9435,184.8771 C121.2235,185.5291 120.7115,186.3121 120.5005,187.0801 C120.3945,187.4691 120.2805,188.1951 120.7145,188.6741 C121.1495,189.1541 121.8825,189.1111 122.2805,189.0431 C123.0655,188.9091 123.8945,188.4761 124.6145,187.8231 C126.0045,186.5631 126.5665,184.8241 125.8425,184.0251 C125.5485,183.7001 125.1175,183.6151 124.7455,183.6151 M121.8075,190.2791 C120.9955,190.2791 120.3085,190.0031 119.8305,189.4751 C119.2255,188.8081 119.0545,187.8451 119.3495,186.7651 C119.6195,185.7811 120.2555,184.7961 121.1415,183.9931 C122.0275,183.1891 123.0695,182.6531 124.0765,182.4801 C125.1795,182.2931 126.1215,182.5561 126.7265,183.2241 C127.9255,184.5461 127.3495,186.9541 125.4155,188.7071 C124.5295,189.5111 123.4875,190.0471 122.4815,190.2191 C122.2485,190.2591 122.0235,190.2791 121.8075,190.2791" id="Fill-277" fill="#285164" mask="url(#mask-4)"></path>
                    <path d="M115.3339,186.4881 C115.1239,186.3671 114.9349,186.2161 114.7739,186.0381 C114.1679,185.3701 113.9979,184.4081 114.2929,183.3281 C114.5629,182.3431 115.1989,181.3591 116.0849,180.5551 C118.0189,178.8021 120.4719,178.4651 121.6699,179.7861 L120.7859,180.5881 C120.0619,179.7891 118.2759,180.1791 116.8859,181.4391 C116.1669,182.0921 115.6539,182.8741 115.4439,183.6431 C115.3369,184.0321 115.2239,184.7581 115.6579,185.2371 C115.7349,185.3221 115.8259,185.3951 115.9279,185.4531 L115.3339,186.4881 Z" id="Fill-278" fill="#285164" mask="url(#mask-4)"></path>
                    <polygon id="Fill-279" fill="#285164" mask="url(#mask-4)" points="119.9413 189.5706 115.1013 186.3336 115.7643 185.3416 120.6043 188.5786"></polygon>
                    <polygon id="Fill-280" fill="#285164" mask="url(#mask-4)" points="125.5311 183.784 120.5581 180.399 121.2301 179.412 126.2021 182.798"></polygon>
                    <path d="M279.6093,98.7093 L354.3223,141.4913" id="Stroke-281" stroke="#285164" stroke-linecap="round" stroke-linejoin="round" mask="url(#mask-4)"></path>
                    <path d="M281.4525,95.9744 C281.2755,95.9744 281.1125,95.9944 280.9835,96.0164 C280.1985,96.1504 279.3695,96.5834 278.6505,97.2364 C277.9305,97.8884 277.4175,98.6714 277.2075,99.4394 C277.1005,99.8284 276.9875,100.5544 277.4215,101.0334 C277.8555,101.5134 278.5895,101.4704 278.9875,101.4024 C279.7725,101.2684 280.6015,100.8354 281.3215,100.1824 C282.7105,98.9224 283.2735,97.1834 282.5495,96.3844 C282.2555,96.0594 281.8235,95.9744 281.4525,95.9744 M278.5145,102.6384 C277.7025,102.6384 277.0155,102.3624 276.5375,101.8344 C275.9315,101.1674 275.7615,100.2044 276.0565,99.1244 C276.3265,98.1404 276.9625,97.1554 277.8485,96.3524 C278.7345,95.5484 279.7765,95.0124 280.7835,94.8394 C281.8865,94.6524 282.8275,94.9154 283.4335,95.5834 C284.6315,96.9054 284.0565,99.3134 282.1225,101.0664 C281.2365,101.8704 280.1945,102.4064 279.1885,102.5784 C278.9555,102.6184 278.7305,102.6384 278.5145,102.6384" id="Fill-282" fill="#285164" mask="url(#mask-4)"></path>
                    <path d="M272.0409,98.8475 C271.8309,98.7265 271.6419,98.5755 271.4809,98.3975 C270.8749,97.7295 270.7049,96.7675 270.9999,95.6875 C271.2699,94.7025 271.9059,93.7185 272.7919,92.9145 C274.7259,91.1615 277.1779,90.8245 278.3769,92.1455 L277.4929,92.9475 C276.7689,92.1485 274.9829,92.5385 273.5929,93.7985 C272.8739,94.4515 272.3609,95.2335 272.1509,96.0025 C272.0439,96.3915 271.9299,97.1175 272.3649,97.5965 C272.4419,97.6815 272.5329,97.7545 272.6349,97.8125 L272.0409,98.8475 Z" id="Fill-283" fill="#285164" mask="url(#mask-4)"></path>
                    <polygon id="Fill-284" fill="#285164" mask="url(#mask-4)" points="276.6478 101.93 271.8078 98.693 272.4718 97.701 277.3118 100.939"></polygon>
                    <polygon id="Fill-285" fill="#285164" mask="url(#mask-4)" points="282.2382 96.1434 277.2652 92.7584 277.9372 91.7714 282.9092 95.1574"></polygon>
                    <polygon id="Fill-286" fill="#FFFFFF" mask="url(#mask-4)" points="285.5746 147.2908 323.6516 169.2828 323.3076 169.0838 323.3076 219.1658 285.5746 196.8858"></polygon>
                    <polyline id="Stroke-287" stroke="#285164" mask="url(#mask-4)" points="285.5746 147.2908 323.6516 169.2828 323.3076 169.0838 323.3076 219.1658 285.5746 196.8858 285.5746 147.2908"></polyline>
                    <path d="M304.6561,171.3875 C306.2941,172.3445 307.6981,173.4065 308.8431,174.5495 C312.5281,178.2985 313.8521,183.4045 312.7681,189.7035 L312.7341,189.9125 L312.9131,190.1175 C313.4761,190.7725 313.7561,191.4605 313.2761,192.6815 C312.8841,193.6695 311.8761,193.5915 311.8761,193.5915 L311.8321,193.6885 C309.8561,198.5395 307.4121,200.2165 304.5781,198.6865 C301.7401,196.9415 299.3191,192.4555 297.3721,185.3405 L297.3341,185.1955 L297.2221,185.0755 C297.2181,185.0725 296.3291,184.1225 295.9441,182.6755 C295.4721,180.9035 295.7501,180.5385 296.3201,180.5375 L296.4951,180.5375 L296.4621,180.2895 C295.4221,172.7575 296.7661,169.1985 300.4641,169.7115 C301.6081,169.8905 303.0181,170.4525 304.6561,171.3875 Z" id="Stroke-288" stroke="#285164" mask="url(#mask-4)"></path>
                </g>
            </g>
        </g>
    </g>
</svg>